%TF.GenerationSoftware,KiCad,Pcbnew,(5.1.8)-1*%
%TF.CreationDate,2021-03-12T13:42:17+01:00*%
%TF.ProjectId,AP,41502e6b-6963-4616-945f-706362585858,rev?*%
%TF.SameCoordinates,Original*%
%TF.FileFunction,Other,User*%
%FSLAX46Y46*%
G04 Gerber Fmt 4.6, Leading zero omitted, Abs format (unit mm)*
G04 Created by KiCad (PCBNEW (5.1.8)-1) date 2021-03-12 13:42:17*
%MOMM*%
%LPD*%
G01*
G04 APERTURE LIST*
%ADD10C,0.050000*%
G04 APERTURE END LIST*
D10*
%TO.C,RTC1*%
X172610000Y-82710000D02*
X165210000Y-82710000D01*
X172610000Y-77310000D02*
X172610000Y-82710000D01*
X165210000Y-77310000D02*
X172610000Y-77310000D01*
X165210000Y-82710000D02*
X165210000Y-77310000D01*
%TO.C,RI2c2*%
X162335000Y-76520000D02*
X158975000Y-76520000D01*
X162335000Y-78420000D02*
X162335000Y-76520000D01*
X158975000Y-78420000D02*
X162335000Y-78420000D01*
X158975000Y-76520000D02*
X158975000Y-78420000D01*
%TO.C,RI2c1*%
X152454400Y-78933000D02*
X149094400Y-78933000D01*
X152454400Y-80833000D02*
X152454400Y-78933000D01*
X149094400Y-80833000D02*
X152454400Y-80833000D01*
X149094400Y-78933000D02*
X149094400Y-80833000D01*
%TO.C,Rec3*%
X152584401Y-72182999D02*
X149224401Y-72182999D01*
X152584401Y-74082999D02*
X152584401Y-72182999D01*
X149224401Y-74082999D02*
X152584401Y-74082999D01*
X149224401Y-72182999D02*
X149224401Y-74082999D01*
%TO.C,Rec2*%
X146714000Y-97856000D02*
X143354000Y-97856000D01*
X146714000Y-99756000D02*
X146714000Y-97856000D01*
X143354000Y-99756000D02*
X146714000Y-99756000D01*
X143354000Y-97856000D02*
X143354000Y-99756000D01*
%TO.C,Rec1*%
X152584401Y-75132999D02*
X149224401Y-75132999D01*
X152584401Y-77032999D02*
X152584401Y-75132999D01*
X149224401Y-77032999D02*
X152584401Y-77032999D01*
X149224401Y-75132999D02*
X149224401Y-77032999D01*
%TO.C,R4*%
X149237801Y-104598999D02*
X145877801Y-104598999D01*
X149237801Y-106498999D02*
X149237801Y-104598999D01*
X145877801Y-106498999D02*
X149237801Y-106498999D01*
X145877801Y-104598999D02*
X145877801Y-106498999D01*
%TO.C,R3*%
X149237801Y-107548999D02*
X145877801Y-107548999D01*
X149237801Y-109448999D02*
X149237801Y-107548999D01*
X145877801Y-109448999D02*
X149237801Y-109448999D01*
X145877801Y-107548999D02*
X145877801Y-109448999D01*
%TO.C,R2*%
X149237801Y-110498999D02*
X145877801Y-110498999D01*
X149237801Y-112398999D02*
X149237801Y-110498999D01*
X145877801Y-112398999D02*
X149237801Y-112398999D01*
X145877801Y-110498999D02*
X145877801Y-112398999D01*
%TO.C,R1*%
X155139999Y-102664399D02*
X155139999Y-106024399D01*
X157039999Y-102664399D02*
X155139999Y-102664399D01*
X157039999Y-106024399D02*
X157039999Y-102664399D01*
X155139999Y-106024399D02*
X157039999Y-106024399D01*
%TO.C,Dioda1*%
X146205000Y-121610000D02*
X149705000Y-121610000D01*
X146205000Y-114610000D02*
X146205000Y-121610000D01*
X149705000Y-114610000D02*
X146205000Y-114610000D01*
X149705000Y-121610000D02*
X149705000Y-114610000D01*
%TO.C,Demultiplexor1*%
X192007000Y-81541000D02*
X199407000Y-81541000D01*
X192007000Y-91941000D02*
X192007000Y-81541000D01*
X199407000Y-91941000D02*
X192007000Y-91941000D01*
X199407000Y-81541000D02*
X199407000Y-91941000D01*
%TO.C,C2*%
X139990000Y-96090000D02*
X139990000Y-99490000D01*
X141950000Y-96090000D02*
X139990000Y-96090000D01*
X141950000Y-99490000D02*
X141950000Y-96090000D01*
X139990000Y-99490000D02*
X141950000Y-99490000D01*
%TO.C,C1*%
X155079999Y-107074399D02*
X155079999Y-110474399D01*
X157039999Y-107074399D02*
X155079999Y-107074399D01*
X157039999Y-110474399D02*
X157039999Y-107074399D01*
X155079999Y-110474399D02*
X157039999Y-110474399D01*
%TO.C,Baterie1*%
X194380000Y-115815000D02*
X189380000Y-115815000D01*
X194380000Y-103315000D02*
X194380000Y-98815000D01*
X197580000Y-103315000D02*
X194380000Y-103315000D01*
X197580000Y-105015000D02*
X197580000Y-103315000D01*
X199330000Y-105015000D02*
X197580000Y-105015000D01*
X199330000Y-109615000D02*
X199330000Y-105015000D01*
X197580000Y-109615000D02*
X199330000Y-109615000D01*
X197580000Y-111315000D02*
X197580000Y-109615000D01*
X194380000Y-111315000D02*
X197580000Y-111315000D01*
X194380000Y-115815000D02*
X194380000Y-111315000D01*
X171380000Y-115815000D02*
X176380000Y-115815000D01*
X171380000Y-111315000D02*
X171380000Y-115815000D01*
X168180000Y-111315000D02*
X171380000Y-111315000D01*
X168180000Y-109615000D02*
X168180000Y-111315000D01*
X168180000Y-109615000D02*
X166430000Y-109615000D01*
X166430000Y-105015000D02*
X166430000Y-109615000D01*
X168180000Y-105015000D02*
X166430000Y-105015000D01*
X168180000Y-103315000D02*
X168180000Y-105015000D01*
X168180000Y-103315000D02*
X171380000Y-103315000D01*
X171380000Y-103315000D02*
X171380000Y-98815000D01*
X176380000Y-98815000D02*
X171380000Y-98815000D01*
X194380000Y-98815000D02*
X189380000Y-98815000D01*
X176380001Y-115815000D02*
G75*
G03*
X189380000Y-115815000I6499999J8500000D01*
G01*
X189379999Y-98815000D02*
G75*
G03*
X176380000Y-98815000I-6499999J-8500000D01*
G01*
%TO.C,U1*%
X189628000Y-81780000D02*
X189628000Y-90940000D01*
X189628000Y-90940000D02*
X182228000Y-90940000D01*
X182228000Y-90940000D02*
X182228000Y-81780000D01*
X182228000Y-81780000D02*
X189628000Y-81780000D01*
%TO.C,U2*%
X144035000Y-94750000D02*
X136635000Y-94750000D01*
X144035000Y-85590000D02*
X144035000Y-94750000D01*
X136635000Y-85590000D02*
X144035000Y-85590000D01*
X136635000Y-94750000D02*
X136635000Y-85590000D01*
%TD*%
M02*
