%TF.GenerationSoftware,KiCad,Pcbnew,(5.1.8)-1*%
%TF.CreationDate,2021-03-12T13:42:17+01:00*%
%TF.ProjectId,AP,41502e6b-6963-4616-945f-706362585858,rev?*%
%TF.SameCoordinates,Original*%
%TF.FileFunction,Legend,Bot*%
%TF.FilePolarity,Positive*%
%FSLAX46Y46*%
G04 Gerber Fmt 4.6, Leading zero omitted, Abs format (unit mm)*
G04 Created by KiCad (PCBNEW (5.1.8)-1) date 2021-03-12 13:42:17*
%MOMM*%
%LPD*%
G01*
G04 APERTURE LIST*
%ADD10C,0.120000*%
%ADD11C,0.150000*%
G04 APERTURE END LIST*
D10*
%TO.C,RTC1*%
X168910000Y-82570000D02*
X165460000Y-82570000D01*
X168910000Y-82570000D02*
X170860000Y-82570000D01*
X168910000Y-77450000D02*
X166960000Y-77450000D01*
X168910000Y-77450000D02*
X170860000Y-77450000D01*
%TO.C,RI2c2*%
X160427936Y-76735000D02*
X160882064Y-76735000D01*
X160427936Y-78205000D02*
X160882064Y-78205000D01*
%TO.C,RI2c1*%
X150547336Y-79148000D02*
X151001464Y-79148000D01*
X150547336Y-80618000D02*
X151001464Y-80618000D01*
%TO.C,Rec3*%
X150677337Y-72397999D02*
X151131465Y-72397999D01*
X150677337Y-73867999D02*
X151131465Y-73867999D01*
%TO.C,Rec2*%
X144806936Y-98071000D02*
X145261064Y-98071000D01*
X144806936Y-99541000D02*
X145261064Y-99541000D01*
%TO.C,Rec1*%
X150677337Y-75347999D02*
X151131465Y-75347999D01*
X150677337Y-76817999D02*
X151131465Y-76817999D01*
%TO.C,R4*%
X147330737Y-104813999D02*
X147784865Y-104813999D01*
X147330737Y-106283999D02*
X147784865Y-106283999D01*
%TO.C,R3*%
X147330737Y-107763999D02*
X147784865Y-107763999D01*
X147330737Y-109233999D02*
X147784865Y-109233999D01*
%TO.C,R2*%
X147330737Y-110713999D02*
X147784865Y-110713999D01*
X147330737Y-112183999D02*
X147784865Y-112183999D01*
%TO.C,R1*%
X155354999Y-104571463D02*
X155354999Y-104117335D01*
X156824999Y-104571463D02*
X156824999Y-104117335D01*
%TO.C,Dioda1*%
X149605000Y-121510000D02*
X149605000Y-116110000D01*
X146305000Y-121510000D02*
X146305000Y-116110000D01*
X149605000Y-121510000D02*
X146305000Y-121510000D01*
%TO.C,Demultiplexor1*%
X195707000Y-81681000D02*
X199157000Y-81681000D01*
X195707000Y-81681000D02*
X193757000Y-81681000D01*
X195707000Y-91801000D02*
X197657000Y-91801000D01*
X195707000Y-91801000D02*
X193757000Y-91801000D01*
%TO.C,C2*%
X140235000Y-98051252D02*
X140235000Y-97528748D01*
X141705000Y-98051252D02*
X141705000Y-97528748D01*
%TO.C,C1*%
X155324999Y-109035651D02*
X155324999Y-108513147D01*
X156794999Y-109035651D02*
X156794999Y-108513147D01*
%TO.C,Baterie1*%
X170880000Y-101315000D02*
X168880000Y-101315000D01*
X169880000Y-102315000D02*
X169880000Y-100315000D01*
X194230000Y-115665000D02*
X194230000Y-111165000D01*
X171530000Y-115665000D02*
X171530000Y-111165000D01*
X171530000Y-115665000D02*
X194230000Y-115665000D01*
X197430000Y-111165000D02*
X197430000Y-109615000D01*
X194230000Y-111165000D02*
X197430000Y-111165000D01*
X168330000Y-111165000D02*
X168330000Y-109615000D01*
X171530000Y-111165000D02*
X168330000Y-111165000D01*
X168330000Y-103465000D02*
X168330000Y-105015000D01*
X171530000Y-103465000D02*
X168330000Y-103465000D01*
X173330000Y-98965000D02*
X171530000Y-100765000D01*
X171530000Y-100765000D02*
X171530000Y-103465000D01*
X194230000Y-98965000D02*
X173330000Y-98965000D01*
X194230000Y-98965000D02*
X194230000Y-103465000D01*
X197430000Y-103465000D02*
X197430000Y-105015000D01*
X194230000Y-103465000D02*
X197430000Y-103465000D01*
%TO.C,U1*%
X185928000Y-90795000D02*
X183978000Y-90795000D01*
X185928000Y-90795000D02*
X187878000Y-90795000D01*
X185928000Y-81925000D02*
X183978000Y-81925000D01*
X185928000Y-81925000D02*
X189378000Y-81925000D01*
%TO.C,U2*%
X140335000Y-94605000D02*
X136885000Y-94605000D01*
X140335000Y-94605000D02*
X142285000Y-94605000D01*
X140335000Y-85735000D02*
X138385000Y-85735000D01*
X140335000Y-85735000D02*
X142285000Y-85735000D01*
%TO.C,U1*%
D11*
X186689904Y-80532380D02*
X186689904Y-81341904D01*
X186642285Y-81437142D01*
X186594666Y-81484761D01*
X186499428Y-81532380D01*
X186308952Y-81532380D01*
X186213714Y-81484761D01*
X186166095Y-81437142D01*
X186118476Y-81341904D01*
X186118476Y-80532380D01*
X185118476Y-81532380D02*
X185689904Y-81532380D01*
X185404190Y-81532380D02*
X185404190Y-80532380D01*
X185499428Y-80675238D01*
X185594666Y-80770476D01*
X185689904Y-80818095D01*
%TO.C,U2*%
X141096904Y-94902380D02*
X141096904Y-95711904D01*
X141049285Y-95807142D01*
X141001666Y-95854761D01*
X140906428Y-95902380D01*
X140715952Y-95902380D01*
X140620714Y-95854761D01*
X140573095Y-95807142D01*
X140525476Y-95711904D01*
X140525476Y-94902380D01*
X140096904Y-94997619D02*
X140049285Y-94950000D01*
X139954047Y-94902380D01*
X139715952Y-94902380D01*
X139620714Y-94950000D01*
X139573095Y-94997619D01*
X139525476Y-95092857D01*
X139525476Y-95188095D01*
X139573095Y-95330952D01*
X140144523Y-95902380D01*
X139525476Y-95902380D01*
%TD*%
M02*
