%TF.GenerationSoftware,KiCad,Pcbnew,(5.1.8)-1*%
%TF.CreationDate,2021-03-12T13:42:17+01:00*%
%TF.ProjectId,AP,41502e6b-6963-4616-945f-706362585858,rev?*%
%TF.SameCoordinates,Original*%
%TF.FileFunction,Soldermask,Bot*%
%TF.FilePolarity,Negative*%
%FSLAX46Y46*%
G04 Gerber Fmt 4.6, Leading zero omitted, Abs format (unit mm)*
G04 Created by KiCad (PCBNEW (5.1.8)-1) date 2021-03-12 13:42:17*
%MOMM*%
%LPD*%
G01*
G04 APERTURE LIST*
%ADD10R,2.000000X2.000000*%
%ADD11C,2.000000*%
%ADD12R,3.200000X2.000000*%
%ADD13C,1.500000*%
%ADD14R,1.500000X1.500000*%
%ADD15R,1.800000X2.500000*%
%ADD16R,2.600000X3.600000*%
G04 APERTURE END LIST*
%TO.C,RTC1*%
G36*
G01*
X170610000Y-82065000D02*
X170610000Y-81765000D01*
G75*
G02*
X170760000Y-81615000I150000J0D01*
G01*
X172210000Y-81615000D01*
G75*
G02*
X172360000Y-81765000I0J-150000D01*
G01*
X172360000Y-82065000D01*
G75*
G02*
X172210000Y-82215000I-150000J0D01*
G01*
X170760000Y-82215000D01*
G75*
G02*
X170610000Y-82065000I0J150000D01*
G01*
G37*
G36*
G01*
X170610000Y-80795000D02*
X170610000Y-80495000D01*
G75*
G02*
X170760000Y-80345000I150000J0D01*
G01*
X172210000Y-80345000D01*
G75*
G02*
X172360000Y-80495000I0J-150000D01*
G01*
X172360000Y-80795000D01*
G75*
G02*
X172210000Y-80945000I-150000J0D01*
G01*
X170760000Y-80945000D01*
G75*
G02*
X170610000Y-80795000I0J150000D01*
G01*
G37*
G36*
G01*
X170610000Y-79525000D02*
X170610000Y-79225000D01*
G75*
G02*
X170760000Y-79075000I150000J0D01*
G01*
X172210000Y-79075000D01*
G75*
G02*
X172360000Y-79225000I0J-150000D01*
G01*
X172360000Y-79525000D01*
G75*
G02*
X172210000Y-79675000I-150000J0D01*
G01*
X170760000Y-79675000D01*
G75*
G02*
X170610000Y-79525000I0J150000D01*
G01*
G37*
G36*
G01*
X170610000Y-78255000D02*
X170610000Y-77955000D01*
G75*
G02*
X170760000Y-77805000I150000J0D01*
G01*
X172210000Y-77805000D01*
G75*
G02*
X172360000Y-77955000I0J-150000D01*
G01*
X172360000Y-78255000D01*
G75*
G02*
X172210000Y-78405000I-150000J0D01*
G01*
X170760000Y-78405000D01*
G75*
G02*
X170610000Y-78255000I0J150000D01*
G01*
G37*
G36*
G01*
X165460000Y-78255000D02*
X165460000Y-77955000D01*
G75*
G02*
X165610000Y-77805000I150000J0D01*
G01*
X167060000Y-77805000D01*
G75*
G02*
X167210000Y-77955000I0J-150000D01*
G01*
X167210000Y-78255000D01*
G75*
G02*
X167060000Y-78405000I-150000J0D01*
G01*
X165610000Y-78405000D01*
G75*
G02*
X165460000Y-78255000I0J150000D01*
G01*
G37*
G36*
G01*
X165460000Y-79525000D02*
X165460000Y-79225000D01*
G75*
G02*
X165610000Y-79075000I150000J0D01*
G01*
X167060000Y-79075000D01*
G75*
G02*
X167210000Y-79225000I0J-150000D01*
G01*
X167210000Y-79525000D01*
G75*
G02*
X167060000Y-79675000I-150000J0D01*
G01*
X165610000Y-79675000D01*
G75*
G02*
X165460000Y-79525000I0J150000D01*
G01*
G37*
G36*
G01*
X165460000Y-80795000D02*
X165460000Y-80495000D01*
G75*
G02*
X165610000Y-80345000I150000J0D01*
G01*
X167060000Y-80345000D01*
G75*
G02*
X167210000Y-80495000I0J-150000D01*
G01*
X167210000Y-80795000D01*
G75*
G02*
X167060000Y-80945000I-150000J0D01*
G01*
X165610000Y-80945000D01*
G75*
G02*
X165460000Y-80795000I0J150000D01*
G01*
G37*
G36*
G01*
X165460000Y-82065000D02*
X165460000Y-81765000D01*
G75*
G02*
X165610000Y-81615000I150000J0D01*
G01*
X167060000Y-81615000D01*
G75*
G02*
X167210000Y-81765000I0J-150000D01*
G01*
X167210000Y-82065000D01*
G75*
G02*
X167060000Y-82215000I-150000J0D01*
G01*
X165610000Y-82215000D01*
G75*
G02*
X165460000Y-82065000I0J150000D01*
G01*
G37*
%TD*%
%TO.C,RI2c2*%
G36*
G01*
X161055000Y-77920001D02*
X161055000Y-77019999D01*
G75*
G02*
X161304999Y-76770000I249999J0D01*
G01*
X161830001Y-76770000D01*
G75*
G02*
X162080000Y-77019999I0J-249999D01*
G01*
X162080000Y-77920001D01*
G75*
G02*
X161830001Y-78170000I-249999J0D01*
G01*
X161304999Y-78170000D01*
G75*
G02*
X161055000Y-77920001I0J249999D01*
G01*
G37*
G36*
G01*
X159230000Y-77920001D02*
X159230000Y-77019999D01*
G75*
G02*
X159479999Y-76770000I249999J0D01*
G01*
X160005001Y-76770000D01*
G75*
G02*
X160255000Y-77019999I0J-249999D01*
G01*
X160255000Y-77920001D01*
G75*
G02*
X160005001Y-78170000I-249999J0D01*
G01*
X159479999Y-78170000D01*
G75*
G02*
X159230000Y-77920001I0J249999D01*
G01*
G37*
%TD*%
%TO.C,RI2c1*%
G36*
G01*
X151174400Y-80333001D02*
X151174400Y-79432999D01*
G75*
G02*
X151424399Y-79183000I249999J0D01*
G01*
X151949401Y-79183000D01*
G75*
G02*
X152199400Y-79432999I0J-249999D01*
G01*
X152199400Y-80333001D01*
G75*
G02*
X151949401Y-80583000I-249999J0D01*
G01*
X151424399Y-80583000D01*
G75*
G02*
X151174400Y-80333001I0J249999D01*
G01*
G37*
G36*
G01*
X149349400Y-80333001D02*
X149349400Y-79432999D01*
G75*
G02*
X149599399Y-79183000I249999J0D01*
G01*
X150124401Y-79183000D01*
G75*
G02*
X150374400Y-79432999I0J-249999D01*
G01*
X150374400Y-80333001D01*
G75*
G02*
X150124401Y-80583000I-249999J0D01*
G01*
X149599399Y-80583000D01*
G75*
G02*
X149349400Y-80333001I0J249999D01*
G01*
G37*
%TD*%
%TO.C,Rec3*%
G36*
G01*
X151304401Y-73583000D02*
X151304401Y-72682998D01*
G75*
G02*
X151554400Y-72432999I249999J0D01*
G01*
X152079402Y-72432999D01*
G75*
G02*
X152329401Y-72682998I0J-249999D01*
G01*
X152329401Y-73583000D01*
G75*
G02*
X152079402Y-73832999I-249999J0D01*
G01*
X151554400Y-73832999D01*
G75*
G02*
X151304401Y-73583000I0J249999D01*
G01*
G37*
G36*
G01*
X149479401Y-73583000D02*
X149479401Y-72682998D01*
G75*
G02*
X149729400Y-72432999I249999J0D01*
G01*
X150254402Y-72432999D01*
G75*
G02*
X150504401Y-72682998I0J-249999D01*
G01*
X150504401Y-73583000D01*
G75*
G02*
X150254402Y-73832999I-249999J0D01*
G01*
X149729400Y-73832999D01*
G75*
G02*
X149479401Y-73583000I0J249999D01*
G01*
G37*
%TD*%
%TO.C,Rec2*%
G36*
G01*
X145434000Y-99256001D02*
X145434000Y-98355999D01*
G75*
G02*
X145683999Y-98106000I249999J0D01*
G01*
X146209001Y-98106000D01*
G75*
G02*
X146459000Y-98355999I0J-249999D01*
G01*
X146459000Y-99256001D01*
G75*
G02*
X146209001Y-99506000I-249999J0D01*
G01*
X145683999Y-99506000D01*
G75*
G02*
X145434000Y-99256001I0J249999D01*
G01*
G37*
G36*
G01*
X143609000Y-99256001D02*
X143609000Y-98355999D01*
G75*
G02*
X143858999Y-98106000I249999J0D01*
G01*
X144384001Y-98106000D01*
G75*
G02*
X144634000Y-98355999I0J-249999D01*
G01*
X144634000Y-99256001D01*
G75*
G02*
X144384001Y-99506000I-249999J0D01*
G01*
X143858999Y-99506000D01*
G75*
G02*
X143609000Y-99256001I0J249999D01*
G01*
G37*
%TD*%
%TO.C,Rec1*%
G36*
G01*
X151304401Y-76533000D02*
X151304401Y-75632998D01*
G75*
G02*
X151554400Y-75382999I249999J0D01*
G01*
X152079402Y-75382999D01*
G75*
G02*
X152329401Y-75632998I0J-249999D01*
G01*
X152329401Y-76533000D01*
G75*
G02*
X152079402Y-76782999I-249999J0D01*
G01*
X151554400Y-76782999D01*
G75*
G02*
X151304401Y-76533000I0J249999D01*
G01*
G37*
G36*
G01*
X149479401Y-76533000D02*
X149479401Y-75632998D01*
G75*
G02*
X149729400Y-75382999I249999J0D01*
G01*
X150254402Y-75382999D01*
G75*
G02*
X150504401Y-75632998I0J-249999D01*
G01*
X150504401Y-76533000D01*
G75*
G02*
X150254402Y-76782999I-249999J0D01*
G01*
X149729400Y-76782999D01*
G75*
G02*
X149479401Y-76533000I0J249999D01*
G01*
G37*
%TD*%
%TO.C,R4*%
G36*
G01*
X147957801Y-105999000D02*
X147957801Y-105098998D01*
G75*
G02*
X148207800Y-104848999I249999J0D01*
G01*
X148732802Y-104848999D01*
G75*
G02*
X148982801Y-105098998I0J-249999D01*
G01*
X148982801Y-105999000D01*
G75*
G02*
X148732802Y-106248999I-249999J0D01*
G01*
X148207800Y-106248999D01*
G75*
G02*
X147957801Y-105999000I0J249999D01*
G01*
G37*
G36*
G01*
X146132801Y-105999000D02*
X146132801Y-105098998D01*
G75*
G02*
X146382800Y-104848999I249999J0D01*
G01*
X146907802Y-104848999D01*
G75*
G02*
X147157801Y-105098998I0J-249999D01*
G01*
X147157801Y-105999000D01*
G75*
G02*
X146907802Y-106248999I-249999J0D01*
G01*
X146382800Y-106248999D01*
G75*
G02*
X146132801Y-105999000I0J249999D01*
G01*
G37*
%TD*%
%TO.C,R3*%
G36*
G01*
X147957801Y-108949000D02*
X147957801Y-108048998D01*
G75*
G02*
X148207800Y-107798999I249999J0D01*
G01*
X148732802Y-107798999D01*
G75*
G02*
X148982801Y-108048998I0J-249999D01*
G01*
X148982801Y-108949000D01*
G75*
G02*
X148732802Y-109198999I-249999J0D01*
G01*
X148207800Y-109198999D01*
G75*
G02*
X147957801Y-108949000I0J249999D01*
G01*
G37*
G36*
G01*
X146132801Y-108949000D02*
X146132801Y-108048998D01*
G75*
G02*
X146382800Y-107798999I249999J0D01*
G01*
X146907802Y-107798999D01*
G75*
G02*
X147157801Y-108048998I0J-249999D01*
G01*
X147157801Y-108949000D01*
G75*
G02*
X146907802Y-109198999I-249999J0D01*
G01*
X146382800Y-109198999D01*
G75*
G02*
X146132801Y-108949000I0J249999D01*
G01*
G37*
%TD*%
%TO.C,R2*%
G36*
G01*
X147957801Y-111899000D02*
X147957801Y-110998998D01*
G75*
G02*
X148207800Y-110748999I249999J0D01*
G01*
X148732802Y-110748999D01*
G75*
G02*
X148982801Y-110998998I0J-249999D01*
G01*
X148982801Y-111899000D01*
G75*
G02*
X148732802Y-112148999I-249999J0D01*
G01*
X148207800Y-112148999D01*
G75*
G02*
X147957801Y-111899000I0J249999D01*
G01*
G37*
G36*
G01*
X146132801Y-111899000D02*
X146132801Y-110998998D01*
G75*
G02*
X146382800Y-110748999I249999J0D01*
G01*
X146907802Y-110748999D01*
G75*
G02*
X147157801Y-110998998I0J-249999D01*
G01*
X147157801Y-111899000D01*
G75*
G02*
X146907802Y-112148999I-249999J0D01*
G01*
X146382800Y-112148999D01*
G75*
G02*
X146132801Y-111899000I0J249999D01*
G01*
G37*
%TD*%
%TO.C,R1*%
G36*
G01*
X156540000Y-103944399D02*
X155639998Y-103944399D01*
G75*
G02*
X155389999Y-103694400I0J249999D01*
G01*
X155389999Y-103169398D01*
G75*
G02*
X155639998Y-102919399I249999J0D01*
G01*
X156540000Y-102919399D01*
G75*
G02*
X156789999Y-103169398I0J-249999D01*
G01*
X156789999Y-103694400D01*
G75*
G02*
X156540000Y-103944399I-249999J0D01*
G01*
G37*
G36*
G01*
X156540000Y-105769399D02*
X155639998Y-105769399D01*
G75*
G02*
X155389999Y-105519400I0J249999D01*
G01*
X155389999Y-104994398D01*
G75*
G02*
X155639998Y-104744399I249999J0D01*
G01*
X156540000Y-104744399D01*
G75*
G02*
X156789999Y-104994398I0J-249999D01*
G01*
X156789999Y-105519400D01*
G75*
G02*
X156540000Y-105769399I-249999J0D01*
G01*
G37*
%TD*%
D10*
%TO.C,Nastaven1*%
X148590000Y-86995000D03*
D11*
X148590000Y-89495000D03*
X148590000Y-91995000D03*
D12*
X156090000Y-83895000D03*
X156090000Y-95095000D03*
D11*
X163090000Y-86995000D03*
X163090000Y-91995000D03*
%TD*%
D13*
%TO.C,Displej1*%
X166116000Y-116078000D03*
X163576000Y-116078000D03*
X161036000Y-116078000D03*
X158496000Y-116078000D03*
X155956000Y-116078000D03*
X153416000Y-116078000D03*
X153416000Y-100838000D03*
X155956000Y-100838000D03*
X158496000Y-100838000D03*
X161036000Y-100838000D03*
X163576000Y-100838000D03*
D14*
X166116000Y-100838000D03*
%TD*%
D15*
%TO.C,Dioda1*%
X147955000Y-116110000D03*
X147955000Y-120110000D03*
%TD*%
%TO.C,Demultiplexor1*%
G36*
G01*
X194007000Y-82146000D02*
X194007000Y-82446000D01*
G75*
G02*
X193857000Y-82596000I-150000J0D01*
G01*
X192407000Y-82596000D01*
G75*
G02*
X192257000Y-82446000I0J150000D01*
G01*
X192257000Y-82146000D01*
G75*
G02*
X192407000Y-81996000I150000J0D01*
G01*
X193857000Y-81996000D01*
G75*
G02*
X194007000Y-82146000I0J-150000D01*
G01*
G37*
G36*
G01*
X194007000Y-83416000D02*
X194007000Y-83716000D01*
G75*
G02*
X193857000Y-83866000I-150000J0D01*
G01*
X192407000Y-83866000D01*
G75*
G02*
X192257000Y-83716000I0J150000D01*
G01*
X192257000Y-83416000D01*
G75*
G02*
X192407000Y-83266000I150000J0D01*
G01*
X193857000Y-83266000D01*
G75*
G02*
X194007000Y-83416000I0J-150000D01*
G01*
G37*
G36*
G01*
X194007000Y-84686000D02*
X194007000Y-84986000D01*
G75*
G02*
X193857000Y-85136000I-150000J0D01*
G01*
X192407000Y-85136000D01*
G75*
G02*
X192257000Y-84986000I0J150000D01*
G01*
X192257000Y-84686000D01*
G75*
G02*
X192407000Y-84536000I150000J0D01*
G01*
X193857000Y-84536000D01*
G75*
G02*
X194007000Y-84686000I0J-150000D01*
G01*
G37*
G36*
G01*
X194007000Y-85956000D02*
X194007000Y-86256000D01*
G75*
G02*
X193857000Y-86406000I-150000J0D01*
G01*
X192407000Y-86406000D01*
G75*
G02*
X192257000Y-86256000I0J150000D01*
G01*
X192257000Y-85956000D01*
G75*
G02*
X192407000Y-85806000I150000J0D01*
G01*
X193857000Y-85806000D01*
G75*
G02*
X194007000Y-85956000I0J-150000D01*
G01*
G37*
G36*
G01*
X194007000Y-87226000D02*
X194007000Y-87526000D01*
G75*
G02*
X193857000Y-87676000I-150000J0D01*
G01*
X192407000Y-87676000D01*
G75*
G02*
X192257000Y-87526000I0J150000D01*
G01*
X192257000Y-87226000D01*
G75*
G02*
X192407000Y-87076000I150000J0D01*
G01*
X193857000Y-87076000D01*
G75*
G02*
X194007000Y-87226000I0J-150000D01*
G01*
G37*
G36*
G01*
X194007000Y-88496000D02*
X194007000Y-88796000D01*
G75*
G02*
X193857000Y-88946000I-150000J0D01*
G01*
X192407000Y-88946000D01*
G75*
G02*
X192257000Y-88796000I0J150000D01*
G01*
X192257000Y-88496000D01*
G75*
G02*
X192407000Y-88346000I150000J0D01*
G01*
X193857000Y-88346000D01*
G75*
G02*
X194007000Y-88496000I0J-150000D01*
G01*
G37*
G36*
G01*
X194007000Y-89766000D02*
X194007000Y-90066000D01*
G75*
G02*
X193857000Y-90216000I-150000J0D01*
G01*
X192407000Y-90216000D01*
G75*
G02*
X192257000Y-90066000I0J150000D01*
G01*
X192257000Y-89766000D01*
G75*
G02*
X192407000Y-89616000I150000J0D01*
G01*
X193857000Y-89616000D01*
G75*
G02*
X194007000Y-89766000I0J-150000D01*
G01*
G37*
G36*
G01*
X194007000Y-91036000D02*
X194007000Y-91336000D01*
G75*
G02*
X193857000Y-91486000I-150000J0D01*
G01*
X192407000Y-91486000D01*
G75*
G02*
X192257000Y-91336000I0J150000D01*
G01*
X192257000Y-91036000D01*
G75*
G02*
X192407000Y-90886000I150000J0D01*
G01*
X193857000Y-90886000D01*
G75*
G02*
X194007000Y-91036000I0J-150000D01*
G01*
G37*
G36*
G01*
X199157000Y-91036000D02*
X199157000Y-91336000D01*
G75*
G02*
X199007000Y-91486000I-150000J0D01*
G01*
X197557000Y-91486000D01*
G75*
G02*
X197407000Y-91336000I0J150000D01*
G01*
X197407000Y-91036000D01*
G75*
G02*
X197557000Y-90886000I150000J0D01*
G01*
X199007000Y-90886000D01*
G75*
G02*
X199157000Y-91036000I0J-150000D01*
G01*
G37*
G36*
G01*
X199157000Y-89766000D02*
X199157000Y-90066000D01*
G75*
G02*
X199007000Y-90216000I-150000J0D01*
G01*
X197557000Y-90216000D01*
G75*
G02*
X197407000Y-90066000I0J150000D01*
G01*
X197407000Y-89766000D01*
G75*
G02*
X197557000Y-89616000I150000J0D01*
G01*
X199007000Y-89616000D01*
G75*
G02*
X199157000Y-89766000I0J-150000D01*
G01*
G37*
G36*
G01*
X199157000Y-88496000D02*
X199157000Y-88796000D01*
G75*
G02*
X199007000Y-88946000I-150000J0D01*
G01*
X197557000Y-88946000D01*
G75*
G02*
X197407000Y-88796000I0J150000D01*
G01*
X197407000Y-88496000D01*
G75*
G02*
X197557000Y-88346000I150000J0D01*
G01*
X199007000Y-88346000D01*
G75*
G02*
X199157000Y-88496000I0J-150000D01*
G01*
G37*
G36*
G01*
X199157000Y-87226000D02*
X199157000Y-87526000D01*
G75*
G02*
X199007000Y-87676000I-150000J0D01*
G01*
X197557000Y-87676000D01*
G75*
G02*
X197407000Y-87526000I0J150000D01*
G01*
X197407000Y-87226000D01*
G75*
G02*
X197557000Y-87076000I150000J0D01*
G01*
X199007000Y-87076000D01*
G75*
G02*
X199157000Y-87226000I0J-150000D01*
G01*
G37*
G36*
G01*
X199157000Y-85956000D02*
X199157000Y-86256000D01*
G75*
G02*
X199007000Y-86406000I-150000J0D01*
G01*
X197557000Y-86406000D01*
G75*
G02*
X197407000Y-86256000I0J150000D01*
G01*
X197407000Y-85956000D01*
G75*
G02*
X197557000Y-85806000I150000J0D01*
G01*
X199007000Y-85806000D01*
G75*
G02*
X199157000Y-85956000I0J-150000D01*
G01*
G37*
G36*
G01*
X199157000Y-84686000D02*
X199157000Y-84986000D01*
G75*
G02*
X199007000Y-85136000I-150000J0D01*
G01*
X197557000Y-85136000D01*
G75*
G02*
X197407000Y-84986000I0J150000D01*
G01*
X197407000Y-84686000D01*
G75*
G02*
X197557000Y-84536000I150000J0D01*
G01*
X199007000Y-84536000D01*
G75*
G02*
X199157000Y-84686000I0J-150000D01*
G01*
G37*
G36*
G01*
X199157000Y-83416000D02*
X199157000Y-83716000D01*
G75*
G02*
X199007000Y-83866000I-150000J0D01*
G01*
X197557000Y-83866000D01*
G75*
G02*
X197407000Y-83716000I0J150000D01*
G01*
X197407000Y-83416000D01*
G75*
G02*
X197557000Y-83266000I150000J0D01*
G01*
X199007000Y-83266000D01*
G75*
G02*
X199157000Y-83416000I0J-150000D01*
G01*
G37*
G36*
G01*
X199157000Y-82146000D02*
X199157000Y-82446000D01*
G75*
G02*
X199007000Y-82596000I-150000J0D01*
G01*
X197557000Y-82596000D01*
G75*
G02*
X197407000Y-82446000I0J150000D01*
G01*
X197407000Y-82146000D01*
G75*
G02*
X197557000Y-81996000I150000J0D01*
G01*
X199007000Y-81996000D01*
G75*
G02*
X199157000Y-82146000I0J-150000D01*
G01*
G37*
%TD*%
%TO.C,C2*%
G36*
G01*
X141445000Y-97340000D02*
X140495000Y-97340000D01*
G75*
G02*
X140245000Y-97090000I0J250000D01*
G01*
X140245000Y-96590000D01*
G75*
G02*
X140495000Y-96340000I250000J0D01*
G01*
X141445000Y-96340000D01*
G75*
G02*
X141695000Y-96590000I0J-250000D01*
G01*
X141695000Y-97090000D01*
G75*
G02*
X141445000Y-97340000I-250000J0D01*
G01*
G37*
G36*
G01*
X141445000Y-99240000D02*
X140495000Y-99240000D01*
G75*
G02*
X140245000Y-98990000I0J250000D01*
G01*
X140245000Y-98490000D01*
G75*
G02*
X140495000Y-98240000I250000J0D01*
G01*
X141445000Y-98240000D01*
G75*
G02*
X141695000Y-98490000I0J-250000D01*
G01*
X141695000Y-98990000D01*
G75*
G02*
X141445000Y-99240000I-250000J0D01*
G01*
G37*
%TD*%
%TO.C,C1*%
G36*
G01*
X156534999Y-108324399D02*
X155584999Y-108324399D01*
G75*
G02*
X155334999Y-108074399I0J250000D01*
G01*
X155334999Y-107574399D01*
G75*
G02*
X155584999Y-107324399I250000J0D01*
G01*
X156534999Y-107324399D01*
G75*
G02*
X156784999Y-107574399I0J-250000D01*
G01*
X156784999Y-108074399D01*
G75*
G02*
X156534999Y-108324399I-250000J0D01*
G01*
G37*
G36*
G01*
X156534999Y-110224399D02*
X155584999Y-110224399D01*
G75*
G02*
X155334999Y-109974399I0J250000D01*
G01*
X155334999Y-109474399D01*
G75*
G02*
X155584999Y-109224399I250000J0D01*
G01*
X156534999Y-109224399D01*
G75*
G02*
X156784999Y-109474399I0J-250000D01*
G01*
X156784999Y-109974399D01*
G75*
G02*
X156534999Y-110224399I-250000J0D01*
G01*
G37*
%TD*%
D11*
%TO.C,bzu\u010D\u00E1k1*%
X173990000Y-86380000D03*
D10*
X173990000Y-93980000D03*
%TD*%
D16*
%TO.C,Baterie1*%
X168230000Y-107315000D03*
X197530000Y-107315000D03*
%TD*%
%TO.C,U1*%
G36*
G01*
X189378000Y-82400000D02*
X189378000Y-82700000D01*
G75*
G02*
X189228000Y-82850000I-150000J0D01*
G01*
X187578000Y-82850000D01*
G75*
G02*
X187428000Y-82700000I0J150000D01*
G01*
X187428000Y-82400000D01*
G75*
G02*
X187578000Y-82250000I150000J0D01*
G01*
X189228000Y-82250000D01*
G75*
G02*
X189378000Y-82400000I0J-150000D01*
G01*
G37*
G36*
G01*
X189378000Y-83670000D02*
X189378000Y-83970000D01*
G75*
G02*
X189228000Y-84120000I-150000J0D01*
G01*
X187578000Y-84120000D01*
G75*
G02*
X187428000Y-83970000I0J150000D01*
G01*
X187428000Y-83670000D01*
G75*
G02*
X187578000Y-83520000I150000J0D01*
G01*
X189228000Y-83520000D01*
G75*
G02*
X189378000Y-83670000I0J-150000D01*
G01*
G37*
G36*
G01*
X189378000Y-84940000D02*
X189378000Y-85240000D01*
G75*
G02*
X189228000Y-85390000I-150000J0D01*
G01*
X187578000Y-85390000D01*
G75*
G02*
X187428000Y-85240000I0J150000D01*
G01*
X187428000Y-84940000D01*
G75*
G02*
X187578000Y-84790000I150000J0D01*
G01*
X189228000Y-84790000D01*
G75*
G02*
X189378000Y-84940000I0J-150000D01*
G01*
G37*
G36*
G01*
X189378000Y-86210000D02*
X189378000Y-86510000D01*
G75*
G02*
X189228000Y-86660000I-150000J0D01*
G01*
X187578000Y-86660000D01*
G75*
G02*
X187428000Y-86510000I0J150000D01*
G01*
X187428000Y-86210000D01*
G75*
G02*
X187578000Y-86060000I150000J0D01*
G01*
X189228000Y-86060000D01*
G75*
G02*
X189378000Y-86210000I0J-150000D01*
G01*
G37*
G36*
G01*
X189378000Y-87480000D02*
X189378000Y-87780000D01*
G75*
G02*
X189228000Y-87930000I-150000J0D01*
G01*
X187578000Y-87930000D01*
G75*
G02*
X187428000Y-87780000I0J150000D01*
G01*
X187428000Y-87480000D01*
G75*
G02*
X187578000Y-87330000I150000J0D01*
G01*
X189228000Y-87330000D01*
G75*
G02*
X189378000Y-87480000I0J-150000D01*
G01*
G37*
G36*
G01*
X189378000Y-88750000D02*
X189378000Y-89050000D01*
G75*
G02*
X189228000Y-89200000I-150000J0D01*
G01*
X187578000Y-89200000D01*
G75*
G02*
X187428000Y-89050000I0J150000D01*
G01*
X187428000Y-88750000D01*
G75*
G02*
X187578000Y-88600000I150000J0D01*
G01*
X189228000Y-88600000D01*
G75*
G02*
X189378000Y-88750000I0J-150000D01*
G01*
G37*
G36*
G01*
X189378000Y-90020000D02*
X189378000Y-90320000D01*
G75*
G02*
X189228000Y-90470000I-150000J0D01*
G01*
X187578000Y-90470000D01*
G75*
G02*
X187428000Y-90320000I0J150000D01*
G01*
X187428000Y-90020000D01*
G75*
G02*
X187578000Y-89870000I150000J0D01*
G01*
X189228000Y-89870000D01*
G75*
G02*
X189378000Y-90020000I0J-150000D01*
G01*
G37*
G36*
G01*
X184428000Y-90020000D02*
X184428000Y-90320000D01*
G75*
G02*
X184278000Y-90470000I-150000J0D01*
G01*
X182628000Y-90470000D01*
G75*
G02*
X182478000Y-90320000I0J150000D01*
G01*
X182478000Y-90020000D01*
G75*
G02*
X182628000Y-89870000I150000J0D01*
G01*
X184278000Y-89870000D01*
G75*
G02*
X184428000Y-90020000I0J-150000D01*
G01*
G37*
G36*
G01*
X184428000Y-88750000D02*
X184428000Y-89050000D01*
G75*
G02*
X184278000Y-89200000I-150000J0D01*
G01*
X182628000Y-89200000D01*
G75*
G02*
X182478000Y-89050000I0J150000D01*
G01*
X182478000Y-88750000D01*
G75*
G02*
X182628000Y-88600000I150000J0D01*
G01*
X184278000Y-88600000D01*
G75*
G02*
X184428000Y-88750000I0J-150000D01*
G01*
G37*
G36*
G01*
X184428000Y-87480000D02*
X184428000Y-87780000D01*
G75*
G02*
X184278000Y-87930000I-150000J0D01*
G01*
X182628000Y-87930000D01*
G75*
G02*
X182478000Y-87780000I0J150000D01*
G01*
X182478000Y-87480000D01*
G75*
G02*
X182628000Y-87330000I150000J0D01*
G01*
X184278000Y-87330000D01*
G75*
G02*
X184428000Y-87480000I0J-150000D01*
G01*
G37*
G36*
G01*
X184428000Y-86210000D02*
X184428000Y-86510000D01*
G75*
G02*
X184278000Y-86660000I-150000J0D01*
G01*
X182628000Y-86660000D01*
G75*
G02*
X182478000Y-86510000I0J150000D01*
G01*
X182478000Y-86210000D01*
G75*
G02*
X182628000Y-86060000I150000J0D01*
G01*
X184278000Y-86060000D01*
G75*
G02*
X184428000Y-86210000I0J-150000D01*
G01*
G37*
G36*
G01*
X184428000Y-84940000D02*
X184428000Y-85240000D01*
G75*
G02*
X184278000Y-85390000I-150000J0D01*
G01*
X182628000Y-85390000D01*
G75*
G02*
X182478000Y-85240000I0J150000D01*
G01*
X182478000Y-84940000D01*
G75*
G02*
X182628000Y-84790000I150000J0D01*
G01*
X184278000Y-84790000D01*
G75*
G02*
X184428000Y-84940000I0J-150000D01*
G01*
G37*
G36*
G01*
X184428000Y-83670000D02*
X184428000Y-83970000D01*
G75*
G02*
X184278000Y-84120000I-150000J0D01*
G01*
X182628000Y-84120000D01*
G75*
G02*
X182478000Y-83970000I0J150000D01*
G01*
X182478000Y-83670000D01*
G75*
G02*
X182628000Y-83520000I150000J0D01*
G01*
X184278000Y-83520000D01*
G75*
G02*
X184428000Y-83670000I0J-150000D01*
G01*
G37*
G36*
G01*
X184428000Y-82400000D02*
X184428000Y-82700000D01*
G75*
G02*
X184278000Y-82850000I-150000J0D01*
G01*
X182628000Y-82850000D01*
G75*
G02*
X182478000Y-82700000I0J150000D01*
G01*
X182478000Y-82400000D01*
G75*
G02*
X182628000Y-82250000I150000J0D01*
G01*
X184278000Y-82250000D01*
G75*
G02*
X184428000Y-82400000I0J-150000D01*
G01*
G37*
%TD*%
%TO.C,U2*%
G36*
G01*
X141835000Y-94130000D02*
X141835000Y-93830000D01*
G75*
G02*
X141985000Y-93680000I150000J0D01*
G01*
X143635000Y-93680000D01*
G75*
G02*
X143785000Y-93830000I0J-150000D01*
G01*
X143785000Y-94130000D01*
G75*
G02*
X143635000Y-94280000I-150000J0D01*
G01*
X141985000Y-94280000D01*
G75*
G02*
X141835000Y-94130000I0J150000D01*
G01*
G37*
G36*
G01*
X141835000Y-92860000D02*
X141835000Y-92560000D01*
G75*
G02*
X141985000Y-92410000I150000J0D01*
G01*
X143635000Y-92410000D01*
G75*
G02*
X143785000Y-92560000I0J-150000D01*
G01*
X143785000Y-92860000D01*
G75*
G02*
X143635000Y-93010000I-150000J0D01*
G01*
X141985000Y-93010000D01*
G75*
G02*
X141835000Y-92860000I0J150000D01*
G01*
G37*
G36*
G01*
X141835000Y-91590000D02*
X141835000Y-91290000D01*
G75*
G02*
X141985000Y-91140000I150000J0D01*
G01*
X143635000Y-91140000D01*
G75*
G02*
X143785000Y-91290000I0J-150000D01*
G01*
X143785000Y-91590000D01*
G75*
G02*
X143635000Y-91740000I-150000J0D01*
G01*
X141985000Y-91740000D01*
G75*
G02*
X141835000Y-91590000I0J150000D01*
G01*
G37*
G36*
G01*
X141835000Y-90320000D02*
X141835000Y-90020000D01*
G75*
G02*
X141985000Y-89870000I150000J0D01*
G01*
X143635000Y-89870000D01*
G75*
G02*
X143785000Y-90020000I0J-150000D01*
G01*
X143785000Y-90320000D01*
G75*
G02*
X143635000Y-90470000I-150000J0D01*
G01*
X141985000Y-90470000D01*
G75*
G02*
X141835000Y-90320000I0J150000D01*
G01*
G37*
G36*
G01*
X141835000Y-89050000D02*
X141835000Y-88750000D01*
G75*
G02*
X141985000Y-88600000I150000J0D01*
G01*
X143635000Y-88600000D01*
G75*
G02*
X143785000Y-88750000I0J-150000D01*
G01*
X143785000Y-89050000D01*
G75*
G02*
X143635000Y-89200000I-150000J0D01*
G01*
X141985000Y-89200000D01*
G75*
G02*
X141835000Y-89050000I0J150000D01*
G01*
G37*
G36*
G01*
X141835000Y-87780000D02*
X141835000Y-87480000D01*
G75*
G02*
X141985000Y-87330000I150000J0D01*
G01*
X143635000Y-87330000D01*
G75*
G02*
X143785000Y-87480000I0J-150000D01*
G01*
X143785000Y-87780000D01*
G75*
G02*
X143635000Y-87930000I-150000J0D01*
G01*
X141985000Y-87930000D01*
G75*
G02*
X141835000Y-87780000I0J150000D01*
G01*
G37*
G36*
G01*
X141835000Y-86510000D02*
X141835000Y-86210000D01*
G75*
G02*
X141985000Y-86060000I150000J0D01*
G01*
X143635000Y-86060000D01*
G75*
G02*
X143785000Y-86210000I0J-150000D01*
G01*
X143785000Y-86510000D01*
G75*
G02*
X143635000Y-86660000I-150000J0D01*
G01*
X141985000Y-86660000D01*
G75*
G02*
X141835000Y-86510000I0J150000D01*
G01*
G37*
G36*
G01*
X136885000Y-86510000D02*
X136885000Y-86210000D01*
G75*
G02*
X137035000Y-86060000I150000J0D01*
G01*
X138685000Y-86060000D01*
G75*
G02*
X138835000Y-86210000I0J-150000D01*
G01*
X138835000Y-86510000D01*
G75*
G02*
X138685000Y-86660000I-150000J0D01*
G01*
X137035000Y-86660000D01*
G75*
G02*
X136885000Y-86510000I0J150000D01*
G01*
G37*
G36*
G01*
X136885000Y-87780000D02*
X136885000Y-87480000D01*
G75*
G02*
X137035000Y-87330000I150000J0D01*
G01*
X138685000Y-87330000D01*
G75*
G02*
X138835000Y-87480000I0J-150000D01*
G01*
X138835000Y-87780000D01*
G75*
G02*
X138685000Y-87930000I-150000J0D01*
G01*
X137035000Y-87930000D01*
G75*
G02*
X136885000Y-87780000I0J150000D01*
G01*
G37*
G36*
G01*
X136885000Y-89050000D02*
X136885000Y-88750000D01*
G75*
G02*
X137035000Y-88600000I150000J0D01*
G01*
X138685000Y-88600000D01*
G75*
G02*
X138835000Y-88750000I0J-150000D01*
G01*
X138835000Y-89050000D01*
G75*
G02*
X138685000Y-89200000I-150000J0D01*
G01*
X137035000Y-89200000D01*
G75*
G02*
X136885000Y-89050000I0J150000D01*
G01*
G37*
G36*
G01*
X136885000Y-90320000D02*
X136885000Y-90020000D01*
G75*
G02*
X137035000Y-89870000I150000J0D01*
G01*
X138685000Y-89870000D01*
G75*
G02*
X138835000Y-90020000I0J-150000D01*
G01*
X138835000Y-90320000D01*
G75*
G02*
X138685000Y-90470000I-150000J0D01*
G01*
X137035000Y-90470000D01*
G75*
G02*
X136885000Y-90320000I0J150000D01*
G01*
G37*
G36*
G01*
X136885000Y-91590000D02*
X136885000Y-91290000D01*
G75*
G02*
X137035000Y-91140000I150000J0D01*
G01*
X138685000Y-91140000D01*
G75*
G02*
X138835000Y-91290000I0J-150000D01*
G01*
X138835000Y-91590000D01*
G75*
G02*
X138685000Y-91740000I-150000J0D01*
G01*
X137035000Y-91740000D01*
G75*
G02*
X136885000Y-91590000I0J150000D01*
G01*
G37*
G36*
G01*
X136885000Y-92860000D02*
X136885000Y-92560000D01*
G75*
G02*
X137035000Y-92410000I150000J0D01*
G01*
X138685000Y-92410000D01*
G75*
G02*
X138835000Y-92560000I0J-150000D01*
G01*
X138835000Y-92860000D01*
G75*
G02*
X138685000Y-93010000I-150000J0D01*
G01*
X137035000Y-93010000D01*
G75*
G02*
X136885000Y-92860000I0J150000D01*
G01*
G37*
G36*
G01*
X136885000Y-94130000D02*
X136885000Y-93830000D01*
G75*
G02*
X137035000Y-93680000I150000J0D01*
G01*
X138685000Y-93680000D01*
G75*
G02*
X138835000Y-93830000I0J-150000D01*
G01*
X138835000Y-94130000D01*
G75*
G02*
X138685000Y-94280000I-150000J0D01*
G01*
X137035000Y-94280000D01*
G75*
G02*
X136885000Y-94130000I0J150000D01*
G01*
G37*
%TD*%
M02*
