%TF.GenerationSoftware,KiCad,Pcbnew,(5.1.8)-1*%
%TF.CreationDate,2021-03-12T13:42:17+01:00*%
%TF.ProjectId,AP,41502e6b-6963-4616-945f-706362585858,rev?*%
%TF.SameCoordinates,Original*%
%TF.FileFunction,Profile,NP*%
%FSLAX46Y46*%
G04 Gerber Fmt 4.6, Leading zero omitted, Abs format (unit mm)*
G04 Created by KiCad (PCBNEW (5.1.8)-1) date 2021-03-12 13:42:17*
%MOMM*%
%LPD*%
G01*
G04 APERTURE LIST*
%TA.AperFunction,Profile*%
%ADD10C,0.050000*%
%TD*%
G04 APERTURE END LIST*
D10*
X200000000Y-122000000D02*
X200000000Y-111000000D01*
X198000000Y-124000000D02*
X200000000Y-122000000D01*
X134000000Y-124000000D02*
X198000000Y-124000000D01*
X134000000Y-70000000D02*
X134000000Y-124000000D01*
X200000000Y-70000000D02*
X134000000Y-70000000D01*
X200000000Y-72000000D02*
X200000000Y-70000000D01*
X203000000Y-75000000D02*
X200000000Y-72000000D01*
X203000000Y-108000000D02*
X203000000Y-75000000D01*
X200000000Y-111000000D02*
X203000000Y-108000000D01*
X200000000Y-122000000D02*
X200000000Y-111000000D01*
X200000000Y-70000000D02*
X134000000Y-70000000D01*
X200000000Y-72000000D02*
X200000000Y-70000000D01*
X203000000Y-75000000D02*
X200000000Y-72000000D01*
X203000000Y-108000000D02*
X203000000Y-75000000D01*
X200000000Y-111000000D02*
X203000000Y-108000000D01*
X200000000Y-121000000D02*
X200000000Y-111000000D01*
X200000000Y-122000000D02*
X200000000Y-121000000D01*
X198000000Y-124000000D02*
X200000000Y-122000000D01*
X134000000Y-124000000D02*
X198000000Y-124000000D01*
X134000000Y-123000000D02*
X134000000Y-124000000D01*
X134000000Y-73000000D02*
X134000000Y-123000000D01*
X134000000Y-73000000D02*
X132000000Y-73000000D01*
X134000000Y-70000000D02*
X134000000Y-73000000D01*
M02*
