%TF.GenerationSoftware,KiCad,Pcbnew,(5.1.8)-1*%
%TF.CreationDate,2021-03-12T13:42:17+01:00*%
%TF.ProjectId,AP,41502e6b-6963-4616-945f-706362585858,rev?*%
%TF.SameCoordinates,Original*%
%TF.FileFunction,Copper,L1,Top*%
%TF.FilePolarity,Positive*%
%FSLAX46Y46*%
G04 Gerber Fmt 4.6, Leading zero omitted, Abs format (unit mm)*
G04 Created by KiCad (PCBNEW (5.1.8)-1) date 2021-03-12 13:42:17*
%MOMM*%
%LPD*%
G01*
G04 APERTURE LIST*
%TA.AperFunction,ComponentPad*%
%ADD10R,2.000000X2.000000*%
%TD*%
%TA.AperFunction,ComponentPad*%
%ADD11C,2.000000*%
%TD*%
%TA.AperFunction,ComponentPad*%
%ADD12R,3.200000X2.000000*%
%TD*%
%TA.AperFunction,ComponentPad*%
%ADD13C,1.500000*%
%TD*%
%TA.AperFunction,ComponentPad*%
%ADD14R,1.500000X1.500000*%
%TD*%
%TA.AperFunction,ViaPad*%
%ADD15C,0.800000*%
%TD*%
%TA.AperFunction,ViaPad*%
%ADD16C,0.762000*%
%TD*%
%TA.AperFunction,ViaPad*%
%ADD17C,0.508000*%
%TD*%
%TA.AperFunction,Conductor*%
%ADD18C,0.381000*%
%TD*%
%TA.AperFunction,Conductor*%
%ADD19C,0.762000*%
%TD*%
%TA.AperFunction,Conductor*%
%ADD20C,0.250000*%
%TD*%
%TA.AperFunction,Conductor*%
%ADD21C,0.100000*%
%TD*%
G04 APERTURE END LIST*
D10*
%TO.P,Nastaven1,A*%
%TO.N,A*%
X148590000Y-86995000D03*
D11*
%TO.P,Nastaven1,C*%
%TO.N,GND*%
X148590000Y-89495000D03*
%TO.P,Nastaven1,B*%
%TO.N,B*%
X148590000Y-91995000D03*
D12*
%TO.P,Nastaven1,MP*%
%TO.N,N/C*%
X156090000Y-83895000D03*
X156090000Y-95095000D03*
D11*
%TO.P,Nastaven1,S2*%
%TO.N,GND*%
X163090000Y-86995000D03*
%TO.P,Nastaven1,S1*%
%TO.N,S1*%
X163090000Y-91995000D03*
%TD*%
D13*
%TO.P,Displej1,12*%
%TO.N,Net-(Displej1-Pad12)*%
X166116000Y-116078000D03*
%TO.P,Displej1,11*%
%TO.N,Net-(Displej1-Pad11)*%
X163576000Y-116078000D03*
%TO.P,Displej1,10*%
%TO.N,Net-(Displej1-Pad10)*%
X161036000Y-116078000D03*
%TO.P,Displej1,9*%
%TO.N,Net-(Displej1-Pad9)*%
X158496000Y-116078000D03*
%TO.P,Displej1,8*%
%TO.N,Net-(Displej1-Pad8)*%
X155956000Y-116078000D03*
%TO.P,Displej1,7*%
%TO.N,Net-(Displej1-Pad7)*%
X153416000Y-116078000D03*
%TO.P,Displej1,6*%
%TO.N,Net-(Displej1-Pad6)*%
X153416000Y-100838000D03*
%TO.P,Displej1,5*%
%TO.N,Net-(Displej1-Pad5)*%
X155956000Y-100838000D03*
%TO.P,Displej1,4*%
%TO.N,Net-(Displej1-Pad4)*%
X158496000Y-100838000D03*
%TO.P,Displej1,3*%
%TO.N,Net-(Displej1-Pad3)*%
X161036000Y-100838000D03*
%TO.P,Displej1,2*%
%TO.N,Net-(Displej1-Pad2)*%
X163576000Y-100838000D03*
D14*
%TO.P,Displej1,1*%
%TO.N,Net-(Displej1-Pad1)*%
X166116000Y-100838000D03*
%TD*%
D11*
%TO.P,bzu\u010D\u00E1k1,2*%
%TO.N,GND*%
X173990000Y-86380000D03*
D10*
%TO.P,bzu\u010D\u00E1k1,1*%
%TO.N,Buz*%
X173990000Y-93980000D03*
%TD*%
D15*
%TO.N,Net-(Baterie1-Pad1)*%
X168910000Y-84582000D03*
X168910000Y-81788000D03*
%TO.N,GND*%
X180594000Y-105664000D03*
X151638000Y-106934000D03*
X152146000Y-92964000D03*
X196850000Y-116840000D03*
X186690000Y-86106000D03*
X199898000Y-85344000D03*
X157988000Y-107950000D03*
X149606000Y-113538000D03*
X151000000Y-119750000D03*
X198120000Y-92710000D03*
X141500000Y-77250000D03*
X176784000Y-85852000D03*
X173482000Y-77978000D03*
X139954000Y-94234000D03*
X141224000Y-88138000D03*
X158750000Y-86106000D03*
X191770000Y-106680000D03*
X199136000Y-101346000D03*
X168148000Y-116000000D03*
X197500000Y-77500000D03*
X195500000Y-74750000D03*
X201250000Y-75750000D03*
X186690000Y-90678000D03*
X138938000Y-111252000D03*
%TO.N,VCC*%
X148844000Y-81280000D03*
X146304000Y-83820000D03*
D16*
X151130000Y-103378000D03*
X153670000Y-105410000D03*
D17*
%TO.N,Y3*%
X191008000Y-88646000D03*
X187960000Y-94996000D03*
X186436000Y-96012000D03*
X183388000Y-92964000D03*
%TO.N,Y4*%
X184150000Y-100838000D03*
X181356000Y-98806000D03*
X179578000Y-94488000D03*
X179578000Y-92710000D03*
D15*
X180594000Y-86360000D03*
X181864000Y-86360000D03*
D17*
%TO.N,Y5*%
X181356000Y-91948000D03*
X188214000Y-97790000D03*
X181356000Y-87021942D03*
X179578000Y-86360000D03*
%TO.N,Y6*%
X136398000Y-94996000D03*
X154940000Y-71120000D03*
X170942000Y-74422000D03*
X191770000Y-74422000D03*
X194310000Y-75946000D03*
X192786000Y-92964000D03*
%TO.N,Y7*%
X199644000Y-89916000D03*
X139700000Y-92202000D03*
%TO.N,A2*%
X176276000Y-114554000D03*
X170434000Y-117602000D03*
%TO.N,A1*%
X175260000Y-116586000D03*
X170942000Y-119126000D03*
%TO.N,A0*%
X200660000Y-87376000D03*
X200660000Y-89662000D03*
X176530000Y-117856000D03*
X171958000Y-119634000D03*
D15*
%TO.N,S1*%
X154940000Y-78232000D03*
X156718000Y-80772000D03*
D17*
X187452000Y-108458000D03*
X178816000Y-100838000D03*
X169672000Y-94742000D03*
%TO.N,B*%
X181864000Y-113792000D03*
X177292000Y-110490000D03*
X153924000Y-103826328D03*
X151130000Y-102362000D03*
%TO.N,A*%
X183134000Y-116840000D03*
X184404000Y-114808000D03*
X183896000Y-111506000D03*
X173228000Y-100584000D03*
X169418000Y-97790000D03*
D15*
%TO.N,GNDs9*%
X163322000Y-114046000D03*
X170180000Y-114046000D03*
%TO.N,SDA*%
X166624000Y-75946000D03*
X173736000Y-75946000D03*
%TO.N,SCL*%
X180086000Y-77724000D03*
X177292000Y-79502000D03*
D17*
%TO.N,Net-(Displej1-Pad11)*%
X164084000Y-113284000D03*
X180848000Y-81280000D03*
X178562000Y-81534000D03*
X178308000Y-92202000D03*
X177546000Y-93980000D03*
X175768000Y-99568000D03*
X175006000Y-101092000D03*
X173482000Y-102108000D03*
X172720000Y-108204000D03*
X170942000Y-109220000D03*
%TO.N,Net-(Displej1-Pad10)*%
X170688000Y-107188000D03*
X187198000Y-96266000D03*
X185420000Y-87630000D03*
%TO.N,Net-(Displej1-Pad8)*%
X151384000Y-108712000D03*
X151384000Y-112268000D03*
%TO.N,Net-(Displej1-Pad7)*%
X153416000Y-114554000D03*
X176022000Y-92202000D03*
%TO.N,Net-(Displej1-Pad5)*%
X135128000Y-96012000D03*
%TO.N,Net-(Displej1-Pad4)*%
X166370000Y-103124000D03*
X169926000Y-103124000D03*
%TO.N,Net-(Displej1-Pad3)*%
X149606000Y-97536000D03*
X144018000Y-96266000D03*
%TO.N,Net-(Displej1-Pad2)*%
X180340000Y-96012000D03*
X172974000Y-99314000D03*
X169164000Y-96266000D03*
X164338000Y-96520000D03*
X186182000Y-91694000D03*
X182880000Y-91186000D03*
%TO.N,Net-(Displej1-Pad1)*%
X167132000Y-91186000D03*
X182118000Y-90424000D03*
%TD*%
D18*
%TO.N,Net-(Baterie1-Pad1)*%
X168910000Y-84582000D02*
X168910000Y-81788000D01*
X168910000Y-81788000D02*
X168910000Y-81788000D01*
%TO.N,Buz*%
X173990000Y-93980000D02*
X173990000Y-96266000D01*
X173990000Y-96266000D02*
X171958000Y-98298000D01*
X171958000Y-98298000D02*
X171958000Y-114300000D01*
X171958000Y-114300000D02*
X167640000Y-118618000D01*
X167640000Y-118618000D02*
X166161458Y-118618000D01*
X165233671Y-118767729D02*
X166011729Y-118767729D01*
X163122800Y-120878600D02*
X165233671Y-118767729D01*
X166161458Y-118618000D02*
X166011729Y-118767729D01*
%TO.N,VCC*%
X148844000Y-81280000D02*
X146304000Y-83820000D01*
X146304000Y-83820000D02*
X146304000Y-83820000D01*
D19*
X153670000Y-105410000D02*
X153670000Y-105410000D01*
X151638000Y-103378000D02*
X151130000Y-103378000D01*
X151130000Y-103378000D02*
X151130000Y-103378000D01*
X153670000Y-105410000D02*
X151638000Y-103378000D01*
D18*
%TO.N,Y3*%
X191008000Y-88646000D02*
X191008000Y-91948000D01*
X191008000Y-91948000D02*
X187960000Y-94996000D01*
X187960000Y-94996000D02*
X187960000Y-94996000D01*
X186436000Y-96012000D02*
X183388000Y-92964000D01*
X183388000Y-92964000D02*
X183388000Y-92964000D01*
%TO.N,Y4*%
X184150000Y-100838000D02*
X183388000Y-100838000D01*
X183388000Y-100838000D02*
X181356000Y-98806000D01*
X181356000Y-98806000D02*
X181356000Y-98806000D01*
X179578000Y-94488000D02*
X179578000Y-92710000D01*
X179578000Y-92710000D02*
X179578000Y-92710000D01*
X180594000Y-86360000D02*
X181864000Y-86360000D01*
X181864000Y-86360000D02*
X181864000Y-86360000D01*
%TO.N,Y5*%
X181356000Y-91948000D02*
X181356000Y-92710000D01*
X181356000Y-92710000D02*
X186436000Y-97790000D01*
X186436000Y-97790000D02*
X188214000Y-97790000D01*
X188214000Y-97790000D02*
X188214000Y-97790000D01*
D20*
X181356000Y-87021942D02*
X181255942Y-87122000D01*
X180282998Y-87122000D02*
X179832000Y-86671002D01*
X181255942Y-87122000D02*
X180282998Y-87122000D01*
X179832000Y-86671002D02*
X179832000Y-86614000D01*
X179832000Y-86614000D02*
X179578000Y-86360000D01*
X179578000Y-86360000D02*
X179578000Y-86360000D01*
D18*
%TO.N,Y6*%
X136398000Y-94996000D02*
X135128000Y-93726000D01*
X135128000Y-91186000D02*
X135382000Y-90932000D01*
X135128000Y-93726000D02*
X135128000Y-91186000D01*
X135382000Y-89348328D02*
X135636000Y-89094328D01*
X135382000Y-90932000D02*
X135382000Y-89348328D01*
X135636000Y-89094328D02*
X135636000Y-84328000D01*
X136725010Y-83238990D02*
X140789010Y-83238990D01*
X135636000Y-84328000D02*
X136725010Y-83238990D01*
X140789010Y-83238990D02*
X141224000Y-82804000D01*
X141224000Y-82804000D02*
X145542000Y-82804000D01*
X145542000Y-82804000D02*
X146304000Y-82042000D01*
X146304000Y-82042000D02*
X146304000Y-71882000D01*
X146304000Y-71882000D02*
X147320000Y-70866000D01*
X147320000Y-70866000D02*
X154178000Y-70866000D01*
X154178000Y-70866000D02*
X154686000Y-70866000D01*
X154686000Y-70866000D02*
X154940000Y-71120000D01*
X154940000Y-71120000D02*
X154940000Y-71120000D01*
X170942000Y-74422000D02*
X191516000Y-74422000D01*
X191516000Y-74422000D02*
X191770000Y-74422000D01*
X191770000Y-74422000D02*
X191770000Y-74422000D01*
X194310000Y-75946000D02*
X195834000Y-77470000D01*
X195834000Y-77470000D02*
X194818000Y-78486000D01*
X194818000Y-78486000D02*
X194818000Y-93726000D01*
X194818000Y-93726000D02*
X194310000Y-93218000D01*
X194310000Y-93218000D02*
X193040000Y-93218000D01*
X193040000Y-93218000D02*
X192786000Y-92964000D01*
X192786000Y-92964000D02*
X192786000Y-92964000D01*
%TO.N,Y7*%
X199644000Y-87438138D02*
X200914000Y-86168138D01*
X199644000Y-89916000D02*
X199644000Y-87438138D01*
X200914000Y-86168138D02*
X200914000Y-78486000D01*
X200914000Y-78486000D02*
X199136000Y-76708000D01*
X199136000Y-76708000D02*
X199136000Y-71628000D01*
X199136000Y-71628000D02*
X198936099Y-71428099D01*
X198936099Y-71428099D02*
X198374000Y-70866000D01*
X198374000Y-70866000D02*
X156718000Y-70866000D01*
X156718000Y-70866000D02*
X153670000Y-73914000D01*
X153670000Y-73914000D02*
X153670000Y-82296000D01*
X153670000Y-82296000D02*
X152654000Y-82296000D01*
X152654000Y-82296000D02*
X150114000Y-84836000D01*
X150114000Y-84836000D02*
X146304000Y-84836000D01*
X146304000Y-84836000D02*
X145542000Y-84836000D01*
X145542000Y-84836000D02*
X144526000Y-83820000D01*
X144526000Y-83820000D02*
X141732000Y-83820000D01*
X141732000Y-83820000D02*
X140208000Y-85344000D01*
X140208000Y-85344000D02*
X140208000Y-89154000D01*
X140208000Y-89154000D02*
X140208000Y-91694000D01*
X140208000Y-91694000D02*
X139700000Y-92202000D01*
X139700000Y-92202000D02*
X139700000Y-92202000D01*
%TO.N,A2*%
X176276000Y-114554000D02*
X174244000Y-114554000D01*
X174244000Y-114554000D02*
X173736000Y-115062000D01*
X173736000Y-115062000D02*
X172974000Y-115062000D01*
X172974000Y-115062000D02*
X170434000Y-117602000D01*
X170434000Y-117602000D02*
X170434000Y-117602000D01*
%TO.N,A1*%
X175260000Y-116586000D02*
X173482000Y-116586000D01*
X173482000Y-116586000D02*
X170942000Y-119126000D01*
X170942000Y-119126000D02*
X170942000Y-119126000D01*
%TO.N,A0*%
X200660000Y-87376000D02*
X200660000Y-89408000D01*
X200660000Y-89408000D02*
X200660000Y-89662000D01*
X200660000Y-89662000D02*
X200660000Y-89662000D01*
X176530000Y-117856000D02*
X173736000Y-117856000D01*
X173736000Y-117856000D02*
X171958000Y-119634000D01*
X171958000Y-119634000D02*
X171958000Y-119634000D01*
%TO.N,S1*%
X154940000Y-78232000D02*
X154940000Y-78994000D01*
X154940000Y-78994000D02*
X156718000Y-80772000D01*
X156718000Y-80772000D02*
X156718000Y-80772000D01*
X187452000Y-108458000D02*
X186436000Y-108458000D01*
X186436000Y-108458000D02*
X178816000Y-100838000D01*
X178816000Y-100838000D02*
X178816000Y-100838000D01*
X169672000Y-94742000D02*
X168402000Y-94742000D01*
X168402000Y-94742000D02*
X166370000Y-92710000D01*
X166370000Y-92710000D02*
X166370000Y-92710000D01*
X163805000Y-92710000D02*
X163090000Y-91995000D01*
X166370000Y-92710000D02*
X163805000Y-92710000D01*
%TO.N,B*%
X181864000Y-113792000D02*
X180594000Y-113792000D01*
X180594000Y-113792000D02*
X177292000Y-110490000D01*
X177292000Y-110490000D02*
X177292000Y-110490000D01*
X153177406Y-103826328D02*
X151713078Y-102362000D01*
X153924000Y-103826328D02*
X153177406Y-103826328D01*
X151713078Y-102362000D02*
X151130000Y-102362000D01*
X151130000Y-102362000D02*
X151130000Y-102362000D01*
%TO.N,A*%
X183134000Y-116840000D02*
X183134000Y-116078000D01*
X183134000Y-116078000D02*
X184404000Y-114808000D01*
X184404000Y-114808000D02*
X184404000Y-114808000D01*
X183896000Y-111506000D02*
X173228000Y-100838000D01*
X173228000Y-100838000D02*
X173228000Y-100584000D01*
X173228000Y-100584000D02*
X173228000Y-100584000D01*
X169418000Y-97790000D02*
X164338000Y-97790000D01*
X153543000Y-86995000D02*
X148590000Y-86995000D01*
X164338000Y-97790000D02*
X153543000Y-86995000D01*
%TO.N,GNDs9*%
X163322000Y-114046000D02*
X169926000Y-114046000D01*
X169926000Y-114046000D02*
X170180000Y-114046000D01*
X170180000Y-114046000D02*
X170180000Y-114046000D01*
%TO.N,SDA*%
X166624000Y-75946000D02*
X173228000Y-75946000D01*
X173228000Y-75946000D02*
X173736000Y-75946000D01*
X173736000Y-75946000D02*
X173736000Y-75946000D01*
X173736000Y-75946000D02*
X176022000Y-75946000D01*
X176022000Y-75946000D02*
X176276000Y-75692000D01*
X192049400Y-75692000D02*
X195122800Y-72618600D01*
X176276000Y-75692000D02*
X192049400Y-75692000D01*
%TO.N,SCL*%
X180086000Y-77724000D02*
X179070000Y-77724000D01*
X179070000Y-77724000D02*
X177292000Y-79502000D01*
X177292000Y-79502000D02*
X177292000Y-79502000D01*
%TO.N,Net-(Displej1-Pad11)*%
X164084000Y-113284000D02*
X166878000Y-113284000D01*
X166878000Y-113284000D02*
X170942000Y-109220000D01*
X180848000Y-81280000D02*
X178816000Y-81280000D01*
X178816000Y-81280000D02*
X178562000Y-81534000D01*
X178562000Y-81534000D02*
X178562000Y-81534000D01*
X178308000Y-92202000D02*
X178308000Y-93218000D01*
X178308000Y-93218000D02*
X177546000Y-93980000D01*
X177546000Y-93980000D02*
X177546000Y-93980000D01*
X175768000Y-99568000D02*
X175768000Y-100330000D01*
X175768000Y-100330000D02*
X175006000Y-101092000D01*
X175006000Y-101092000D02*
X175006000Y-101092000D01*
X173482000Y-102108000D02*
X173482000Y-107442000D01*
X173482000Y-107442000D02*
X172720000Y-108204000D01*
X172720000Y-108204000D02*
X172720000Y-108204000D01*
X170942000Y-109220000D02*
X170942000Y-109220000D01*
%TO.N,Net-(Displej1-Pad10)*%
X161036000Y-116078000D02*
X161036000Y-110236000D01*
X161036000Y-110236000D02*
X164084000Y-107188000D01*
X164084000Y-107188000D02*
X170688000Y-107188000D01*
X170688000Y-107188000D02*
X170688000Y-107188000D01*
X187198000Y-96266000D02*
X187198000Y-93980000D01*
X187198000Y-89154000D02*
X185674000Y-87630000D01*
X185674000Y-87630000D02*
X185420000Y-87630000D01*
X185420000Y-87630000D02*
X185420000Y-87630000D01*
X187198000Y-89154000D02*
X187960000Y-89916000D01*
X187960000Y-93218000D02*
X187198000Y-93980000D01*
X187960000Y-89916000D02*
X187960000Y-93218000D01*
%TO.N,Net-(Displej1-Pad8)*%
X151384000Y-108712000D02*
X151384000Y-111760000D01*
X151384000Y-111760000D02*
X151384000Y-112268000D01*
X151384000Y-112268000D02*
X151384000Y-112268000D01*
%TO.N,Net-(Displej1-Pad7)*%
X153416000Y-114554000D02*
X154432000Y-114554000D01*
X154432000Y-114554000D02*
X157226000Y-111760000D01*
X157226000Y-111760000D02*
X157226000Y-110744000D01*
X157226000Y-110744000D02*
X165862000Y-102108000D01*
X165862000Y-102108000D02*
X167386000Y-102108000D01*
X167386000Y-102108000D02*
X170688000Y-98806000D01*
X170688000Y-98806000D02*
X170688000Y-94579098D01*
X170688000Y-94579098D02*
X170688000Y-93472000D01*
X170688000Y-93472000D02*
X171958000Y-92202000D01*
X171958000Y-92202000D02*
X176022000Y-92202000D01*
X176022000Y-92202000D02*
X176022000Y-92202000D01*
%TO.N,Net-(Displej1-Pad5)*%
X155956000Y-100838000D02*
X154178000Y-102616000D01*
X154178000Y-102616000D02*
X152908000Y-102616000D01*
X152908000Y-102616000D02*
X151892000Y-101600000D01*
X151892000Y-101600000D02*
X136144000Y-101600000D01*
X136144000Y-101600000D02*
X135128000Y-100584000D01*
X135128000Y-100584000D02*
X135128000Y-96012000D01*
X135128000Y-96012000D02*
X135128000Y-96012000D01*
%TO.N,Net-(Displej1-Pad4)*%
X166370000Y-103124000D02*
X169926000Y-103124000D01*
X169926000Y-103124000D02*
X169926000Y-103124000D01*
%TO.N,Net-(Displej1-Pad3)*%
X149606000Y-97536000D02*
X147574000Y-97536000D01*
X147574000Y-97536000D02*
X146304000Y-96266000D01*
X146304000Y-96266000D02*
X144018000Y-96266000D01*
X144018000Y-96266000D02*
X144018000Y-96266000D01*
%TO.N,Net-(Displej1-Pad2)*%
X180340000Y-96012000D02*
X176276000Y-96012000D01*
X176276000Y-96012000D02*
X174244000Y-98044000D01*
X174244000Y-98044000D02*
X172974000Y-99314000D01*
X172974000Y-99314000D02*
X172974000Y-99314000D01*
X169164000Y-96266000D02*
X164592000Y-96266000D01*
X164592000Y-96266000D02*
X164338000Y-96520000D01*
X164338000Y-96520000D02*
X164338000Y-96520000D01*
D20*
X186182000Y-91694000D02*
X183134000Y-91694000D01*
X183134000Y-91694000D02*
X182880000Y-91440000D01*
X182880000Y-91440000D02*
X182880000Y-91186000D01*
X182880000Y-91186000D02*
X182880000Y-91186000D01*
D18*
%TO.N,Net-(Displej1-Pad1)*%
X167132000Y-91186000D02*
X181356000Y-91186000D01*
X181356000Y-91186000D02*
X182118000Y-90424000D01*
X182118000Y-90424000D02*
X182118000Y-90424000D01*
%TD*%
%TO.N,GND*%
X198374001Y-71943632D02*
X198374000Y-76670577D01*
X198370314Y-76708000D01*
X198374000Y-76745423D01*
X198374000Y-76745425D01*
X198385026Y-76857377D01*
X198428598Y-77001014D01*
X198461535Y-77062635D01*
X198499355Y-77133392D01*
X198535130Y-77176983D01*
X198594578Y-77249422D01*
X198623654Y-77273284D01*
X200152001Y-78801631D01*
X200152000Y-85852507D01*
X199131649Y-86872859D01*
X199102579Y-86896716D01*
X199078722Y-86925786D01*
X199078721Y-86925787D01*
X199007355Y-87012746D01*
X198936599Y-87145123D01*
X198893027Y-87288760D01*
X198878314Y-87438138D01*
X198882001Y-87475571D01*
X198882000Y-89598496D01*
X198850224Y-89675211D01*
X198818500Y-89834695D01*
X198818500Y-89997305D01*
X198850224Y-90156789D01*
X198912452Y-90307021D01*
X199002792Y-90442225D01*
X199117775Y-90557208D01*
X199252979Y-90647548D01*
X199403211Y-90709776D01*
X199562695Y-90741500D01*
X199725305Y-90741500D01*
X199884789Y-90709776D01*
X200035021Y-90647548D01*
X200170225Y-90557208D01*
X200285208Y-90442225D01*
X200307164Y-90409365D01*
X200419211Y-90455776D01*
X200578695Y-90487500D01*
X200741305Y-90487500D01*
X200900789Y-90455776D01*
X201051021Y-90393548D01*
X201186225Y-90303208D01*
X201301208Y-90188225D01*
X201391548Y-90053021D01*
X201453776Y-89902789D01*
X201485500Y-89743305D01*
X201485500Y-89580695D01*
X201453776Y-89421211D01*
X201422000Y-89344497D01*
X201422000Y-87693503D01*
X201453776Y-87616789D01*
X201485500Y-87457305D01*
X201485500Y-87294695D01*
X201453776Y-87135211D01*
X201391548Y-86984979D01*
X201304727Y-86855042D01*
X201426353Y-86733416D01*
X201455422Y-86709560D01*
X201550645Y-86593530D01*
X201621402Y-86461153D01*
X201664974Y-86317516D01*
X201676000Y-86205564D01*
X201676000Y-86205562D01*
X201679686Y-86168139D01*
X201676000Y-86130716D01*
X201676000Y-78523423D01*
X201679686Y-78486000D01*
X201676000Y-78448574D01*
X201664974Y-78336622D01*
X201621402Y-78192985D01*
X201575252Y-78106644D01*
X201550645Y-78060607D01*
X201486422Y-77982352D01*
X201455422Y-77944578D01*
X201426346Y-77920716D01*
X199898000Y-76392370D01*
X199898000Y-72741577D01*
X202403501Y-75247080D01*
X202403500Y-107752921D01*
X199598934Y-110557489D01*
X199576171Y-110576170D01*
X199557492Y-110598931D01*
X199501630Y-110666999D01*
X199446240Y-110770626D01*
X199412132Y-110883066D01*
X199400614Y-111000000D01*
X199403501Y-111029310D01*
X199403501Y-116463467D01*
X199403500Y-121501630D01*
X199403500Y-121752922D01*
X197752923Y-123403500D01*
X134596500Y-123403500D01*
X134596500Y-108630695D01*
X150558500Y-108630695D01*
X150558500Y-108793305D01*
X150590224Y-108952789D01*
X150622000Y-109029503D01*
X150622001Y-111722565D01*
X150622000Y-111722575D01*
X150622000Y-111950497D01*
X150590224Y-112027211D01*
X150558500Y-112186695D01*
X150558500Y-112349305D01*
X150590224Y-112508789D01*
X150652452Y-112659021D01*
X150742792Y-112794225D01*
X150857775Y-112909208D01*
X150992979Y-112999548D01*
X151143211Y-113061776D01*
X151302695Y-113093500D01*
X151465305Y-113093500D01*
X151624789Y-113061776D01*
X151775021Y-112999548D01*
X151910225Y-112909208D01*
X152025208Y-112794225D01*
X152115548Y-112659021D01*
X152177776Y-112508789D01*
X152209500Y-112349305D01*
X152209500Y-112186695D01*
X152177776Y-112027211D01*
X152146000Y-111950497D01*
X152146000Y-109029503D01*
X152177776Y-108952789D01*
X152209500Y-108793305D01*
X152209500Y-108630695D01*
X152177776Y-108471211D01*
X152115548Y-108320979D01*
X152025208Y-108185775D01*
X151910225Y-108070792D01*
X151775021Y-107980452D01*
X151624789Y-107918224D01*
X151465305Y-107886500D01*
X151302695Y-107886500D01*
X151143211Y-107918224D01*
X150992979Y-107980452D01*
X150857775Y-108070792D01*
X150742792Y-108185775D01*
X150652452Y-108320979D01*
X150590224Y-108471211D01*
X150558500Y-108630695D01*
X134596500Y-108630695D01*
X134596500Y-101133565D01*
X134615654Y-101149284D01*
X135578721Y-102112351D01*
X135602578Y-102141422D01*
X135631648Y-102165279D01*
X135718607Y-102236645D01*
X135789364Y-102274465D01*
X135850985Y-102307402D01*
X135994622Y-102350974D01*
X136106574Y-102362000D01*
X136106577Y-102362000D01*
X136144000Y-102365686D01*
X136181423Y-102362000D01*
X150304500Y-102362000D01*
X150304500Y-102443305D01*
X150336224Y-102602789D01*
X150398452Y-102753021D01*
X150402252Y-102758709D01*
X150390145Y-102770816D01*
X150364017Y-102809920D01*
X150334194Y-102846259D01*
X150312035Y-102887715D01*
X150285905Y-102926822D01*
X150267905Y-102970277D01*
X150245748Y-103011731D01*
X150232103Y-103056712D01*
X150214104Y-103100166D01*
X150204929Y-103146293D01*
X150191283Y-103191277D01*
X150186675Y-103238060D01*
X150177500Y-103284187D01*
X150177500Y-103331215D01*
X150172892Y-103378000D01*
X150177500Y-103424785D01*
X150177500Y-103471813D01*
X150186675Y-103517940D01*
X150191283Y-103564723D01*
X150204929Y-103609707D01*
X150214104Y-103655834D01*
X150232103Y-103699288D01*
X150245748Y-103744269D01*
X150267905Y-103785723D01*
X150285905Y-103829178D01*
X150312035Y-103868285D01*
X150334194Y-103909741D01*
X150364017Y-103946080D01*
X150390145Y-103985184D01*
X150423397Y-104018436D01*
X150453222Y-104054778D01*
X150489564Y-104084603D01*
X150522816Y-104117855D01*
X150561920Y-104143983D01*
X150598259Y-104173806D01*
X150639715Y-104195965D01*
X150678822Y-104222095D01*
X150722277Y-104240095D01*
X150763731Y-104262252D01*
X150808712Y-104275897D01*
X150852166Y-104293896D01*
X150898293Y-104303071D01*
X150943277Y-104316717D01*
X150990060Y-104321325D01*
X151036187Y-104330500D01*
X151243462Y-104330500D01*
X152930145Y-106017184D01*
X152963397Y-106050436D01*
X152993222Y-106086778D01*
X153029562Y-106116601D01*
X153062816Y-106149855D01*
X153101920Y-106175983D01*
X153138259Y-106205806D01*
X153179715Y-106227965D01*
X153218822Y-106254095D01*
X153262277Y-106272095D01*
X153303731Y-106294252D01*
X153348712Y-106307897D01*
X153392166Y-106325896D01*
X153438293Y-106335071D01*
X153483277Y-106348717D01*
X153530060Y-106353325D01*
X153576187Y-106362500D01*
X153623215Y-106362500D01*
X153670000Y-106367108D01*
X153716785Y-106362500D01*
X153763813Y-106362500D01*
X153809940Y-106353325D01*
X153856723Y-106348717D01*
X153901707Y-106335071D01*
X153947834Y-106325896D01*
X153991288Y-106307897D01*
X154036269Y-106294252D01*
X154077723Y-106272095D01*
X154121178Y-106254095D01*
X154160285Y-106227965D01*
X154201741Y-106205806D01*
X154238080Y-106175983D01*
X154277184Y-106149855D01*
X154310438Y-106116601D01*
X154346778Y-106086778D01*
X154376603Y-106050436D01*
X154409855Y-106017184D01*
X154435983Y-105978080D01*
X154465806Y-105941741D01*
X154487965Y-105900285D01*
X154514095Y-105861178D01*
X154532095Y-105817723D01*
X154554252Y-105776269D01*
X154567897Y-105731288D01*
X154585896Y-105687834D01*
X154595071Y-105641707D01*
X154608717Y-105596723D01*
X154613325Y-105549940D01*
X154622500Y-105503813D01*
X154622500Y-105456785D01*
X154627108Y-105410000D01*
X154622500Y-105363215D01*
X154622500Y-105316187D01*
X154613325Y-105270060D01*
X154608717Y-105223277D01*
X154595071Y-105178293D01*
X154585896Y-105132166D01*
X154567897Y-105088712D01*
X154554252Y-105043731D01*
X154532095Y-105002277D01*
X154514095Y-104958822D01*
X154487965Y-104919715D01*
X154465806Y-104878259D01*
X154435983Y-104841920D01*
X154409855Y-104802816D01*
X154376601Y-104769562D01*
X154346778Y-104733222D01*
X154310436Y-104703397D01*
X154208880Y-104601841D01*
X154315021Y-104557876D01*
X154450225Y-104467536D01*
X154565208Y-104352553D01*
X154655548Y-104217349D01*
X154717776Y-104067117D01*
X154749500Y-103907633D01*
X154749500Y-103745023D01*
X154717776Y-103585539D01*
X154655548Y-103435307D01*
X154565208Y-103300103D01*
X154547581Y-103282476D01*
X154603392Y-103252645D01*
X154719422Y-103157422D01*
X154743284Y-103128346D01*
X155730997Y-102140633D01*
X155825844Y-102159500D01*
X156086156Y-102159500D01*
X156341467Y-102108715D01*
X156581965Y-102009098D01*
X156798407Y-101864476D01*
X156982476Y-101680407D01*
X157127098Y-101463965D01*
X157226000Y-101225193D01*
X157324902Y-101463965D01*
X157469524Y-101680407D01*
X157653593Y-101864476D01*
X157870035Y-102009098D01*
X158110533Y-102108715D01*
X158365844Y-102159500D01*
X158626156Y-102159500D01*
X158881467Y-102108715D01*
X159121965Y-102009098D01*
X159338407Y-101864476D01*
X159522476Y-101680407D01*
X159667098Y-101463965D01*
X159766000Y-101225193D01*
X159864902Y-101463965D01*
X160009524Y-101680407D01*
X160193593Y-101864476D01*
X160410035Y-102009098D01*
X160650533Y-102108715D01*
X160905844Y-102159500D01*
X161166156Y-102159500D01*
X161421467Y-102108715D01*
X161661965Y-102009098D01*
X161878407Y-101864476D01*
X162062476Y-101680407D01*
X162207098Y-101463965D01*
X162306000Y-101225193D01*
X162404902Y-101463965D01*
X162549524Y-101680407D01*
X162733593Y-101864476D01*
X162950035Y-102009098D01*
X163190533Y-102108715D01*
X163445844Y-102159500D01*
X163706156Y-102159500D01*
X163961467Y-102108715D01*
X164201965Y-102009098D01*
X164418407Y-101864476D01*
X164602476Y-101680407D01*
X164747098Y-101463965D01*
X164791735Y-101356201D01*
X164791735Y-101588000D01*
X164802769Y-101700034D01*
X164835448Y-101807762D01*
X164888516Y-101907045D01*
X164932153Y-101960216D01*
X156713649Y-110178721D01*
X156684579Y-110202578D01*
X156660722Y-110231648D01*
X156660721Y-110231649D01*
X156589355Y-110318608D01*
X156518599Y-110450985D01*
X156475027Y-110594622D01*
X156460314Y-110744000D01*
X156464001Y-110781433D01*
X156464000Y-111444370D01*
X154116370Y-113792000D01*
X153733503Y-113792000D01*
X153656789Y-113760224D01*
X153497305Y-113728500D01*
X153334695Y-113728500D01*
X153175211Y-113760224D01*
X153024979Y-113822452D01*
X152889775Y-113912792D01*
X152774792Y-114027775D01*
X152684452Y-114162979D01*
X152622224Y-114313211D01*
X152590500Y-114472695D01*
X152590500Y-114635305D01*
X152622224Y-114794789D01*
X152684452Y-114945021D01*
X152699432Y-114967441D01*
X152573593Y-115051524D01*
X152389524Y-115235593D01*
X152244902Y-115452035D01*
X152145285Y-115692533D01*
X152094500Y-115947844D01*
X152094500Y-116208156D01*
X152145285Y-116463467D01*
X152244902Y-116703965D01*
X152389524Y-116920407D01*
X152573593Y-117104476D01*
X152790035Y-117249098D01*
X153030533Y-117348715D01*
X153285844Y-117399500D01*
X153546156Y-117399500D01*
X153801467Y-117348715D01*
X154041965Y-117249098D01*
X154258407Y-117104476D01*
X154442476Y-116920407D01*
X154587098Y-116703965D01*
X154686000Y-116465193D01*
X154784902Y-116703965D01*
X154929524Y-116920407D01*
X155113593Y-117104476D01*
X155330035Y-117249098D01*
X155570533Y-117348715D01*
X155825844Y-117399500D01*
X156086156Y-117399500D01*
X156341467Y-117348715D01*
X156581965Y-117249098D01*
X156798407Y-117104476D01*
X156982476Y-116920407D01*
X157127098Y-116703965D01*
X157226000Y-116465193D01*
X157324902Y-116703965D01*
X157469524Y-116920407D01*
X157653593Y-117104476D01*
X157870035Y-117249098D01*
X158110533Y-117348715D01*
X158365844Y-117399500D01*
X158626156Y-117399500D01*
X158881467Y-117348715D01*
X159121965Y-117249098D01*
X159338407Y-117104476D01*
X159522476Y-116920407D01*
X159667098Y-116703965D01*
X159766000Y-116465193D01*
X159864902Y-116703965D01*
X160009524Y-116920407D01*
X160193593Y-117104476D01*
X160410035Y-117249098D01*
X160650533Y-117348715D01*
X160905844Y-117399500D01*
X161166156Y-117399500D01*
X161421467Y-117348715D01*
X161661965Y-117249098D01*
X161878407Y-117104476D01*
X162062476Y-116920407D01*
X162207098Y-116703965D01*
X162306000Y-116465193D01*
X162404902Y-116703965D01*
X162549524Y-116920407D01*
X162733593Y-117104476D01*
X162950035Y-117249098D01*
X163190533Y-117348715D01*
X163445844Y-117399500D01*
X163706156Y-117399500D01*
X163961467Y-117348715D01*
X164201965Y-117249098D01*
X164418407Y-117104476D01*
X164602476Y-116920407D01*
X164747098Y-116703965D01*
X164846000Y-116465193D01*
X164944902Y-116703965D01*
X165089524Y-116920407D01*
X165273593Y-117104476D01*
X165490035Y-117249098D01*
X165730533Y-117348715D01*
X165985844Y-117399500D01*
X166246156Y-117399500D01*
X166501467Y-117348715D01*
X166741965Y-117249098D01*
X166958407Y-117104476D01*
X167142476Y-116920407D01*
X167287098Y-116703965D01*
X167386715Y-116463467D01*
X167437500Y-116208156D01*
X167437500Y-115947844D01*
X167386715Y-115692533D01*
X167287098Y-115452035D01*
X167142476Y-115235593D01*
X166958407Y-115051524D01*
X166741965Y-114906902D01*
X166503193Y-114808000D01*
X169571759Y-114808000D01*
X169719822Y-114906932D01*
X169896624Y-114980166D01*
X170084316Y-115017500D01*
X170162869Y-115017500D01*
X167324370Y-117856000D01*
X166198881Y-117856000D01*
X166161458Y-117852314D01*
X166124035Y-117856000D01*
X166124032Y-117856000D01*
X166012080Y-117867026D01*
X165868443Y-117910598D01*
X165736066Y-117981355D01*
X165706366Y-118005729D01*
X165271093Y-118005729D01*
X165233670Y-118002043D01*
X165196247Y-118005729D01*
X165196245Y-118005729D01*
X165084293Y-118016755D01*
X164940656Y-118060327D01*
X164808279Y-118131084D01*
X164692249Y-118226307D01*
X164668392Y-118255377D01*
X162557521Y-120366249D01*
X162486155Y-120453208D01*
X162415399Y-120585585D01*
X162371827Y-120729222D01*
X162357114Y-120878600D01*
X162371827Y-121027978D01*
X162415399Y-121171615D01*
X162486155Y-121303992D01*
X162581379Y-121420021D01*
X162697408Y-121515245D01*
X162829785Y-121586001D01*
X162973422Y-121629573D01*
X163122800Y-121644286D01*
X163272178Y-121629573D01*
X163415815Y-121586001D01*
X163548192Y-121515245D01*
X163635151Y-121443879D01*
X165549302Y-119529729D01*
X165974306Y-119529729D01*
X166011729Y-119533415D01*
X166049152Y-119529729D01*
X166049155Y-119529729D01*
X166161107Y-119518703D01*
X166304744Y-119475131D01*
X166437121Y-119404374D01*
X166466821Y-119380000D01*
X167602577Y-119380000D01*
X167640000Y-119383686D01*
X167677423Y-119380000D01*
X167677426Y-119380000D01*
X167789378Y-119368974D01*
X167933015Y-119325402D01*
X168065392Y-119254645D01*
X168181422Y-119159422D01*
X168205284Y-119130346D01*
X169615771Y-117719859D01*
X169640224Y-117842789D01*
X169702452Y-117993021D01*
X169792792Y-118128225D01*
X169907775Y-118243208D01*
X170042979Y-118333548D01*
X170193211Y-118395776D01*
X170352695Y-118427500D01*
X170501519Y-118427500D01*
X170415775Y-118484792D01*
X170300792Y-118599775D01*
X170210452Y-118734979D01*
X170148224Y-118885211D01*
X170116500Y-119044695D01*
X170116500Y-119207305D01*
X170148224Y-119366789D01*
X170210452Y-119517021D01*
X170300792Y-119652225D01*
X170415775Y-119767208D01*
X170550979Y-119857548D01*
X170701211Y-119919776D01*
X170860695Y-119951500D01*
X171023305Y-119951500D01*
X171182789Y-119919776D01*
X171182848Y-119919752D01*
X171226452Y-120025021D01*
X171316792Y-120160225D01*
X171431775Y-120275208D01*
X171566979Y-120365548D01*
X171717211Y-120427776D01*
X171876695Y-120459500D01*
X172039305Y-120459500D01*
X172198789Y-120427776D01*
X172349021Y-120365548D01*
X172484225Y-120275208D01*
X172599208Y-120160225D01*
X172689548Y-120025021D01*
X172721325Y-119948305D01*
X174051630Y-118618000D01*
X176212497Y-118618000D01*
X176289211Y-118649776D01*
X176448695Y-118681500D01*
X176611305Y-118681500D01*
X176770789Y-118649776D01*
X176921021Y-118587548D01*
X177056225Y-118497208D01*
X177171208Y-118382225D01*
X177261548Y-118247021D01*
X177323776Y-118096789D01*
X177355500Y-117937305D01*
X177355500Y-117774695D01*
X177323776Y-117615211D01*
X177261548Y-117464979D01*
X177171208Y-117329775D01*
X177056225Y-117214792D01*
X176921021Y-117124452D01*
X176770789Y-117062224D01*
X176611305Y-117030500D01*
X176448695Y-117030500D01*
X176289211Y-117062224D01*
X176212497Y-117094000D01*
X175913385Y-117094000D01*
X175991548Y-116977021D01*
X176053776Y-116826789D01*
X176067321Y-116758695D01*
X182308500Y-116758695D01*
X182308500Y-116921305D01*
X182340224Y-117080789D01*
X182402452Y-117231021D01*
X182492792Y-117366225D01*
X182607775Y-117481208D01*
X182742979Y-117571548D01*
X182893211Y-117633776D01*
X183052695Y-117665500D01*
X183215305Y-117665500D01*
X183374789Y-117633776D01*
X183525021Y-117571548D01*
X183660225Y-117481208D01*
X183775208Y-117366225D01*
X183865548Y-117231021D01*
X183927776Y-117080789D01*
X183959500Y-116921305D01*
X183959500Y-116758695D01*
X183927776Y-116599211D01*
X183896000Y-116522497D01*
X183896000Y-116393630D01*
X184718307Y-115571324D01*
X184795021Y-115539548D01*
X184930225Y-115449208D01*
X185045208Y-115334225D01*
X185135548Y-115199021D01*
X185197776Y-115048789D01*
X185229500Y-114889305D01*
X185229500Y-114726695D01*
X185197776Y-114567211D01*
X185135548Y-114416979D01*
X185045208Y-114281775D01*
X184930225Y-114166792D01*
X184795021Y-114076452D01*
X184644789Y-114014224D01*
X184485305Y-113982500D01*
X184322695Y-113982500D01*
X184163211Y-114014224D01*
X184012979Y-114076452D01*
X183877775Y-114166792D01*
X183762792Y-114281775D01*
X183672452Y-114416979D01*
X183640676Y-114493693D01*
X182621649Y-115512721D01*
X182592579Y-115536578D01*
X182568722Y-115565648D01*
X182568721Y-115565649D01*
X182497355Y-115652608D01*
X182434929Y-115769401D01*
X182426599Y-115784985D01*
X182383026Y-115928622D01*
X182372000Y-116040574D01*
X182368314Y-116078000D01*
X182372000Y-116115423D01*
X182372000Y-116522497D01*
X182340224Y-116599211D01*
X182308500Y-116758695D01*
X176067321Y-116758695D01*
X176085500Y-116667305D01*
X176085500Y-116504695D01*
X176053776Y-116345211D01*
X175991548Y-116194979D01*
X175901208Y-116059775D01*
X175786225Y-115944792D01*
X175651021Y-115854452D01*
X175500789Y-115792224D01*
X175341305Y-115760500D01*
X175178695Y-115760500D01*
X175019211Y-115792224D01*
X174942497Y-115824000D01*
X173773426Y-115824000D01*
X173885378Y-115812974D01*
X174029015Y-115769402D01*
X174161392Y-115698645D01*
X174277422Y-115603422D01*
X174301284Y-115574346D01*
X174559630Y-115316000D01*
X175958497Y-115316000D01*
X176035211Y-115347776D01*
X176194695Y-115379500D01*
X176357305Y-115379500D01*
X176516789Y-115347776D01*
X176667021Y-115285548D01*
X176802225Y-115195208D01*
X176917208Y-115080225D01*
X177007548Y-114945021D01*
X177069776Y-114794789D01*
X177101500Y-114635305D01*
X177101500Y-114472695D01*
X177069776Y-114313211D01*
X177007548Y-114162979D01*
X176917208Y-114027775D01*
X176802225Y-113912792D01*
X176667021Y-113822452D01*
X176516789Y-113760224D01*
X176357305Y-113728500D01*
X176194695Y-113728500D01*
X176035211Y-113760224D01*
X175958497Y-113792000D01*
X174281415Y-113792000D01*
X174243999Y-113788315D01*
X174206583Y-113792000D01*
X174206574Y-113792000D01*
X174094622Y-113803026D01*
X173950985Y-113846598D01*
X173818608Y-113917355D01*
X173702578Y-114012578D01*
X173678716Y-114041654D01*
X173420370Y-114300000D01*
X173011422Y-114300000D01*
X172973999Y-114296314D01*
X172936576Y-114300000D01*
X172936574Y-114300000D01*
X172824622Y-114311026D01*
X172719458Y-114342927D01*
X172720000Y-114337426D01*
X172720000Y-114337424D01*
X172723686Y-114300001D01*
X172720000Y-114262578D01*
X172720000Y-110408695D01*
X176466500Y-110408695D01*
X176466500Y-110571305D01*
X176498224Y-110730789D01*
X176560452Y-110881021D01*
X176650792Y-111016225D01*
X176765775Y-111131208D01*
X176900979Y-111221548D01*
X176977694Y-111253325D01*
X180028721Y-114304352D01*
X180052578Y-114333422D01*
X180168608Y-114428645D01*
X180300985Y-114499402D01*
X180444622Y-114542974D01*
X180556574Y-114554000D01*
X180556576Y-114554000D01*
X180593999Y-114557686D01*
X180631422Y-114554000D01*
X181546497Y-114554000D01*
X181623211Y-114585776D01*
X181782695Y-114617500D01*
X181945305Y-114617500D01*
X182104789Y-114585776D01*
X182255021Y-114523548D01*
X182390225Y-114433208D01*
X182505208Y-114318225D01*
X182595548Y-114183021D01*
X182657776Y-114032789D01*
X182689500Y-113873305D01*
X182689500Y-113710695D01*
X182657776Y-113551211D01*
X182595548Y-113400979D01*
X182505208Y-113265775D01*
X182390225Y-113150792D01*
X182255021Y-113060452D01*
X182104789Y-112998224D01*
X181945305Y-112966500D01*
X181782695Y-112966500D01*
X181623211Y-112998224D01*
X181546497Y-113030000D01*
X180909631Y-113030000D01*
X178055325Y-110175694D01*
X178023548Y-110098979D01*
X177933208Y-109963775D01*
X177818225Y-109848792D01*
X177683021Y-109758452D01*
X177532789Y-109696224D01*
X177373305Y-109664500D01*
X177210695Y-109664500D01*
X177051211Y-109696224D01*
X176900979Y-109758452D01*
X176765775Y-109848792D01*
X176650792Y-109963775D01*
X176560452Y-110098979D01*
X176498224Y-110249211D01*
X176466500Y-110408695D01*
X172720000Y-110408695D01*
X172720000Y-109029500D01*
X172801305Y-109029500D01*
X172960789Y-108997776D01*
X173111021Y-108935548D01*
X173246225Y-108845208D01*
X173361208Y-108730225D01*
X173451548Y-108595021D01*
X173483324Y-108518306D01*
X173994351Y-108007280D01*
X174023422Y-107983422D01*
X174054422Y-107945648D01*
X174118645Y-107867393D01*
X174170368Y-107770625D01*
X174189402Y-107735015D01*
X174232974Y-107591378D01*
X174244000Y-107479426D01*
X174244000Y-107479423D01*
X174247686Y-107442000D01*
X174244000Y-107404577D01*
X174244000Y-102931630D01*
X183132676Y-111820307D01*
X183164452Y-111897021D01*
X183254792Y-112032225D01*
X183369775Y-112147208D01*
X183504979Y-112237548D01*
X183655211Y-112299776D01*
X183814695Y-112331500D01*
X183977305Y-112331500D01*
X184136789Y-112299776D01*
X184287021Y-112237548D01*
X184422225Y-112147208D01*
X184537208Y-112032225D01*
X184627548Y-111897021D01*
X184689776Y-111746789D01*
X184721500Y-111587305D01*
X184721500Y-111424695D01*
X184689776Y-111265211D01*
X184627548Y-111114979D01*
X184537208Y-110979775D01*
X184422225Y-110864792D01*
X184287021Y-110774452D01*
X184210307Y-110742676D01*
X175322179Y-101854549D01*
X175397021Y-101823548D01*
X175532225Y-101733208D01*
X175647208Y-101618225D01*
X175737548Y-101483021D01*
X175769324Y-101406306D01*
X176280351Y-100895280D01*
X176309422Y-100871422D01*
X176347693Y-100824789D01*
X176403576Y-100756695D01*
X177990500Y-100756695D01*
X177990500Y-100919305D01*
X178022224Y-101078789D01*
X178084452Y-101229021D01*
X178174792Y-101364225D01*
X178289775Y-101479208D01*
X178424979Y-101569548D01*
X178501695Y-101601325D01*
X185870721Y-108970352D01*
X185894578Y-108999422D01*
X186010608Y-109094645D01*
X186142985Y-109165402D01*
X186286622Y-109208974D01*
X186398574Y-109220000D01*
X186398576Y-109220000D01*
X186435999Y-109223686D01*
X186473422Y-109220000D01*
X187134497Y-109220000D01*
X187211211Y-109251776D01*
X187370695Y-109283500D01*
X187533305Y-109283500D01*
X187692789Y-109251776D01*
X187843021Y-109189548D01*
X187978225Y-109099208D01*
X188093208Y-108984225D01*
X188183548Y-108849021D01*
X188245776Y-108698789D01*
X188277500Y-108539305D01*
X188277500Y-108376695D01*
X188245776Y-108217211D01*
X188183548Y-108066979D01*
X188093208Y-107931775D01*
X187978225Y-107816792D01*
X187843021Y-107726452D01*
X187692789Y-107664224D01*
X187533305Y-107632500D01*
X187370695Y-107632500D01*
X187211211Y-107664224D01*
X187134497Y-107696000D01*
X186751631Y-107696000D01*
X179579325Y-100523695D01*
X179547548Y-100446979D01*
X179457208Y-100311775D01*
X179342225Y-100196792D01*
X179207021Y-100106452D01*
X179056789Y-100044224D01*
X178897305Y-100012500D01*
X178734695Y-100012500D01*
X178575211Y-100044224D01*
X178424979Y-100106452D01*
X178289775Y-100196792D01*
X178174792Y-100311775D01*
X178084452Y-100446979D01*
X178022224Y-100597211D01*
X177990500Y-100756695D01*
X176403576Y-100756695D01*
X176404645Y-100755393D01*
X176452101Y-100666608D01*
X176475402Y-100623015D01*
X176518974Y-100479378D01*
X176530000Y-100367426D01*
X176530000Y-100367423D01*
X176533686Y-100330000D01*
X176530000Y-100292577D01*
X176530000Y-99885503D01*
X176561776Y-99808789D01*
X176593500Y-99649305D01*
X176593500Y-99486695D01*
X176561776Y-99327211D01*
X176499548Y-99176979D01*
X176409208Y-99041775D01*
X176294225Y-98926792D01*
X176159021Y-98836452D01*
X176008789Y-98774224D01*
X175849305Y-98742500D01*
X175686695Y-98742500D01*
X175527211Y-98774224D01*
X175376979Y-98836452D01*
X175241775Y-98926792D01*
X175126792Y-99041775D01*
X175036452Y-99176979D01*
X174974224Y-99327211D01*
X174942500Y-99486695D01*
X174942500Y-99649305D01*
X174974224Y-99808789D01*
X175006000Y-99885503D01*
X175006000Y-100014369D01*
X174691694Y-100328676D01*
X174614979Y-100360452D01*
X174479775Y-100450792D01*
X174364792Y-100565775D01*
X174274452Y-100700979D01*
X174243451Y-100775821D01*
X174053500Y-100585870D01*
X174053500Y-100502695D01*
X174021776Y-100343211D01*
X173959548Y-100192979D01*
X173869208Y-100057775D01*
X173754225Y-99942792D01*
X173619021Y-99852452D01*
X173607679Y-99847754D01*
X173615208Y-99840225D01*
X173705548Y-99705021D01*
X173737324Y-99628306D01*
X174640935Y-98724695D01*
X180530500Y-98724695D01*
X180530500Y-98887305D01*
X180562224Y-99046789D01*
X180624452Y-99197021D01*
X180714792Y-99332225D01*
X180829775Y-99447208D01*
X180964979Y-99537548D01*
X181041694Y-99569324D01*
X182822720Y-101350351D01*
X182846578Y-101379422D01*
X182875648Y-101403279D01*
X182962607Y-101474645D01*
X182978278Y-101483021D01*
X183094985Y-101545402D01*
X183238622Y-101588974D01*
X183350574Y-101600000D01*
X183350577Y-101600000D01*
X183388000Y-101603686D01*
X183425423Y-101600000D01*
X183832497Y-101600000D01*
X183909211Y-101631776D01*
X184068695Y-101663500D01*
X184231305Y-101663500D01*
X184390789Y-101631776D01*
X184541021Y-101569548D01*
X184676225Y-101479208D01*
X184791208Y-101364225D01*
X184881548Y-101229021D01*
X184943776Y-101078789D01*
X184975500Y-100919305D01*
X184975500Y-100756695D01*
X184943776Y-100597211D01*
X184881548Y-100446979D01*
X184791208Y-100311775D01*
X184676225Y-100196792D01*
X184541021Y-100106452D01*
X184390789Y-100044224D01*
X184231305Y-100012500D01*
X184068695Y-100012500D01*
X183909211Y-100044224D01*
X183832497Y-100076000D01*
X183703631Y-100076000D01*
X182119324Y-98491694D01*
X182087548Y-98414979D01*
X181997208Y-98279775D01*
X181882225Y-98164792D01*
X181747021Y-98074452D01*
X181596789Y-98012224D01*
X181437305Y-97980500D01*
X181274695Y-97980500D01*
X181115211Y-98012224D01*
X180964979Y-98074452D01*
X180829775Y-98164792D01*
X180714792Y-98279775D01*
X180624452Y-98414979D01*
X180562224Y-98565211D01*
X180530500Y-98724695D01*
X174640935Y-98724695D01*
X174809279Y-98556352D01*
X174809283Y-98556347D01*
X176591631Y-96774000D01*
X180022497Y-96774000D01*
X180099211Y-96805776D01*
X180258695Y-96837500D01*
X180421305Y-96837500D01*
X180580789Y-96805776D01*
X180731021Y-96743548D01*
X180866225Y-96653208D01*
X180981208Y-96538225D01*
X181071548Y-96403021D01*
X181133776Y-96252789D01*
X181165500Y-96093305D01*
X181165500Y-95930695D01*
X181133776Y-95771211D01*
X181071548Y-95620979D01*
X180981208Y-95485775D01*
X180866225Y-95370792D01*
X180731021Y-95280452D01*
X180580789Y-95218224D01*
X180421305Y-95186500D01*
X180258695Y-95186500D01*
X180099211Y-95218224D01*
X180022497Y-95250000D01*
X179895503Y-95250000D01*
X179969021Y-95219548D01*
X180104225Y-95129208D01*
X180219208Y-95014225D01*
X180309548Y-94879021D01*
X180371776Y-94728789D01*
X180403500Y-94569305D01*
X180403500Y-94406695D01*
X180371776Y-94247211D01*
X180340000Y-94170497D01*
X180340000Y-93027503D01*
X180371776Y-92950789D01*
X180403500Y-92791305D01*
X180403500Y-92628695D01*
X180371776Y-92469211D01*
X180309548Y-92318979D01*
X180219208Y-92183775D01*
X180104225Y-92068792D01*
X179969021Y-91978452D01*
X179895503Y-91948000D01*
X180530500Y-91948000D01*
X180530500Y-92029305D01*
X180562224Y-92188789D01*
X180594000Y-92265503D01*
X180594000Y-92672574D01*
X180590314Y-92710000D01*
X180594000Y-92747423D01*
X180594000Y-92747426D01*
X180605026Y-92859378D01*
X180648599Y-93003015D01*
X180719355Y-93135392D01*
X180787150Y-93218000D01*
X180814579Y-93251422D01*
X180843649Y-93275279D01*
X185870721Y-98302352D01*
X185894578Y-98331422D01*
X185923648Y-98355279D01*
X186010607Y-98426645D01*
X186081364Y-98464465D01*
X186142985Y-98497402D01*
X186286622Y-98540974D01*
X186398574Y-98552000D01*
X186398577Y-98552000D01*
X186436000Y-98555686D01*
X186473423Y-98552000D01*
X187896497Y-98552000D01*
X187973211Y-98583776D01*
X188132695Y-98615500D01*
X188295305Y-98615500D01*
X188454789Y-98583776D01*
X188605021Y-98521548D01*
X188740225Y-98431208D01*
X188855208Y-98316225D01*
X188945548Y-98181021D01*
X189007776Y-98030789D01*
X189039500Y-97871305D01*
X189039500Y-97708695D01*
X189007776Y-97549211D01*
X188945548Y-97398979D01*
X188855208Y-97263775D01*
X188740225Y-97148792D01*
X188605021Y-97058452D01*
X188454789Y-96996224D01*
X188295305Y-96964500D01*
X188132695Y-96964500D01*
X187973211Y-96996224D01*
X187896497Y-97028000D01*
X187515503Y-97028000D01*
X187589021Y-96997548D01*
X187724225Y-96907208D01*
X187839208Y-96792225D01*
X187929548Y-96657021D01*
X187991776Y-96506789D01*
X188023500Y-96347305D01*
X188023500Y-96184695D01*
X187991776Y-96025211D01*
X187960000Y-95948497D01*
X187960000Y-95821500D01*
X188041305Y-95821500D01*
X188200789Y-95789776D01*
X188351021Y-95727548D01*
X188486225Y-95637208D01*
X188601208Y-95522225D01*
X188691548Y-95387021D01*
X188723324Y-95310306D01*
X191150935Y-92882695D01*
X191960500Y-92882695D01*
X191960500Y-93045305D01*
X191992224Y-93204789D01*
X192054452Y-93355021D01*
X192144792Y-93490225D01*
X192259775Y-93605208D01*
X192394979Y-93695548D01*
X192471695Y-93727325D01*
X192474716Y-93730346D01*
X192498578Y-93759422D01*
X192614608Y-93854645D01*
X192746985Y-93925402D01*
X192890622Y-93968974D01*
X193002574Y-93980000D01*
X193002576Y-93980000D01*
X193039999Y-93983686D01*
X193077422Y-93980000D01*
X193994370Y-93980000D01*
X194252721Y-94238351D01*
X194276579Y-94267422D01*
X194305649Y-94291279D01*
X194392607Y-94362644D01*
X194524983Y-94433401D01*
X194524986Y-94433402D01*
X194668623Y-94476974D01*
X194818000Y-94491686D01*
X194967378Y-94476974D01*
X195111015Y-94433402D01*
X195243392Y-94362645D01*
X195359422Y-94267422D01*
X195454645Y-94151392D01*
X195525402Y-94019015D01*
X195568974Y-93875378D01*
X195580000Y-93763426D01*
X195580000Y-93763415D01*
X195583685Y-93725999D01*
X195580000Y-93688583D01*
X195580000Y-78801630D01*
X196346360Y-78035270D01*
X196375421Y-78011421D01*
X196399270Y-77982361D01*
X196399279Y-77982352D01*
X196470645Y-77895393D01*
X196541401Y-77763016D01*
X196584973Y-77619379D01*
X196599686Y-77470000D01*
X196584973Y-77320622D01*
X196578295Y-77298608D01*
X196541401Y-77176983D01*
X196470644Y-77044607D01*
X196399279Y-76957648D01*
X196399272Y-76957641D01*
X196375421Y-76928579D01*
X196346359Y-76904728D01*
X195073324Y-75631694D01*
X195041548Y-75554979D01*
X194951208Y-75419775D01*
X194836225Y-75304792D01*
X194701021Y-75214452D01*
X194550789Y-75152224D01*
X194391305Y-75120500D01*
X194228695Y-75120500D01*
X194069211Y-75152224D01*
X193918979Y-75214452D01*
X193783775Y-75304792D01*
X193668792Y-75419775D01*
X193578452Y-75554979D01*
X193516224Y-75705211D01*
X193484500Y-75864695D01*
X193484500Y-76027305D01*
X193516224Y-76186789D01*
X193578452Y-76337021D01*
X193668792Y-76472225D01*
X193783775Y-76587208D01*
X193918979Y-76677548D01*
X193995694Y-76709324D01*
X194756369Y-77470000D01*
X194305654Y-77920716D01*
X194276578Y-77944578D01*
X194225042Y-78007376D01*
X194181355Y-78060608D01*
X194169588Y-78082623D01*
X194110598Y-78192986D01*
X194067026Y-78336623D01*
X194056000Y-78448574D01*
X194052314Y-78486000D01*
X194056000Y-78523423D01*
X194056001Y-92456000D01*
X193439385Y-92456000D01*
X193427208Y-92437775D01*
X193312225Y-92322792D01*
X193177021Y-92232452D01*
X193026789Y-92170224D01*
X192867305Y-92138500D01*
X192704695Y-92138500D01*
X192545211Y-92170224D01*
X192394979Y-92232452D01*
X192259775Y-92322792D01*
X192144792Y-92437775D01*
X192054452Y-92572979D01*
X191992224Y-92723211D01*
X191960500Y-92882695D01*
X191150935Y-92882695D01*
X191520352Y-92513279D01*
X191549422Y-92489422D01*
X191582228Y-92449448D01*
X191644645Y-92373393D01*
X191692101Y-92284608D01*
X191715402Y-92241015D01*
X191758974Y-92097378D01*
X191770000Y-91985426D01*
X191770000Y-91985423D01*
X191773686Y-91948000D01*
X191770000Y-91910574D01*
X191770000Y-88963503D01*
X191801776Y-88886789D01*
X191833500Y-88727305D01*
X191833500Y-88564695D01*
X191801776Y-88405211D01*
X191739548Y-88254979D01*
X191649208Y-88119775D01*
X191534225Y-88004792D01*
X191399021Y-87914452D01*
X191248789Y-87852224D01*
X191089305Y-87820500D01*
X190926695Y-87820500D01*
X190767211Y-87852224D01*
X190616979Y-87914452D01*
X190481775Y-88004792D01*
X190366792Y-88119775D01*
X190276452Y-88254979D01*
X190214224Y-88405211D01*
X190182500Y-88564695D01*
X190182500Y-88727305D01*
X190214224Y-88886789D01*
X190246000Y-88963503D01*
X190246001Y-91632368D01*
X188722000Y-93156370D01*
X188722000Y-89953423D01*
X188725686Y-89916000D01*
X188722000Y-89878574D01*
X188710974Y-89766622D01*
X188667402Y-89622985D01*
X188596646Y-89490609D01*
X188596645Y-89490607D01*
X188525279Y-89403648D01*
X188501422Y-89374578D01*
X188472353Y-89350722D01*
X187763283Y-88641653D01*
X187763279Y-88641648D01*
X186239284Y-87117654D01*
X186215422Y-87088578D01*
X186099392Y-86993355D01*
X185967015Y-86922598D01*
X185823378Y-86879026D01*
X185745638Y-86871369D01*
X185660789Y-86836224D01*
X185501305Y-86804500D01*
X185338695Y-86804500D01*
X185179211Y-86836224D01*
X185028979Y-86898452D01*
X184893775Y-86988792D01*
X184778792Y-87103775D01*
X184688452Y-87238979D01*
X184626224Y-87389211D01*
X184594500Y-87548695D01*
X184594500Y-87711305D01*
X184626224Y-87870789D01*
X184688452Y-88021021D01*
X184778792Y-88156225D01*
X184893775Y-88271208D01*
X185028979Y-88361548D01*
X185179211Y-88423776D01*
X185338695Y-88455500D01*
X185421870Y-88455500D01*
X186685648Y-89719279D01*
X186685653Y-89719283D01*
X187198000Y-90231631D01*
X187198001Y-92902368D01*
X186685649Y-93414721D01*
X186656579Y-93438578D01*
X186632722Y-93467648D01*
X186632721Y-93467649D01*
X186561355Y-93554608D01*
X186490599Y-93686985D01*
X186447027Y-93830622D01*
X186432314Y-93980000D01*
X186436001Y-94017433D01*
X186436001Y-94934370D01*
X184151324Y-92649694D01*
X184119548Y-92572979D01*
X184029208Y-92437775D01*
X183981933Y-92390500D01*
X185738526Y-92390500D01*
X185790979Y-92425548D01*
X185941211Y-92487776D01*
X186100695Y-92519500D01*
X186263305Y-92519500D01*
X186422789Y-92487776D01*
X186573021Y-92425548D01*
X186708225Y-92335208D01*
X186823208Y-92220225D01*
X186913548Y-92085021D01*
X186975776Y-91934789D01*
X187007500Y-91775305D01*
X187007500Y-91612695D01*
X186975776Y-91453211D01*
X186913548Y-91302979D01*
X186823208Y-91167775D01*
X186708225Y-91052792D01*
X186573021Y-90962452D01*
X186422789Y-90900224D01*
X186263305Y-90868500D01*
X186100695Y-90868500D01*
X185941211Y-90900224D01*
X185790979Y-90962452D01*
X185738526Y-90997500D01*
X183684177Y-90997500D01*
X183673776Y-90945211D01*
X183611548Y-90794979D01*
X183521208Y-90659775D01*
X183406225Y-90544792D01*
X183271021Y-90454452D01*
X183120789Y-90392224D01*
X182961305Y-90360500D01*
X182943500Y-90360500D01*
X182943500Y-90342695D01*
X182911776Y-90183211D01*
X182849548Y-90032979D01*
X182759208Y-89897775D01*
X182644225Y-89782792D01*
X182509021Y-89692452D01*
X182358789Y-89630224D01*
X182199305Y-89598500D01*
X182036695Y-89598500D01*
X181877211Y-89630224D01*
X181726979Y-89692452D01*
X181591775Y-89782792D01*
X181476792Y-89897775D01*
X181386452Y-90032979D01*
X181354676Y-90109693D01*
X181040370Y-90424000D01*
X167449503Y-90424000D01*
X167372789Y-90392224D01*
X167213305Y-90360500D01*
X167050695Y-90360500D01*
X166891211Y-90392224D01*
X166740979Y-90454452D01*
X166605775Y-90544792D01*
X166490792Y-90659775D01*
X166400452Y-90794979D01*
X166338224Y-90945211D01*
X166306500Y-91104695D01*
X166306500Y-91267305D01*
X166338224Y-91426789D01*
X166400452Y-91577021D01*
X166490792Y-91712225D01*
X166605775Y-91827208D01*
X166740979Y-91917548D01*
X166891211Y-91979776D01*
X167050695Y-92011500D01*
X167213305Y-92011500D01*
X167372789Y-91979776D01*
X167449503Y-91948000D01*
X171134369Y-91948000D01*
X170175649Y-92906721D01*
X170146579Y-92930578D01*
X170122722Y-92959648D01*
X170122721Y-92959649D01*
X170051355Y-93046608D01*
X169980599Y-93178985D01*
X169937027Y-93322622D01*
X169922314Y-93472000D01*
X169926001Y-93509433D01*
X169926001Y-93953696D01*
X169912789Y-93948224D01*
X169753305Y-93916500D01*
X169590695Y-93916500D01*
X169431211Y-93948224D01*
X169354497Y-93980000D01*
X168717631Y-93980000D01*
X166935284Y-92197654D01*
X166911422Y-92168578D01*
X166795392Y-92073355D01*
X166663015Y-92002598D01*
X166519378Y-91959026D01*
X166407426Y-91948000D01*
X166407423Y-91948000D01*
X166370000Y-91944314D01*
X166332577Y-91948000D01*
X164661500Y-91948000D01*
X164661500Y-91840221D01*
X164601108Y-91536610D01*
X164482645Y-91250616D01*
X164310664Y-90993227D01*
X164091773Y-90774336D01*
X163834384Y-90602355D01*
X163548390Y-90483892D01*
X163244779Y-90423500D01*
X162935221Y-90423500D01*
X162631610Y-90483892D01*
X162345616Y-90602355D01*
X162088227Y-90774336D01*
X161869336Y-90993227D01*
X161697355Y-91250616D01*
X161578892Y-91536610D01*
X161518500Y-91840221D01*
X161518500Y-92149779D01*
X161578892Y-92453390D01*
X161697355Y-92739384D01*
X161869336Y-92996773D01*
X162088227Y-93215664D01*
X162345616Y-93387645D01*
X162631610Y-93506108D01*
X162935221Y-93566500D01*
X163244779Y-93566500D01*
X163548390Y-93506108D01*
X163657020Y-93461112D01*
X163767574Y-93472000D01*
X163767577Y-93472000D01*
X163805000Y-93475686D01*
X163842423Y-93472000D01*
X166054370Y-93472000D01*
X167836721Y-95254352D01*
X167860578Y-95283422D01*
X167889648Y-95307279D01*
X167976607Y-95378645D01*
X167992278Y-95387021D01*
X168108985Y-95449402D01*
X168252622Y-95492974D01*
X168364574Y-95504000D01*
X164629422Y-95504000D01*
X164591999Y-95500314D01*
X164554576Y-95504000D01*
X164554574Y-95504000D01*
X164442622Y-95515026D01*
X164298985Y-95558598D01*
X164166608Y-95629355D01*
X164050578Y-95724578D01*
X164026716Y-95753654D01*
X164023695Y-95756675D01*
X163946979Y-95788452D01*
X163811775Y-95878792D01*
X163696792Y-95993775D01*
X163665796Y-96040165D01*
X155572970Y-87947339D01*
X162151096Y-87947339D01*
X162246902Y-88171586D01*
X162492643Y-88313459D01*
X162761340Y-88404663D01*
X163042667Y-88441696D01*
X163325813Y-88423132D01*
X163599897Y-88349686D01*
X163854386Y-88224180D01*
X163933098Y-88171586D01*
X164028904Y-87947339D01*
X163090000Y-87008435D01*
X162151096Y-87947339D01*
X155572970Y-87947339D01*
X154573298Y-86947667D01*
X161643304Y-86947667D01*
X161661868Y-87230813D01*
X161735314Y-87504897D01*
X161860820Y-87759386D01*
X161913414Y-87838098D01*
X162137661Y-87933904D01*
X163076565Y-86995000D01*
X163103435Y-86995000D01*
X164042339Y-87933904D01*
X164266586Y-87838098D01*
X164408459Y-87592357D01*
X164496717Y-87332339D01*
X173051096Y-87332339D01*
X173146902Y-87556586D01*
X173392643Y-87698459D01*
X173661340Y-87789663D01*
X173942667Y-87826696D01*
X174225813Y-87808132D01*
X174499897Y-87734686D01*
X174754386Y-87609180D01*
X174833098Y-87556586D01*
X174928904Y-87332339D01*
X173990000Y-86393435D01*
X173051096Y-87332339D01*
X164496717Y-87332339D01*
X164499663Y-87323660D01*
X164536696Y-87042333D01*
X164518132Y-86759187D01*
X164444686Y-86485103D01*
X164369510Y-86332667D01*
X172543304Y-86332667D01*
X172561868Y-86615813D01*
X172635314Y-86889897D01*
X172760820Y-87144386D01*
X172813414Y-87223098D01*
X173037661Y-87318904D01*
X173976565Y-86380000D01*
X174003435Y-86380000D01*
X174942339Y-87318904D01*
X175166586Y-87223098D01*
X175308459Y-86977357D01*
X175399663Y-86708660D01*
X175436696Y-86427333D01*
X175426951Y-86278695D01*
X178752500Y-86278695D01*
X178752500Y-86441305D01*
X178784224Y-86600789D01*
X178846452Y-86751021D01*
X178936792Y-86886225D01*
X179051775Y-87001208D01*
X179186979Y-87091548D01*
X179322014Y-87147481D01*
X179337117Y-87165884D01*
X179363697Y-87187698D01*
X179766294Y-87590294D01*
X179788115Y-87616883D01*
X179894171Y-87703921D01*
X180015169Y-87768596D01*
X180084619Y-87789663D01*
X180146459Y-87808422D01*
X180159437Y-87809700D01*
X180248782Y-87818500D01*
X180248789Y-87818500D01*
X180282997Y-87821869D01*
X180317205Y-87818500D01*
X181129197Y-87818500D01*
X181274695Y-87847442D01*
X181437305Y-87847442D01*
X181596789Y-87815718D01*
X181747021Y-87753490D01*
X181882225Y-87663150D01*
X181997208Y-87548167D01*
X182087548Y-87412963D01*
X182135802Y-87296468D01*
X182147376Y-87294166D01*
X182324178Y-87220932D01*
X182483295Y-87114614D01*
X182618614Y-86979295D01*
X182724932Y-86820178D01*
X182798166Y-86643376D01*
X182835500Y-86455684D01*
X182835500Y-86264316D01*
X182798166Y-86076624D01*
X182724932Y-85899822D01*
X182618614Y-85740705D01*
X182483295Y-85605386D01*
X182324178Y-85499068D01*
X182147376Y-85425834D01*
X181959684Y-85388500D01*
X181768316Y-85388500D01*
X181580624Y-85425834D01*
X181403822Y-85499068D01*
X181255759Y-85598000D01*
X181202241Y-85598000D01*
X181054178Y-85499068D01*
X180877376Y-85425834D01*
X180689684Y-85388500D01*
X180498316Y-85388500D01*
X180310624Y-85425834D01*
X180133822Y-85499068D01*
X179974705Y-85605386D01*
X179956730Y-85623361D01*
X179818789Y-85566224D01*
X179659305Y-85534500D01*
X179496695Y-85534500D01*
X179337211Y-85566224D01*
X179186979Y-85628452D01*
X179051775Y-85718792D01*
X178936792Y-85833775D01*
X178846452Y-85968979D01*
X178784224Y-86119211D01*
X178752500Y-86278695D01*
X175426951Y-86278695D01*
X175418132Y-86144187D01*
X175344686Y-85870103D01*
X175219180Y-85615614D01*
X175166586Y-85536902D01*
X174942339Y-85441096D01*
X174003435Y-86380000D01*
X173976565Y-86380000D01*
X173037661Y-85441096D01*
X172813414Y-85536902D01*
X172671541Y-85782643D01*
X172580337Y-86051340D01*
X172543304Y-86332667D01*
X164369510Y-86332667D01*
X164319180Y-86230614D01*
X164266586Y-86151902D01*
X164042339Y-86056096D01*
X163103435Y-86995000D01*
X163076565Y-86995000D01*
X162137661Y-86056096D01*
X161913414Y-86151902D01*
X161771541Y-86397643D01*
X161680337Y-86666340D01*
X161643304Y-86947667D01*
X154573298Y-86947667D01*
X154108284Y-86482654D01*
X154084422Y-86453578D01*
X153968392Y-86358355D01*
X153836015Y-86287598D01*
X153692378Y-86244026D01*
X153580426Y-86233000D01*
X153580423Y-86233000D01*
X153543000Y-86229314D01*
X153505577Y-86233000D01*
X150164265Y-86233000D01*
X150164265Y-86042661D01*
X162151096Y-86042661D01*
X163090000Y-86981565D01*
X164028904Y-86042661D01*
X163933098Y-85818414D01*
X163687357Y-85676541D01*
X163418660Y-85585337D01*
X163137333Y-85548304D01*
X162854187Y-85566868D01*
X162580103Y-85640314D01*
X162325614Y-85765820D01*
X162246902Y-85818414D01*
X162151096Y-86042661D01*
X150164265Y-86042661D01*
X150164265Y-85995000D01*
X150153231Y-85882966D01*
X150120552Y-85775238D01*
X150067484Y-85675955D01*
X150003508Y-85598000D01*
X150076577Y-85598000D01*
X150114000Y-85601686D01*
X150151423Y-85598000D01*
X150151426Y-85598000D01*
X150263378Y-85586974D01*
X150407015Y-85543402D01*
X150539392Y-85472645D01*
X150655422Y-85377422D01*
X150679284Y-85348346D01*
X152969631Y-83058000D01*
X153632575Y-83058000D01*
X153670000Y-83061686D01*
X153744852Y-83054314D01*
X153819378Y-83046974D01*
X153915735Y-83017744D01*
X153915735Y-84895000D01*
X153926769Y-85007034D01*
X153959448Y-85114762D01*
X154012516Y-85214045D01*
X154083933Y-85301067D01*
X154170955Y-85372484D01*
X154270238Y-85425552D01*
X154377966Y-85458231D01*
X154490000Y-85469265D01*
X157690000Y-85469265D01*
X157802034Y-85458231D01*
X157909762Y-85425552D01*
X158009045Y-85372484D01*
X158096067Y-85301067D01*
X158167484Y-85214045D01*
X158220552Y-85114762D01*
X158253231Y-85007034D01*
X158264265Y-84895000D01*
X158264265Y-82895000D01*
X158253231Y-82782966D01*
X158220552Y-82675238D01*
X158167484Y-82575955D01*
X158096067Y-82488933D01*
X158009045Y-82417516D01*
X157909762Y-82364448D01*
X157802034Y-82331769D01*
X157690000Y-82320735D01*
X154490000Y-82320735D01*
X154432694Y-82326379D01*
X154435686Y-82296000D01*
X154432000Y-82258574D01*
X154432000Y-79563630D01*
X155749094Y-80880724D01*
X155783834Y-81055376D01*
X155857068Y-81232178D01*
X155963386Y-81391295D01*
X156098705Y-81526614D01*
X156257822Y-81632932D01*
X156434624Y-81706166D01*
X156622316Y-81743500D01*
X156813684Y-81743500D01*
X157001376Y-81706166D01*
X157034812Y-81692316D01*
X167938500Y-81692316D01*
X167938500Y-81883684D01*
X167975834Y-82071376D01*
X168049068Y-82248178D01*
X168148001Y-82396242D01*
X168148000Y-83973759D01*
X168049068Y-84121822D01*
X167975834Y-84298624D01*
X167938500Y-84486316D01*
X167938500Y-84677684D01*
X167975834Y-84865376D01*
X168049068Y-85042178D01*
X168155386Y-85201295D01*
X168290705Y-85336614D01*
X168449822Y-85442932D01*
X168626624Y-85516166D01*
X168814316Y-85553500D01*
X169005684Y-85553500D01*
X169193376Y-85516166D01*
X169370178Y-85442932D01*
X169393032Y-85427661D01*
X173051096Y-85427661D01*
X173990000Y-86366565D01*
X174928904Y-85427661D01*
X174833098Y-85203414D01*
X174587357Y-85061541D01*
X174318660Y-84970337D01*
X174037333Y-84933304D01*
X173754187Y-84951868D01*
X173480103Y-85025314D01*
X173225614Y-85150820D01*
X173146902Y-85203414D01*
X173051096Y-85427661D01*
X169393032Y-85427661D01*
X169529295Y-85336614D01*
X169664614Y-85201295D01*
X169770932Y-85042178D01*
X169844166Y-84865376D01*
X169881500Y-84677684D01*
X169881500Y-84486316D01*
X169844166Y-84298624D01*
X169770932Y-84121822D01*
X169672000Y-83973759D01*
X169672000Y-82396241D01*
X169770932Y-82248178D01*
X169844166Y-82071376D01*
X169881500Y-81883684D01*
X169881500Y-81692316D01*
X169844166Y-81504624D01*
X169822657Y-81452695D01*
X177736500Y-81452695D01*
X177736500Y-81615305D01*
X177768224Y-81774789D01*
X177830452Y-81925021D01*
X177920792Y-82060225D01*
X178035775Y-82175208D01*
X178170979Y-82265548D01*
X178321211Y-82327776D01*
X178480695Y-82359500D01*
X178643305Y-82359500D01*
X178802789Y-82327776D01*
X178953021Y-82265548D01*
X179088225Y-82175208D01*
X179203208Y-82060225D01*
X179215385Y-82042000D01*
X180530497Y-82042000D01*
X180607211Y-82073776D01*
X180766695Y-82105500D01*
X180929305Y-82105500D01*
X181088789Y-82073776D01*
X181239021Y-82011548D01*
X181374225Y-81921208D01*
X181489208Y-81806225D01*
X181579548Y-81671021D01*
X181641776Y-81520789D01*
X181673500Y-81361305D01*
X181673500Y-81198695D01*
X181641776Y-81039211D01*
X181579548Y-80888979D01*
X181489208Y-80753775D01*
X181374225Y-80638792D01*
X181239021Y-80548452D01*
X181088789Y-80486224D01*
X180929305Y-80454500D01*
X180766695Y-80454500D01*
X180607211Y-80486224D01*
X180530497Y-80518000D01*
X178853422Y-80518000D01*
X178815999Y-80514314D01*
X178778576Y-80518000D01*
X178778574Y-80518000D01*
X178666622Y-80529026D01*
X178522985Y-80572598D01*
X178390608Y-80643355D01*
X178274578Y-80738578D01*
X178250716Y-80767654D01*
X178247695Y-80770675D01*
X178170979Y-80802452D01*
X178035775Y-80892792D01*
X177920792Y-81007775D01*
X177830452Y-81142979D01*
X177768224Y-81293211D01*
X177736500Y-81452695D01*
X169822657Y-81452695D01*
X169770932Y-81327822D01*
X169664614Y-81168705D01*
X169529295Y-81033386D01*
X169370178Y-80927068D01*
X169193376Y-80853834D01*
X169005684Y-80816500D01*
X168814316Y-80816500D01*
X168626624Y-80853834D01*
X168449822Y-80927068D01*
X168290705Y-81033386D01*
X168155386Y-81168705D01*
X168049068Y-81327822D01*
X167975834Y-81504624D01*
X167938500Y-81692316D01*
X157034812Y-81692316D01*
X157178178Y-81632932D01*
X157337295Y-81526614D01*
X157472614Y-81391295D01*
X157578932Y-81232178D01*
X157652166Y-81055376D01*
X157689500Y-80867684D01*
X157689500Y-80676316D01*
X157652166Y-80488624D01*
X157578932Y-80311822D01*
X157472614Y-80152705D01*
X157337295Y-80017386D01*
X157178178Y-79911068D01*
X157001376Y-79837834D01*
X156826724Y-79803094D01*
X156429946Y-79406316D01*
X176320500Y-79406316D01*
X176320500Y-79597684D01*
X176357834Y-79785376D01*
X176431068Y-79962178D01*
X176537386Y-80121295D01*
X176672705Y-80256614D01*
X176831822Y-80362932D01*
X177008624Y-80436166D01*
X177196316Y-80473500D01*
X177387684Y-80473500D01*
X177575376Y-80436166D01*
X177752178Y-80362932D01*
X177911295Y-80256614D01*
X178046614Y-80121295D01*
X178152932Y-79962178D01*
X178226166Y-79785376D01*
X178260906Y-79610724D01*
X179385630Y-78486000D01*
X179477759Y-78486000D01*
X179625822Y-78584932D01*
X179802624Y-78658166D01*
X179990316Y-78695500D01*
X180181684Y-78695500D01*
X180369376Y-78658166D01*
X180546178Y-78584932D01*
X180705295Y-78478614D01*
X180840614Y-78343295D01*
X180946932Y-78184178D01*
X181020166Y-78007376D01*
X181057500Y-77819684D01*
X181057500Y-77628316D01*
X181020166Y-77440624D01*
X180946932Y-77263822D01*
X180840614Y-77104705D01*
X180705295Y-76969386D01*
X180546178Y-76863068D01*
X180369376Y-76789834D01*
X180181684Y-76752500D01*
X179990316Y-76752500D01*
X179802624Y-76789834D01*
X179625822Y-76863068D01*
X179477759Y-76962000D01*
X179107423Y-76962000D01*
X179070000Y-76958314D01*
X179032577Y-76962000D01*
X179032574Y-76962000D01*
X178920622Y-76973026D01*
X178776985Y-77016598D01*
X178724584Y-77044607D01*
X178644607Y-77087355D01*
X178602219Y-77122143D01*
X178528578Y-77182578D01*
X178504716Y-77211654D01*
X177183276Y-78533094D01*
X177008624Y-78567834D01*
X176831822Y-78641068D01*
X176672705Y-78747386D01*
X176537386Y-78882705D01*
X176431068Y-79041822D01*
X176357834Y-79218624D01*
X176320500Y-79406316D01*
X156429946Y-79406316D01*
X155766836Y-78743206D01*
X155800932Y-78692178D01*
X155874166Y-78515376D01*
X155911500Y-78327684D01*
X155911500Y-78136316D01*
X155874166Y-77948624D01*
X155800932Y-77771822D01*
X155694614Y-77612705D01*
X155559295Y-77477386D01*
X155400178Y-77371068D01*
X155223376Y-77297834D01*
X155035684Y-77260500D01*
X154844316Y-77260500D01*
X154656624Y-77297834D01*
X154479822Y-77371068D01*
X154432000Y-77403021D01*
X154432000Y-75850316D01*
X165652500Y-75850316D01*
X165652500Y-76041684D01*
X165689834Y-76229376D01*
X165763068Y-76406178D01*
X165869386Y-76565295D01*
X166004705Y-76700614D01*
X166163822Y-76806932D01*
X166340624Y-76880166D01*
X166528316Y-76917500D01*
X166719684Y-76917500D01*
X166907376Y-76880166D01*
X167084178Y-76806932D01*
X167232241Y-76708000D01*
X173127759Y-76708000D01*
X173275822Y-76806932D01*
X173452624Y-76880166D01*
X173640316Y-76917500D01*
X173831684Y-76917500D01*
X174019376Y-76880166D01*
X174196178Y-76806932D01*
X174344241Y-76708000D01*
X175984577Y-76708000D01*
X176022000Y-76711686D01*
X176059423Y-76708000D01*
X176059426Y-76708000D01*
X176171378Y-76696974D01*
X176315015Y-76653402D01*
X176447392Y-76582645D01*
X176563422Y-76487422D01*
X176587284Y-76458346D01*
X176591630Y-76454000D01*
X192011977Y-76454000D01*
X192049400Y-76457686D01*
X192086823Y-76454000D01*
X192086826Y-76454000D01*
X192198778Y-76442974D01*
X192342415Y-76399402D01*
X192474792Y-76328645D01*
X192590822Y-76233422D01*
X192614684Y-76204346D01*
X195688079Y-73130952D01*
X195759445Y-73043993D01*
X195830201Y-72911616D01*
X195873773Y-72767979D01*
X195888486Y-72618600D01*
X195873773Y-72469222D01*
X195830201Y-72325585D01*
X195759445Y-72193208D01*
X195664221Y-72077179D01*
X195548192Y-71981955D01*
X195415815Y-71911199D01*
X195272178Y-71867627D01*
X195122800Y-71852914D01*
X194973421Y-71867627D01*
X194829784Y-71911199D01*
X194697407Y-71981955D01*
X194610448Y-72053321D01*
X192539988Y-74123782D01*
X192501548Y-74030979D01*
X192411208Y-73895775D01*
X192296225Y-73780792D01*
X192161021Y-73690452D01*
X192010789Y-73628224D01*
X191851305Y-73596500D01*
X191688695Y-73596500D01*
X191529211Y-73628224D01*
X191452497Y-73660000D01*
X171259503Y-73660000D01*
X171182789Y-73628224D01*
X171023305Y-73596500D01*
X170860695Y-73596500D01*
X170701211Y-73628224D01*
X170550979Y-73690452D01*
X170415775Y-73780792D01*
X170300792Y-73895775D01*
X170210452Y-74030979D01*
X170148224Y-74181211D01*
X170116500Y-74340695D01*
X170116500Y-74503305D01*
X170148224Y-74662789D01*
X170210452Y-74813021D01*
X170300792Y-74948225D01*
X170415775Y-75063208D01*
X170550979Y-75153548D01*
X170624497Y-75184000D01*
X167232241Y-75184000D01*
X167084178Y-75085068D01*
X166907376Y-75011834D01*
X166719684Y-74974500D01*
X166528316Y-74974500D01*
X166340624Y-75011834D01*
X166163822Y-75085068D01*
X166004705Y-75191386D01*
X165869386Y-75326705D01*
X165763068Y-75485822D01*
X165689834Y-75662624D01*
X165652500Y-75850316D01*
X154432000Y-75850316D01*
X154432000Y-74229630D01*
X157033631Y-71628000D01*
X198058370Y-71628000D01*
X198374001Y-71943632D01*
%TA.AperFunction,Conductor*%
D21*
G36*
X198374001Y-71943632D02*
G01*
X198374000Y-76670577D01*
X198370314Y-76708000D01*
X198374000Y-76745423D01*
X198374000Y-76745425D01*
X198385026Y-76857377D01*
X198428598Y-77001014D01*
X198461535Y-77062635D01*
X198499355Y-77133392D01*
X198535130Y-77176983D01*
X198594578Y-77249422D01*
X198623654Y-77273284D01*
X200152001Y-78801631D01*
X200152000Y-85852507D01*
X199131649Y-86872859D01*
X199102579Y-86896716D01*
X199078722Y-86925786D01*
X199078721Y-86925787D01*
X199007355Y-87012746D01*
X198936599Y-87145123D01*
X198893027Y-87288760D01*
X198878314Y-87438138D01*
X198882001Y-87475571D01*
X198882000Y-89598496D01*
X198850224Y-89675211D01*
X198818500Y-89834695D01*
X198818500Y-89997305D01*
X198850224Y-90156789D01*
X198912452Y-90307021D01*
X199002792Y-90442225D01*
X199117775Y-90557208D01*
X199252979Y-90647548D01*
X199403211Y-90709776D01*
X199562695Y-90741500D01*
X199725305Y-90741500D01*
X199884789Y-90709776D01*
X200035021Y-90647548D01*
X200170225Y-90557208D01*
X200285208Y-90442225D01*
X200307164Y-90409365D01*
X200419211Y-90455776D01*
X200578695Y-90487500D01*
X200741305Y-90487500D01*
X200900789Y-90455776D01*
X201051021Y-90393548D01*
X201186225Y-90303208D01*
X201301208Y-90188225D01*
X201391548Y-90053021D01*
X201453776Y-89902789D01*
X201485500Y-89743305D01*
X201485500Y-89580695D01*
X201453776Y-89421211D01*
X201422000Y-89344497D01*
X201422000Y-87693503D01*
X201453776Y-87616789D01*
X201485500Y-87457305D01*
X201485500Y-87294695D01*
X201453776Y-87135211D01*
X201391548Y-86984979D01*
X201304727Y-86855042D01*
X201426353Y-86733416D01*
X201455422Y-86709560D01*
X201550645Y-86593530D01*
X201621402Y-86461153D01*
X201664974Y-86317516D01*
X201676000Y-86205564D01*
X201676000Y-86205562D01*
X201679686Y-86168139D01*
X201676000Y-86130716D01*
X201676000Y-78523423D01*
X201679686Y-78486000D01*
X201676000Y-78448574D01*
X201664974Y-78336622D01*
X201621402Y-78192985D01*
X201575252Y-78106644D01*
X201550645Y-78060607D01*
X201486422Y-77982352D01*
X201455422Y-77944578D01*
X201426346Y-77920716D01*
X199898000Y-76392370D01*
X199898000Y-72741577D01*
X202403501Y-75247080D01*
X202403500Y-107752921D01*
X199598934Y-110557489D01*
X199576171Y-110576170D01*
X199557492Y-110598931D01*
X199501630Y-110666999D01*
X199446240Y-110770626D01*
X199412132Y-110883066D01*
X199400614Y-111000000D01*
X199403501Y-111029310D01*
X199403501Y-116463467D01*
X199403500Y-121501630D01*
X199403500Y-121752922D01*
X197752923Y-123403500D01*
X134596500Y-123403500D01*
X134596500Y-108630695D01*
X150558500Y-108630695D01*
X150558500Y-108793305D01*
X150590224Y-108952789D01*
X150622000Y-109029503D01*
X150622001Y-111722565D01*
X150622000Y-111722575D01*
X150622000Y-111950497D01*
X150590224Y-112027211D01*
X150558500Y-112186695D01*
X150558500Y-112349305D01*
X150590224Y-112508789D01*
X150652452Y-112659021D01*
X150742792Y-112794225D01*
X150857775Y-112909208D01*
X150992979Y-112999548D01*
X151143211Y-113061776D01*
X151302695Y-113093500D01*
X151465305Y-113093500D01*
X151624789Y-113061776D01*
X151775021Y-112999548D01*
X151910225Y-112909208D01*
X152025208Y-112794225D01*
X152115548Y-112659021D01*
X152177776Y-112508789D01*
X152209500Y-112349305D01*
X152209500Y-112186695D01*
X152177776Y-112027211D01*
X152146000Y-111950497D01*
X152146000Y-109029503D01*
X152177776Y-108952789D01*
X152209500Y-108793305D01*
X152209500Y-108630695D01*
X152177776Y-108471211D01*
X152115548Y-108320979D01*
X152025208Y-108185775D01*
X151910225Y-108070792D01*
X151775021Y-107980452D01*
X151624789Y-107918224D01*
X151465305Y-107886500D01*
X151302695Y-107886500D01*
X151143211Y-107918224D01*
X150992979Y-107980452D01*
X150857775Y-108070792D01*
X150742792Y-108185775D01*
X150652452Y-108320979D01*
X150590224Y-108471211D01*
X150558500Y-108630695D01*
X134596500Y-108630695D01*
X134596500Y-101133565D01*
X134615654Y-101149284D01*
X135578721Y-102112351D01*
X135602578Y-102141422D01*
X135631648Y-102165279D01*
X135718607Y-102236645D01*
X135789364Y-102274465D01*
X135850985Y-102307402D01*
X135994622Y-102350974D01*
X136106574Y-102362000D01*
X136106577Y-102362000D01*
X136144000Y-102365686D01*
X136181423Y-102362000D01*
X150304500Y-102362000D01*
X150304500Y-102443305D01*
X150336224Y-102602789D01*
X150398452Y-102753021D01*
X150402252Y-102758709D01*
X150390145Y-102770816D01*
X150364017Y-102809920D01*
X150334194Y-102846259D01*
X150312035Y-102887715D01*
X150285905Y-102926822D01*
X150267905Y-102970277D01*
X150245748Y-103011731D01*
X150232103Y-103056712D01*
X150214104Y-103100166D01*
X150204929Y-103146293D01*
X150191283Y-103191277D01*
X150186675Y-103238060D01*
X150177500Y-103284187D01*
X150177500Y-103331215D01*
X150172892Y-103378000D01*
X150177500Y-103424785D01*
X150177500Y-103471813D01*
X150186675Y-103517940D01*
X150191283Y-103564723D01*
X150204929Y-103609707D01*
X150214104Y-103655834D01*
X150232103Y-103699288D01*
X150245748Y-103744269D01*
X150267905Y-103785723D01*
X150285905Y-103829178D01*
X150312035Y-103868285D01*
X150334194Y-103909741D01*
X150364017Y-103946080D01*
X150390145Y-103985184D01*
X150423397Y-104018436D01*
X150453222Y-104054778D01*
X150489564Y-104084603D01*
X150522816Y-104117855D01*
X150561920Y-104143983D01*
X150598259Y-104173806D01*
X150639715Y-104195965D01*
X150678822Y-104222095D01*
X150722277Y-104240095D01*
X150763731Y-104262252D01*
X150808712Y-104275897D01*
X150852166Y-104293896D01*
X150898293Y-104303071D01*
X150943277Y-104316717D01*
X150990060Y-104321325D01*
X151036187Y-104330500D01*
X151243462Y-104330500D01*
X152930145Y-106017184D01*
X152963397Y-106050436D01*
X152993222Y-106086778D01*
X153029562Y-106116601D01*
X153062816Y-106149855D01*
X153101920Y-106175983D01*
X153138259Y-106205806D01*
X153179715Y-106227965D01*
X153218822Y-106254095D01*
X153262277Y-106272095D01*
X153303731Y-106294252D01*
X153348712Y-106307897D01*
X153392166Y-106325896D01*
X153438293Y-106335071D01*
X153483277Y-106348717D01*
X153530060Y-106353325D01*
X153576187Y-106362500D01*
X153623215Y-106362500D01*
X153670000Y-106367108D01*
X153716785Y-106362500D01*
X153763813Y-106362500D01*
X153809940Y-106353325D01*
X153856723Y-106348717D01*
X153901707Y-106335071D01*
X153947834Y-106325896D01*
X153991288Y-106307897D01*
X154036269Y-106294252D01*
X154077723Y-106272095D01*
X154121178Y-106254095D01*
X154160285Y-106227965D01*
X154201741Y-106205806D01*
X154238080Y-106175983D01*
X154277184Y-106149855D01*
X154310438Y-106116601D01*
X154346778Y-106086778D01*
X154376603Y-106050436D01*
X154409855Y-106017184D01*
X154435983Y-105978080D01*
X154465806Y-105941741D01*
X154487965Y-105900285D01*
X154514095Y-105861178D01*
X154532095Y-105817723D01*
X154554252Y-105776269D01*
X154567897Y-105731288D01*
X154585896Y-105687834D01*
X154595071Y-105641707D01*
X154608717Y-105596723D01*
X154613325Y-105549940D01*
X154622500Y-105503813D01*
X154622500Y-105456785D01*
X154627108Y-105410000D01*
X154622500Y-105363215D01*
X154622500Y-105316187D01*
X154613325Y-105270060D01*
X154608717Y-105223277D01*
X154595071Y-105178293D01*
X154585896Y-105132166D01*
X154567897Y-105088712D01*
X154554252Y-105043731D01*
X154532095Y-105002277D01*
X154514095Y-104958822D01*
X154487965Y-104919715D01*
X154465806Y-104878259D01*
X154435983Y-104841920D01*
X154409855Y-104802816D01*
X154376601Y-104769562D01*
X154346778Y-104733222D01*
X154310436Y-104703397D01*
X154208880Y-104601841D01*
X154315021Y-104557876D01*
X154450225Y-104467536D01*
X154565208Y-104352553D01*
X154655548Y-104217349D01*
X154717776Y-104067117D01*
X154749500Y-103907633D01*
X154749500Y-103745023D01*
X154717776Y-103585539D01*
X154655548Y-103435307D01*
X154565208Y-103300103D01*
X154547581Y-103282476D01*
X154603392Y-103252645D01*
X154719422Y-103157422D01*
X154743284Y-103128346D01*
X155730997Y-102140633D01*
X155825844Y-102159500D01*
X156086156Y-102159500D01*
X156341467Y-102108715D01*
X156581965Y-102009098D01*
X156798407Y-101864476D01*
X156982476Y-101680407D01*
X157127098Y-101463965D01*
X157226000Y-101225193D01*
X157324902Y-101463965D01*
X157469524Y-101680407D01*
X157653593Y-101864476D01*
X157870035Y-102009098D01*
X158110533Y-102108715D01*
X158365844Y-102159500D01*
X158626156Y-102159500D01*
X158881467Y-102108715D01*
X159121965Y-102009098D01*
X159338407Y-101864476D01*
X159522476Y-101680407D01*
X159667098Y-101463965D01*
X159766000Y-101225193D01*
X159864902Y-101463965D01*
X160009524Y-101680407D01*
X160193593Y-101864476D01*
X160410035Y-102009098D01*
X160650533Y-102108715D01*
X160905844Y-102159500D01*
X161166156Y-102159500D01*
X161421467Y-102108715D01*
X161661965Y-102009098D01*
X161878407Y-101864476D01*
X162062476Y-101680407D01*
X162207098Y-101463965D01*
X162306000Y-101225193D01*
X162404902Y-101463965D01*
X162549524Y-101680407D01*
X162733593Y-101864476D01*
X162950035Y-102009098D01*
X163190533Y-102108715D01*
X163445844Y-102159500D01*
X163706156Y-102159500D01*
X163961467Y-102108715D01*
X164201965Y-102009098D01*
X164418407Y-101864476D01*
X164602476Y-101680407D01*
X164747098Y-101463965D01*
X164791735Y-101356201D01*
X164791735Y-101588000D01*
X164802769Y-101700034D01*
X164835448Y-101807762D01*
X164888516Y-101907045D01*
X164932153Y-101960216D01*
X156713649Y-110178721D01*
X156684579Y-110202578D01*
X156660722Y-110231648D01*
X156660721Y-110231649D01*
X156589355Y-110318608D01*
X156518599Y-110450985D01*
X156475027Y-110594622D01*
X156460314Y-110744000D01*
X156464001Y-110781433D01*
X156464000Y-111444370D01*
X154116370Y-113792000D01*
X153733503Y-113792000D01*
X153656789Y-113760224D01*
X153497305Y-113728500D01*
X153334695Y-113728500D01*
X153175211Y-113760224D01*
X153024979Y-113822452D01*
X152889775Y-113912792D01*
X152774792Y-114027775D01*
X152684452Y-114162979D01*
X152622224Y-114313211D01*
X152590500Y-114472695D01*
X152590500Y-114635305D01*
X152622224Y-114794789D01*
X152684452Y-114945021D01*
X152699432Y-114967441D01*
X152573593Y-115051524D01*
X152389524Y-115235593D01*
X152244902Y-115452035D01*
X152145285Y-115692533D01*
X152094500Y-115947844D01*
X152094500Y-116208156D01*
X152145285Y-116463467D01*
X152244902Y-116703965D01*
X152389524Y-116920407D01*
X152573593Y-117104476D01*
X152790035Y-117249098D01*
X153030533Y-117348715D01*
X153285844Y-117399500D01*
X153546156Y-117399500D01*
X153801467Y-117348715D01*
X154041965Y-117249098D01*
X154258407Y-117104476D01*
X154442476Y-116920407D01*
X154587098Y-116703965D01*
X154686000Y-116465193D01*
X154784902Y-116703965D01*
X154929524Y-116920407D01*
X155113593Y-117104476D01*
X155330035Y-117249098D01*
X155570533Y-117348715D01*
X155825844Y-117399500D01*
X156086156Y-117399500D01*
X156341467Y-117348715D01*
X156581965Y-117249098D01*
X156798407Y-117104476D01*
X156982476Y-116920407D01*
X157127098Y-116703965D01*
X157226000Y-116465193D01*
X157324902Y-116703965D01*
X157469524Y-116920407D01*
X157653593Y-117104476D01*
X157870035Y-117249098D01*
X158110533Y-117348715D01*
X158365844Y-117399500D01*
X158626156Y-117399500D01*
X158881467Y-117348715D01*
X159121965Y-117249098D01*
X159338407Y-117104476D01*
X159522476Y-116920407D01*
X159667098Y-116703965D01*
X159766000Y-116465193D01*
X159864902Y-116703965D01*
X160009524Y-116920407D01*
X160193593Y-117104476D01*
X160410035Y-117249098D01*
X160650533Y-117348715D01*
X160905844Y-117399500D01*
X161166156Y-117399500D01*
X161421467Y-117348715D01*
X161661965Y-117249098D01*
X161878407Y-117104476D01*
X162062476Y-116920407D01*
X162207098Y-116703965D01*
X162306000Y-116465193D01*
X162404902Y-116703965D01*
X162549524Y-116920407D01*
X162733593Y-117104476D01*
X162950035Y-117249098D01*
X163190533Y-117348715D01*
X163445844Y-117399500D01*
X163706156Y-117399500D01*
X163961467Y-117348715D01*
X164201965Y-117249098D01*
X164418407Y-117104476D01*
X164602476Y-116920407D01*
X164747098Y-116703965D01*
X164846000Y-116465193D01*
X164944902Y-116703965D01*
X165089524Y-116920407D01*
X165273593Y-117104476D01*
X165490035Y-117249098D01*
X165730533Y-117348715D01*
X165985844Y-117399500D01*
X166246156Y-117399500D01*
X166501467Y-117348715D01*
X166741965Y-117249098D01*
X166958407Y-117104476D01*
X167142476Y-116920407D01*
X167287098Y-116703965D01*
X167386715Y-116463467D01*
X167437500Y-116208156D01*
X167437500Y-115947844D01*
X167386715Y-115692533D01*
X167287098Y-115452035D01*
X167142476Y-115235593D01*
X166958407Y-115051524D01*
X166741965Y-114906902D01*
X166503193Y-114808000D01*
X169571759Y-114808000D01*
X169719822Y-114906932D01*
X169896624Y-114980166D01*
X170084316Y-115017500D01*
X170162869Y-115017500D01*
X167324370Y-117856000D01*
X166198881Y-117856000D01*
X166161458Y-117852314D01*
X166124035Y-117856000D01*
X166124032Y-117856000D01*
X166012080Y-117867026D01*
X165868443Y-117910598D01*
X165736066Y-117981355D01*
X165706366Y-118005729D01*
X165271093Y-118005729D01*
X165233670Y-118002043D01*
X165196247Y-118005729D01*
X165196245Y-118005729D01*
X165084293Y-118016755D01*
X164940656Y-118060327D01*
X164808279Y-118131084D01*
X164692249Y-118226307D01*
X164668392Y-118255377D01*
X162557521Y-120366249D01*
X162486155Y-120453208D01*
X162415399Y-120585585D01*
X162371827Y-120729222D01*
X162357114Y-120878600D01*
X162371827Y-121027978D01*
X162415399Y-121171615D01*
X162486155Y-121303992D01*
X162581379Y-121420021D01*
X162697408Y-121515245D01*
X162829785Y-121586001D01*
X162973422Y-121629573D01*
X163122800Y-121644286D01*
X163272178Y-121629573D01*
X163415815Y-121586001D01*
X163548192Y-121515245D01*
X163635151Y-121443879D01*
X165549302Y-119529729D01*
X165974306Y-119529729D01*
X166011729Y-119533415D01*
X166049152Y-119529729D01*
X166049155Y-119529729D01*
X166161107Y-119518703D01*
X166304744Y-119475131D01*
X166437121Y-119404374D01*
X166466821Y-119380000D01*
X167602577Y-119380000D01*
X167640000Y-119383686D01*
X167677423Y-119380000D01*
X167677426Y-119380000D01*
X167789378Y-119368974D01*
X167933015Y-119325402D01*
X168065392Y-119254645D01*
X168181422Y-119159422D01*
X168205284Y-119130346D01*
X169615771Y-117719859D01*
X169640224Y-117842789D01*
X169702452Y-117993021D01*
X169792792Y-118128225D01*
X169907775Y-118243208D01*
X170042979Y-118333548D01*
X170193211Y-118395776D01*
X170352695Y-118427500D01*
X170501519Y-118427500D01*
X170415775Y-118484792D01*
X170300792Y-118599775D01*
X170210452Y-118734979D01*
X170148224Y-118885211D01*
X170116500Y-119044695D01*
X170116500Y-119207305D01*
X170148224Y-119366789D01*
X170210452Y-119517021D01*
X170300792Y-119652225D01*
X170415775Y-119767208D01*
X170550979Y-119857548D01*
X170701211Y-119919776D01*
X170860695Y-119951500D01*
X171023305Y-119951500D01*
X171182789Y-119919776D01*
X171182848Y-119919752D01*
X171226452Y-120025021D01*
X171316792Y-120160225D01*
X171431775Y-120275208D01*
X171566979Y-120365548D01*
X171717211Y-120427776D01*
X171876695Y-120459500D01*
X172039305Y-120459500D01*
X172198789Y-120427776D01*
X172349021Y-120365548D01*
X172484225Y-120275208D01*
X172599208Y-120160225D01*
X172689548Y-120025021D01*
X172721325Y-119948305D01*
X174051630Y-118618000D01*
X176212497Y-118618000D01*
X176289211Y-118649776D01*
X176448695Y-118681500D01*
X176611305Y-118681500D01*
X176770789Y-118649776D01*
X176921021Y-118587548D01*
X177056225Y-118497208D01*
X177171208Y-118382225D01*
X177261548Y-118247021D01*
X177323776Y-118096789D01*
X177355500Y-117937305D01*
X177355500Y-117774695D01*
X177323776Y-117615211D01*
X177261548Y-117464979D01*
X177171208Y-117329775D01*
X177056225Y-117214792D01*
X176921021Y-117124452D01*
X176770789Y-117062224D01*
X176611305Y-117030500D01*
X176448695Y-117030500D01*
X176289211Y-117062224D01*
X176212497Y-117094000D01*
X175913385Y-117094000D01*
X175991548Y-116977021D01*
X176053776Y-116826789D01*
X176067321Y-116758695D01*
X182308500Y-116758695D01*
X182308500Y-116921305D01*
X182340224Y-117080789D01*
X182402452Y-117231021D01*
X182492792Y-117366225D01*
X182607775Y-117481208D01*
X182742979Y-117571548D01*
X182893211Y-117633776D01*
X183052695Y-117665500D01*
X183215305Y-117665500D01*
X183374789Y-117633776D01*
X183525021Y-117571548D01*
X183660225Y-117481208D01*
X183775208Y-117366225D01*
X183865548Y-117231021D01*
X183927776Y-117080789D01*
X183959500Y-116921305D01*
X183959500Y-116758695D01*
X183927776Y-116599211D01*
X183896000Y-116522497D01*
X183896000Y-116393630D01*
X184718307Y-115571324D01*
X184795021Y-115539548D01*
X184930225Y-115449208D01*
X185045208Y-115334225D01*
X185135548Y-115199021D01*
X185197776Y-115048789D01*
X185229500Y-114889305D01*
X185229500Y-114726695D01*
X185197776Y-114567211D01*
X185135548Y-114416979D01*
X185045208Y-114281775D01*
X184930225Y-114166792D01*
X184795021Y-114076452D01*
X184644789Y-114014224D01*
X184485305Y-113982500D01*
X184322695Y-113982500D01*
X184163211Y-114014224D01*
X184012979Y-114076452D01*
X183877775Y-114166792D01*
X183762792Y-114281775D01*
X183672452Y-114416979D01*
X183640676Y-114493693D01*
X182621649Y-115512721D01*
X182592579Y-115536578D01*
X182568722Y-115565648D01*
X182568721Y-115565649D01*
X182497355Y-115652608D01*
X182434929Y-115769401D01*
X182426599Y-115784985D01*
X182383026Y-115928622D01*
X182372000Y-116040574D01*
X182368314Y-116078000D01*
X182372000Y-116115423D01*
X182372000Y-116522497D01*
X182340224Y-116599211D01*
X182308500Y-116758695D01*
X176067321Y-116758695D01*
X176085500Y-116667305D01*
X176085500Y-116504695D01*
X176053776Y-116345211D01*
X175991548Y-116194979D01*
X175901208Y-116059775D01*
X175786225Y-115944792D01*
X175651021Y-115854452D01*
X175500789Y-115792224D01*
X175341305Y-115760500D01*
X175178695Y-115760500D01*
X175019211Y-115792224D01*
X174942497Y-115824000D01*
X173773426Y-115824000D01*
X173885378Y-115812974D01*
X174029015Y-115769402D01*
X174161392Y-115698645D01*
X174277422Y-115603422D01*
X174301284Y-115574346D01*
X174559630Y-115316000D01*
X175958497Y-115316000D01*
X176035211Y-115347776D01*
X176194695Y-115379500D01*
X176357305Y-115379500D01*
X176516789Y-115347776D01*
X176667021Y-115285548D01*
X176802225Y-115195208D01*
X176917208Y-115080225D01*
X177007548Y-114945021D01*
X177069776Y-114794789D01*
X177101500Y-114635305D01*
X177101500Y-114472695D01*
X177069776Y-114313211D01*
X177007548Y-114162979D01*
X176917208Y-114027775D01*
X176802225Y-113912792D01*
X176667021Y-113822452D01*
X176516789Y-113760224D01*
X176357305Y-113728500D01*
X176194695Y-113728500D01*
X176035211Y-113760224D01*
X175958497Y-113792000D01*
X174281415Y-113792000D01*
X174243999Y-113788315D01*
X174206583Y-113792000D01*
X174206574Y-113792000D01*
X174094622Y-113803026D01*
X173950985Y-113846598D01*
X173818608Y-113917355D01*
X173702578Y-114012578D01*
X173678716Y-114041654D01*
X173420370Y-114300000D01*
X173011422Y-114300000D01*
X172973999Y-114296314D01*
X172936576Y-114300000D01*
X172936574Y-114300000D01*
X172824622Y-114311026D01*
X172719458Y-114342927D01*
X172720000Y-114337426D01*
X172720000Y-114337424D01*
X172723686Y-114300001D01*
X172720000Y-114262578D01*
X172720000Y-110408695D01*
X176466500Y-110408695D01*
X176466500Y-110571305D01*
X176498224Y-110730789D01*
X176560452Y-110881021D01*
X176650792Y-111016225D01*
X176765775Y-111131208D01*
X176900979Y-111221548D01*
X176977694Y-111253325D01*
X180028721Y-114304352D01*
X180052578Y-114333422D01*
X180168608Y-114428645D01*
X180300985Y-114499402D01*
X180444622Y-114542974D01*
X180556574Y-114554000D01*
X180556576Y-114554000D01*
X180593999Y-114557686D01*
X180631422Y-114554000D01*
X181546497Y-114554000D01*
X181623211Y-114585776D01*
X181782695Y-114617500D01*
X181945305Y-114617500D01*
X182104789Y-114585776D01*
X182255021Y-114523548D01*
X182390225Y-114433208D01*
X182505208Y-114318225D01*
X182595548Y-114183021D01*
X182657776Y-114032789D01*
X182689500Y-113873305D01*
X182689500Y-113710695D01*
X182657776Y-113551211D01*
X182595548Y-113400979D01*
X182505208Y-113265775D01*
X182390225Y-113150792D01*
X182255021Y-113060452D01*
X182104789Y-112998224D01*
X181945305Y-112966500D01*
X181782695Y-112966500D01*
X181623211Y-112998224D01*
X181546497Y-113030000D01*
X180909631Y-113030000D01*
X178055325Y-110175694D01*
X178023548Y-110098979D01*
X177933208Y-109963775D01*
X177818225Y-109848792D01*
X177683021Y-109758452D01*
X177532789Y-109696224D01*
X177373305Y-109664500D01*
X177210695Y-109664500D01*
X177051211Y-109696224D01*
X176900979Y-109758452D01*
X176765775Y-109848792D01*
X176650792Y-109963775D01*
X176560452Y-110098979D01*
X176498224Y-110249211D01*
X176466500Y-110408695D01*
X172720000Y-110408695D01*
X172720000Y-109029500D01*
X172801305Y-109029500D01*
X172960789Y-108997776D01*
X173111021Y-108935548D01*
X173246225Y-108845208D01*
X173361208Y-108730225D01*
X173451548Y-108595021D01*
X173483324Y-108518306D01*
X173994351Y-108007280D01*
X174023422Y-107983422D01*
X174054422Y-107945648D01*
X174118645Y-107867393D01*
X174170368Y-107770625D01*
X174189402Y-107735015D01*
X174232974Y-107591378D01*
X174244000Y-107479426D01*
X174244000Y-107479423D01*
X174247686Y-107442000D01*
X174244000Y-107404577D01*
X174244000Y-102931630D01*
X183132676Y-111820307D01*
X183164452Y-111897021D01*
X183254792Y-112032225D01*
X183369775Y-112147208D01*
X183504979Y-112237548D01*
X183655211Y-112299776D01*
X183814695Y-112331500D01*
X183977305Y-112331500D01*
X184136789Y-112299776D01*
X184287021Y-112237548D01*
X184422225Y-112147208D01*
X184537208Y-112032225D01*
X184627548Y-111897021D01*
X184689776Y-111746789D01*
X184721500Y-111587305D01*
X184721500Y-111424695D01*
X184689776Y-111265211D01*
X184627548Y-111114979D01*
X184537208Y-110979775D01*
X184422225Y-110864792D01*
X184287021Y-110774452D01*
X184210307Y-110742676D01*
X175322179Y-101854549D01*
X175397021Y-101823548D01*
X175532225Y-101733208D01*
X175647208Y-101618225D01*
X175737548Y-101483021D01*
X175769324Y-101406306D01*
X176280351Y-100895280D01*
X176309422Y-100871422D01*
X176347693Y-100824789D01*
X176403576Y-100756695D01*
X177990500Y-100756695D01*
X177990500Y-100919305D01*
X178022224Y-101078789D01*
X178084452Y-101229021D01*
X178174792Y-101364225D01*
X178289775Y-101479208D01*
X178424979Y-101569548D01*
X178501695Y-101601325D01*
X185870721Y-108970352D01*
X185894578Y-108999422D01*
X186010608Y-109094645D01*
X186142985Y-109165402D01*
X186286622Y-109208974D01*
X186398574Y-109220000D01*
X186398576Y-109220000D01*
X186435999Y-109223686D01*
X186473422Y-109220000D01*
X187134497Y-109220000D01*
X187211211Y-109251776D01*
X187370695Y-109283500D01*
X187533305Y-109283500D01*
X187692789Y-109251776D01*
X187843021Y-109189548D01*
X187978225Y-109099208D01*
X188093208Y-108984225D01*
X188183548Y-108849021D01*
X188245776Y-108698789D01*
X188277500Y-108539305D01*
X188277500Y-108376695D01*
X188245776Y-108217211D01*
X188183548Y-108066979D01*
X188093208Y-107931775D01*
X187978225Y-107816792D01*
X187843021Y-107726452D01*
X187692789Y-107664224D01*
X187533305Y-107632500D01*
X187370695Y-107632500D01*
X187211211Y-107664224D01*
X187134497Y-107696000D01*
X186751631Y-107696000D01*
X179579325Y-100523695D01*
X179547548Y-100446979D01*
X179457208Y-100311775D01*
X179342225Y-100196792D01*
X179207021Y-100106452D01*
X179056789Y-100044224D01*
X178897305Y-100012500D01*
X178734695Y-100012500D01*
X178575211Y-100044224D01*
X178424979Y-100106452D01*
X178289775Y-100196792D01*
X178174792Y-100311775D01*
X178084452Y-100446979D01*
X178022224Y-100597211D01*
X177990500Y-100756695D01*
X176403576Y-100756695D01*
X176404645Y-100755393D01*
X176452101Y-100666608D01*
X176475402Y-100623015D01*
X176518974Y-100479378D01*
X176530000Y-100367426D01*
X176530000Y-100367423D01*
X176533686Y-100330000D01*
X176530000Y-100292577D01*
X176530000Y-99885503D01*
X176561776Y-99808789D01*
X176593500Y-99649305D01*
X176593500Y-99486695D01*
X176561776Y-99327211D01*
X176499548Y-99176979D01*
X176409208Y-99041775D01*
X176294225Y-98926792D01*
X176159021Y-98836452D01*
X176008789Y-98774224D01*
X175849305Y-98742500D01*
X175686695Y-98742500D01*
X175527211Y-98774224D01*
X175376979Y-98836452D01*
X175241775Y-98926792D01*
X175126792Y-99041775D01*
X175036452Y-99176979D01*
X174974224Y-99327211D01*
X174942500Y-99486695D01*
X174942500Y-99649305D01*
X174974224Y-99808789D01*
X175006000Y-99885503D01*
X175006000Y-100014369D01*
X174691694Y-100328676D01*
X174614979Y-100360452D01*
X174479775Y-100450792D01*
X174364792Y-100565775D01*
X174274452Y-100700979D01*
X174243451Y-100775821D01*
X174053500Y-100585870D01*
X174053500Y-100502695D01*
X174021776Y-100343211D01*
X173959548Y-100192979D01*
X173869208Y-100057775D01*
X173754225Y-99942792D01*
X173619021Y-99852452D01*
X173607679Y-99847754D01*
X173615208Y-99840225D01*
X173705548Y-99705021D01*
X173737324Y-99628306D01*
X174640935Y-98724695D01*
X180530500Y-98724695D01*
X180530500Y-98887305D01*
X180562224Y-99046789D01*
X180624452Y-99197021D01*
X180714792Y-99332225D01*
X180829775Y-99447208D01*
X180964979Y-99537548D01*
X181041694Y-99569324D01*
X182822720Y-101350351D01*
X182846578Y-101379422D01*
X182875648Y-101403279D01*
X182962607Y-101474645D01*
X182978278Y-101483021D01*
X183094985Y-101545402D01*
X183238622Y-101588974D01*
X183350574Y-101600000D01*
X183350577Y-101600000D01*
X183388000Y-101603686D01*
X183425423Y-101600000D01*
X183832497Y-101600000D01*
X183909211Y-101631776D01*
X184068695Y-101663500D01*
X184231305Y-101663500D01*
X184390789Y-101631776D01*
X184541021Y-101569548D01*
X184676225Y-101479208D01*
X184791208Y-101364225D01*
X184881548Y-101229021D01*
X184943776Y-101078789D01*
X184975500Y-100919305D01*
X184975500Y-100756695D01*
X184943776Y-100597211D01*
X184881548Y-100446979D01*
X184791208Y-100311775D01*
X184676225Y-100196792D01*
X184541021Y-100106452D01*
X184390789Y-100044224D01*
X184231305Y-100012500D01*
X184068695Y-100012500D01*
X183909211Y-100044224D01*
X183832497Y-100076000D01*
X183703631Y-100076000D01*
X182119324Y-98491694D01*
X182087548Y-98414979D01*
X181997208Y-98279775D01*
X181882225Y-98164792D01*
X181747021Y-98074452D01*
X181596789Y-98012224D01*
X181437305Y-97980500D01*
X181274695Y-97980500D01*
X181115211Y-98012224D01*
X180964979Y-98074452D01*
X180829775Y-98164792D01*
X180714792Y-98279775D01*
X180624452Y-98414979D01*
X180562224Y-98565211D01*
X180530500Y-98724695D01*
X174640935Y-98724695D01*
X174809279Y-98556352D01*
X174809283Y-98556347D01*
X176591631Y-96774000D01*
X180022497Y-96774000D01*
X180099211Y-96805776D01*
X180258695Y-96837500D01*
X180421305Y-96837500D01*
X180580789Y-96805776D01*
X180731021Y-96743548D01*
X180866225Y-96653208D01*
X180981208Y-96538225D01*
X181071548Y-96403021D01*
X181133776Y-96252789D01*
X181165500Y-96093305D01*
X181165500Y-95930695D01*
X181133776Y-95771211D01*
X181071548Y-95620979D01*
X180981208Y-95485775D01*
X180866225Y-95370792D01*
X180731021Y-95280452D01*
X180580789Y-95218224D01*
X180421305Y-95186500D01*
X180258695Y-95186500D01*
X180099211Y-95218224D01*
X180022497Y-95250000D01*
X179895503Y-95250000D01*
X179969021Y-95219548D01*
X180104225Y-95129208D01*
X180219208Y-95014225D01*
X180309548Y-94879021D01*
X180371776Y-94728789D01*
X180403500Y-94569305D01*
X180403500Y-94406695D01*
X180371776Y-94247211D01*
X180340000Y-94170497D01*
X180340000Y-93027503D01*
X180371776Y-92950789D01*
X180403500Y-92791305D01*
X180403500Y-92628695D01*
X180371776Y-92469211D01*
X180309548Y-92318979D01*
X180219208Y-92183775D01*
X180104225Y-92068792D01*
X179969021Y-91978452D01*
X179895503Y-91948000D01*
X180530500Y-91948000D01*
X180530500Y-92029305D01*
X180562224Y-92188789D01*
X180594000Y-92265503D01*
X180594000Y-92672574D01*
X180590314Y-92710000D01*
X180594000Y-92747423D01*
X180594000Y-92747426D01*
X180605026Y-92859378D01*
X180648599Y-93003015D01*
X180719355Y-93135392D01*
X180787150Y-93218000D01*
X180814579Y-93251422D01*
X180843649Y-93275279D01*
X185870721Y-98302352D01*
X185894578Y-98331422D01*
X185923648Y-98355279D01*
X186010607Y-98426645D01*
X186081364Y-98464465D01*
X186142985Y-98497402D01*
X186286622Y-98540974D01*
X186398574Y-98552000D01*
X186398577Y-98552000D01*
X186436000Y-98555686D01*
X186473423Y-98552000D01*
X187896497Y-98552000D01*
X187973211Y-98583776D01*
X188132695Y-98615500D01*
X188295305Y-98615500D01*
X188454789Y-98583776D01*
X188605021Y-98521548D01*
X188740225Y-98431208D01*
X188855208Y-98316225D01*
X188945548Y-98181021D01*
X189007776Y-98030789D01*
X189039500Y-97871305D01*
X189039500Y-97708695D01*
X189007776Y-97549211D01*
X188945548Y-97398979D01*
X188855208Y-97263775D01*
X188740225Y-97148792D01*
X188605021Y-97058452D01*
X188454789Y-96996224D01*
X188295305Y-96964500D01*
X188132695Y-96964500D01*
X187973211Y-96996224D01*
X187896497Y-97028000D01*
X187515503Y-97028000D01*
X187589021Y-96997548D01*
X187724225Y-96907208D01*
X187839208Y-96792225D01*
X187929548Y-96657021D01*
X187991776Y-96506789D01*
X188023500Y-96347305D01*
X188023500Y-96184695D01*
X187991776Y-96025211D01*
X187960000Y-95948497D01*
X187960000Y-95821500D01*
X188041305Y-95821500D01*
X188200789Y-95789776D01*
X188351021Y-95727548D01*
X188486225Y-95637208D01*
X188601208Y-95522225D01*
X188691548Y-95387021D01*
X188723324Y-95310306D01*
X191150935Y-92882695D01*
X191960500Y-92882695D01*
X191960500Y-93045305D01*
X191992224Y-93204789D01*
X192054452Y-93355021D01*
X192144792Y-93490225D01*
X192259775Y-93605208D01*
X192394979Y-93695548D01*
X192471695Y-93727325D01*
X192474716Y-93730346D01*
X192498578Y-93759422D01*
X192614608Y-93854645D01*
X192746985Y-93925402D01*
X192890622Y-93968974D01*
X193002574Y-93980000D01*
X193002576Y-93980000D01*
X193039999Y-93983686D01*
X193077422Y-93980000D01*
X193994370Y-93980000D01*
X194252721Y-94238351D01*
X194276579Y-94267422D01*
X194305649Y-94291279D01*
X194392607Y-94362644D01*
X194524983Y-94433401D01*
X194524986Y-94433402D01*
X194668623Y-94476974D01*
X194818000Y-94491686D01*
X194967378Y-94476974D01*
X195111015Y-94433402D01*
X195243392Y-94362645D01*
X195359422Y-94267422D01*
X195454645Y-94151392D01*
X195525402Y-94019015D01*
X195568974Y-93875378D01*
X195580000Y-93763426D01*
X195580000Y-93763415D01*
X195583685Y-93725999D01*
X195580000Y-93688583D01*
X195580000Y-78801630D01*
X196346360Y-78035270D01*
X196375421Y-78011421D01*
X196399270Y-77982361D01*
X196399279Y-77982352D01*
X196470645Y-77895393D01*
X196541401Y-77763016D01*
X196584973Y-77619379D01*
X196599686Y-77470000D01*
X196584973Y-77320622D01*
X196578295Y-77298608D01*
X196541401Y-77176983D01*
X196470644Y-77044607D01*
X196399279Y-76957648D01*
X196399272Y-76957641D01*
X196375421Y-76928579D01*
X196346359Y-76904728D01*
X195073324Y-75631694D01*
X195041548Y-75554979D01*
X194951208Y-75419775D01*
X194836225Y-75304792D01*
X194701021Y-75214452D01*
X194550789Y-75152224D01*
X194391305Y-75120500D01*
X194228695Y-75120500D01*
X194069211Y-75152224D01*
X193918979Y-75214452D01*
X193783775Y-75304792D01*
X193668792Y-75419775D01*
X193578452Y-75554979D01*
X193516224Y-75705211D01*
X193484500Y-75864695D01*
X193484500Y-76027305D01*
X193516224Y-76186789D01*
X193578452Y-76337021D01*
X193668792Y-76472225D01*
X193783775Y-76587208D01*
X193918979Y-76677548D01*
X193995694Y-76709324D01*
X194756369Y-77470000D01*
X194305654Y-77920716D01*
X194276578Y-77944578D01*
X194225042Y-78007376D01*
X194181355Y-78060608D01*
X194169588Y-78082623D01*
X194110598Y-78192986D01*
X194067026Y-78336623D01*
X194056000Y-78448574D01*
X194052314Y-78486000D01*
X194056000Y-78523423D01*
X194056001Y-92456000D01*
X193439385Y-92456000D01*
X193427208Y-92437775D01*
X193312225Y-92322792D01*
X193177021Y-92232452D01*
X193026789Y-92170224D01*
X192867305Y-92138500D01*
X192704695Y-92138500D01*
X192545211Y-92170224D01*
X192394979Y-92232452D01*
X192259775Y-92322792D01*
X192144792Y-92437775D01*
X192054452Y-92572979D01*
X191992224Y-92723211D01*
X191960500Y-92882695D01*
X191150935Y-92882695D01*
X191520352Y-92513279D01*
X191549422Y-92489422D01*
X191582228Y-92449448D01*
X191644645Y-92373393D01*
X191692101Y-92284608D01*
X191715402Y-92241015D01*
X191758974Y-92097378D01*
X191770000Y-91985426D01*
X191770000Y-91985423D01*
X191773686Y-91948000D01*
X191770000Y-91910574D01*
X191770000Y-88963503D01*
X191801776Y-88886789D01*
X191833500Y-88727305D01*
X191833500Y-88564695D01*
X191801776Y-88405211D01*
X191739548Y-88254979D01*
X191649208Y-88119775D01*
X191534225Y-88004792D01*
X191399021Y-87914452D01*
X191248789Y-87852224D01*
X191089305Y-87820500D01*
X190926695Y-87820500D01*
X190767211Y-87852224D01*
X190616979Y-87914452D01*
X190481775Y-88004792D01*
X190366792Y-88119775D01*
X190276452Y-88254979D01*
X190214224Y-88405211D01*
X190182500Y-88564695D01*
X190182500Y-88727305D01*
X190214224Y-88886789D01*
X190246000Y-88963503D01*
X190246001Y-91632368D01*
X188722000Y-93156370D01*
X188722000Y-89953423D01*
X188725686Y-89916000D01*
X188722000Y-89878574D01*
X188710974Y-89766622D01*
X188667402Y-89622985D01*
X188596646Y-89490609D01*
X188596645Y-89490607D01*
X188525279Y-89403648D01*
X188501422Y-89374578D01*
X188472353Y-89350722D01*
X187763283Y-88641653D01*
X187763279Y-88641648D01*
X186239284Y-87117654D01*
X186215422Y-87088578D01*
X186099392Y-86993355D01*
X185967015Y-86922598D01*
X185823378Y-86879026D01*
X185745638Y-86871369D01*
X185660789Y-86836224D01*
X185501305Y-86804500D01*
X185338695Y-86804500D01*
X185179211Y-86836224D01*
X185028979Y-86898452D01*
X184893775Y-86988792D01*
X184778792Y-87103775D01*
X184688452Y-87238979D01*
X184626224Y-87389211D01*
X184594500Y-87548695D01*
X184594500Y-87711305D01*
X184626224Y-87870789D01*
X184688452Y-88021021D01*
X184778792Y-88156225D01*
X184893775Y-88271208D01*
X185028979Y-88361548D01*
X185179211Y-88423776D01*
X185338695Y-88455500D01*
X185421870Y-88455500D01*
X186685648Y-89719279D01*
X186685653Y-89719283D01*
X187198000Y-90231631D01*
X187198001Y-92902368D01*
X186685649Y-93414721D01*
X186656579Y-93438578D01*
X186632722Y-93467648D01*
X186632721Y-93467649D01*
X186561355Y-93554608D01*
X186490599Y-93686985D01*
X186447027Y-93830622D01*
X186432314Y-93980000D01*
X186436001Y-94017433D01*
X186436001Y-94934370D01*
X184151324Y-92649694D01*
X184119548Y-92572979D01*
X184029208Y-92437775D01*
X183981933Y-92390500D01*
X185738526Y-92390500D01*
X185790979Y-92425548D01*
X185941211Y-92487776D01*
X186100695Y-92519500D01*
X186263305Y-92519500D01*
X186422789Y-92487776D01*
X186573021Y-92425548D01*
X186708225Y-92335208D01*
X186823208Y-92220225D01*
X186913548Y-92085021D01*
X186975776Y-91934789D01*
X187007500Y-91775305D01*
X187007500Y-91612695D01*
X186975776Y-91453211D01*
X186913548Y-91302979D01*
X186823208Y-91167775D01*
X186708225Y-91052792D01*
X186573021Y-90962452D01*
X186422789Y-90900224D01*
X186263305Y-90868500D01*
X186100695Y-90868500D01*
X185941211Y-90900224D01*
X185790979Y-90962452D01*
X185738526Y-90997500D01*
X183684177Y-90997500D01*
X183673776Y-90945211D01*
X183611548Y-90794979D01*
X183521208Y-90659775D01*
X183406225Y-90544792D01*
X183271021Y-90454452D01*
X183120789Y-90392224D01*
X182961305Y-90360500D01*
X182943500Y-90360500D01*
X182943500Y-90342695D01*
X182911776Y-90183211D01*
X182849548Y-90032979D01*
X182759208Y-89897775D01*
X182644225Y-89782792D01*
X182509021Y-89692452D01*
X182358789Y-89630224D01*
X182199305Y-89598500D01*
X182036695Y-89598500D01*
X181877211Y-89630224D01*
X181726979Y-89692452D01*
X181591775Y-89782792D01*
X181476792Y-89897775D01*
X181386452Y-90032979D01*
X181354676Y-90109693D01*
X181040370Y-90424000D01*
X167449503Y-90424000D01*
X167372789Y-90392224D01*
X167213305Y-90360500D01*
X167050695Y-90360500D01*
X166891211Y-90392224D01*
X166740979Y-90454452D01*
X166605775Y-90544792D01*
X166490792Y-90659775D01*
X166400452Y-90794979D01*
X166338224Y-90945211D01*
X166306500Y-91104695D01*
X166306500Y-91267305D01*
X166338224Y-91426789D01*
X166400452Y-91577021D01*
X166490792Y-91712225D01*
X166605775Y-91827208D01*
X166740979Y-91917548D01*
X166891211Y-91979776D01*
X167050695Y-92011500D01*
X167213305Y-92011500D01*
X167372789Y-91979776D01*
X167449503Y-91948000D01*
X171134369Y-91948000D01*
X170175649Y-92906721D01*
X170146579Y-92930578D01*
X170122722Y-92959648D01*
X170122721Y-92959649D01*
X170051355Y-93046608D01*
X169980599Y-93178985D01*
X169937027Y-93322622D01*
X169922314Y-93472000D01*
X169926001Y-93509433D01*
X169926001Y-93953696D01*
X169912789Y-93948224D01*
X169753305Y-93916500D01*
X169590695Y-93916500D01*
X169431211Y-93948224D01*
X169354497Y-93980000D01*
X168717631Y-93980000D01*
X166935284Y-92197654D01*
X166911422Y-92168578D01*
X166795392Y-92073355D01*
X166663015Y-92002598D01*
X166519378Y-91959026D01*
X166407426Y-91948000D01*
X166407423Y-91948000D01*
X166370000Y-91944314D01*
X166332577Y-91948000D01*
X164661500Y-91948000D01*
X164661500Y-91840221D01*
X164601108Y-91536610D01*
X164482645Y-91250616D01*
X164310664Y-90993227D01*
X164091773Y-90774336D01*
X163834384Y-90602355D01*
X163548390Y-90483892D01*
X163244779Y-90423500D01*
X162935221Y-90423500D01*
X162631610Y-90483892D01*
X162345616Y-90602355D01*
X162088227Y-90774336D01*
X161869336Y-90993227D01*
X161697355Y-91250616D01*
X161578892Y-91536610D01*
X161518500Y-91840221D01*
X161518500Y-92149779D01*
X161578892Y-92453390D01*
X161697355Y-92739384D01*
X161869336Y-92996773D01*
X162088227Y-93215664D01*
X162345616Y-93387645D01*
X162631610Y-93506108D01*
X162935221Y-93566500D01*
X163244779Y-93566500D01*
X163548390Y-93506108D01*
X163657020Y-93461112D01*
X163767574Y-93472000D01*
X163767577Y-93472000D01*
X163805000Y-93475686D01*
X163842423Y-93472000D01*
X166054370Y-93472000D01*
X167836721Y-95254352D01*
X167860578Y-95283422D01*
X167889648Y-95307279D01*
X167976607Y-95378645D01*
X167992278Y-95387021D01*
X168108985Y-95449402D01*
X168252622Y-95492974D01*
X168364574Y-95504000D01*
X164629422Y-95504000D01*
X164591999Y-95500314D01*
X164554576Y-95504000D01*
X164554574Y-95504000D01*
X164442622Y-95515026D01*
X164298985Y-95558598D01*
X164166608Y-95629355D01*
X164050578Y-95724578D01*
X164026716Y-95753654D01*
X164023695Y-95756675D01*
X163946979Y-95788452D01*
X163811775Y-95878792D01*
X163696792Y-95993775D01*
X163665796Y-96040165D01*
X155572970Y-87947339D01*
X162151096Y-87947339D01*
X162246902Y-88171586D01*
X162492643Y-88313459D01*
X162761340Y-88404663D01*
X163042667Y-88441696D01*
X163325813Y-88423132D01*
X163599897Y-88349686D01*
X163854386Y-88224180D01*
X163933098Y-88171586D01*
X164028904Y-87947339D01*
X163090000Y-87008435D01*
X162151096Y-87947339D01*
X155572970Y-87947339D01*
X154573298Y-86947667D01*
X161643304Y-86947667D01*
X161661868Y-87230813D01*
X161735314Y-87504897D01*
X161860820Y-87759386D01*
X161913414Y-87838098D01*
X162137661Y-87933904D01*
X163076565Y-86995000D01*
X163103435Y-86995000D01*
X164042339Y-87933904D01*
X164266586Y-87838098D01*
X164408459Y-87592357D01*
X164496717Y-87332339D01*
X173051096Y-87332339D01*
X173146902Y-87556586D01*
X173392643Y-87698459D01*
X173661340Y-87789663D01*
X173942667Y-87826696D01*
X174225813Y-87808132D01*
X174499897Y-87734686D01*
X174754386Y-87609180D01*
X174833098Y-87556586D01*
X174928904Y-87332339D01*
X173990000Y-86393435D01*
X173051096Y-87332339D01*
X164496717Y-87332339D01*
X164499663Y-87323660D01*
X164536696Y-87042333D01*
X164518132Y-86759187D01*
X164444686Y-86485103D01*
X164369510Y-86332667D01*
X172543304Y-86332667D01*
X172561868Y-86615813D01*
X172635314Y-86889897D01*
X172760820Y-87144386D01*
X172813414Y-87223098D01*
X173037661Y-87318904D01*
X173976565Y-86380000D01*
X174003435Y-86380000D01*
X174942339Y-87318904D01*
X175166586Y-87223098D01*
X175308459Y-86977357D01*
X175399663Y-86708660D01*
X175436696Y-86427333D01*
X175426951Y-86278695D01*
X178752500Y-86278695D01*
X178752500Y-86441305D01*
X178784224Y-86600789D01*
X178846452Y-86751021D01*
X178936792Y-86886225D01*
X179051775Y-87001208D01*
X179186979Y-87091548D01*
X179322014Y-87147481D01*
X179337117Y-87165884D01*
X179363697Y-87187698D01*
X179766294Y-87590294D01*
X179788115Y-87616883D01*
X179894171Y-87703921D01*
X180015169Y-87768596D01*
X180084619Y-87789663D01*
X180146459Y-87808422D01*
X180159437Y-87809700D01*
X180248782Y-87818500D01*
X180248789Y-87818500D01*
X180282997Y-87821869D01*
X180317205Y-87818500D01*
X181129197Y-87818500D01*
X181274695Y-87847442D01*
X181437305Y-87847442D01*
X181596789Y-87815718D01*
X181747021Y-87753490D01*
X181882225Y-87663150D01*
X181997208Y-87548167D01*
X182087548Y-87412963D01*
X182135802Y-87296468D01*
X182147376Y-87294166D01*
X182324178Y-87220932D01*
X182483295Y-87114614D01*
X182618614Y-86979295D01*
X182724932Y-86820178D01*
X182798166Y-86643376D01*
X182835500Y-86455684D01*
X182835500Y-86264316D01*
X182798166Y-86076624D01*
X182724932Y-85899822D01*
X182618614Y-85740705D01*
X182483295Y-85605386D01*
X182324178Y-85499068D01*
X182147376Y-85425834D01*
X181959684Y-85388500D01*
X181768316Y-85388500D01*
X181580624Y-85425834D01*
X181403822Y-85499068D01*
X181255759Y-85598000D01*
X181202241Y-85598000D01*
X181054178Y-85499068D01*
X180877376Y-85425834D01*
X180689684Y-85388500D01*
X180498316Y-85388500D01*
X180310624Y-85425834D01*
X180133822Y-85499068D01*
X179974705Y-85605386D01*
X179956730Y-85623361D01*
X179818789Y-85566224D01*
X179659305Y-85534500D01*
X179496695Y-85534500D01*
X179337211Y-85566224D01*
X179186979Y-85628452D01*
X179051775Y-85718792D01*
X178936792Y-85833775D01*
X178846452Y-85968979D01*
X178784224Y-86119211D01*
X178752500Y-86278695D01*
X175426951Y-86278695D01*
X175418132Y-86144187D01*
X175344686Y-85870103D01*
X175219180Y-85615614D01*
X175166586Y-85536902D01*
X174942339Y-85441096D01*
X174003435Y-86380000D01*
X173976565Y-86380000D01*
X173037661Y-85441096D01*
X172813414Y-85536902D01*
X172671541Y-85782643D01*
X172580337Y-86051340D01*
X172543304Y-86332667D01*
X164369510Y-86332667D01*
X164319180Y-86230614D01*
X164266586Y-86151902D01*
X164042339Y-86056096D01*
X163103435Y-86995000D01*
X163076565Y-86995000D01*
X162137661Y-86056096D01*
X161913414Y-86151902D01*
X161771541Y-86397643D01*
X161680337Y-86666340D01*
X161643304Y-86947667D01*
X154573298Y-86947667D01*
X154108284Y-86482654D01*
X154084422Y-86453578D01*
X153968392Y-86358355D01*
X153836015Y-86287598D01*
X153692378Y-86244026D01*
X153580426Y-86233000D01*
X153580423Y-86233000D01*
X153543000Y-86229314D01*
X153505577Y-86233000D01*
X150164265Y-86233000D01*
X150164265Y-86042661D01*
X162151096Y-86042661D01*
X163090000Y-86981565D01*
X164028904Y-86042661D01*
X163933098Y-85818414D01*
X163687357Y-85676541D01*
X163418660Y-85585337D01*
X163137333Y-85548304D01*
X162854187Y-85566868D01*
X162580103Y-85640314D01*
X162325614Y-85765820D01*
X162246902Y-85818414D01*
X162151096Y-86042661D01*
X150164265Y-86042661D01*
X150164265Y-85995000D01*
X150153231Y-85882966D01*
X150120552Y-85775238D01*
X150067484Y-85675955D01*
X150003508Y-85598000D01*
X150076577Y-85598000D01*
X150114000Y-85601686D01*
X150151423Y-85598000D01*
X150151426Y-85598000D01*
X150263378Y-85586974D01*
X150407015Y-85543402D01*
X150539392Y-85472645D01*
X150655422Y-85377422D01*
X150679284Y-85348346D01*
X152969631Y-83058000D01*
X153632575Y-83058000D01*
X153670000Y-83061686D01*
X153744852Y-83054314D01*
X153819378Y-83046974D01*
X153915735Y-83017744D01*
X153915735Y-84895000D01*
X153926769Y-85007034D01*
X153959448Y-85114762D01*
X154012516Y-85214045D01*
X154083933Y-85301067D01*
X154170955Y-85372484D01*
X154270238Y-85425552D01*
X154377966Y-85458231D01*
X154490000Y-85469265D01*
X157690000Y-85469265D01*
X157802034Y-85458231D01*
X157909762Y-85425552D01*
X158009045Y-85372484D01*
X158096067Y-85301067D01*
X158167484Y-85214045D01*
X158220552Y-85114762D01*
X158253231Y-85007034D01*
X158264265Y-84895000D01*
X158264265Y-82895000D01*
X158253231Y-82782966D01*
X158220552Y-82675238D01*
X158167484Y-82575955D01*
X158096067Y-82488933D01*
X158009045Y-82417516D01*
X157909762Y-82364448D01*
X157802034Y-82331769D01*
X157690000Y-82320735D01*
X154490000Y-82320735D01*
X154432694Y-82326379D01*
X154435686Y-82296000D01*
X154432000Y-82258574D01*
X154432000Y-79563630D01*
X155749094Y-80880724D01*
X155783834Y-81055376D01*
X155857068Y-81232178D01*
X155963386Y-81391295D01*
X156098705Y-81526614D01*
X156257822Y-81632932D01*
X156434624Y-81706166D01*
X156622316Y-81743500D01*
X156813684Y-81743500D01*
X157001376Y-81706166D01*
X157034812Y-81692316D01*
X167938500Y-81692316D01*
X167938500Y-81883684D01*
X167975834Y-82071376D01*
X168049068Y-82248178D01*
X168148001Y-82396242D01*
X168148000Y-83973759D01*
X168049068Y-84121822D01*
X167975834Y-84298624D01*
X167938500Y-84486316D01*
X167938500Y-84677684D01*
X167975834Y-84865376D01*
X168049068Y-85042178D01*
X168155386Y-85201295D01*
X168290705Y-85336614D01*
X168449822Y-85442932D01*
X168626624Y-85516166D01*
X168814316Y-85553500D01*
X169005684Y-85553500D01*
X169193376Y-85516166D01*
X169370178Y-85442932D01*
X169393032Y-85427661D01*
X173051096Y-85427661D01*
X173990000Y-86366565D01*
X174928904Y-85427661D01*
X174833098Y-85203414D01*
X174587357Y-85061541D01*
X174318660Y-84970337D01*
X174037333Y-84933304D01*
X173754187Y-84951868D01*
X173480103Y-85025314D01*
X173225614Y-85150820D01*
X173146902Y-85203414D01*
X173051096Y-85427661D01*
X169393032Y-85427661D01*
X169529295Y-85336614D01*
X169664614Y-85201295D01*
X169770932Y-85042178D01*
X169844166Y-84865376D01*
X169881500Y-84677684D01*
X169881500Y-84486316D01*
X169844166Y-84298624D01*
X169770932Y-84121822D01*
X169672000Y-83973759D01*
X169672000Y-82396241D01*
X169770932Y-82248178D01*
X169844166Y-82071376D01*
X169881500Y-81883684D01*
X169881500Y-81692316D01*
X169844166Y-81504624D01*
X169822657Y-81452695D01*
X177736500Y-81452695D01*
X177736500Y-81615305D01*
X177768224Y-81774789D01*
X177830452Y-81925021D01*
X177920792Y-82060225D01*
X178035775Y-82175208D01*
X178170979Y-82265548D01*
X178321211Y-82327776D01*
X178480695Y-82359500D01*
X178643305Y-82359500D01*
X178802789Y-82327776D01*
X178953021Y-82265548D01*
X179088225Y-82175208D01*
X179203208Y-82060225D01*
X179215385Y-82042000D01*
X180530497Y-82042000D01*
X180607211Y-82073776D01*
X180766695Y-82105500D01*
X180929305Y-82105500D01*
X181088789Y-82073776D01*
X181239021Y-82011548D01*
X181374225Y-81921208D01*
X181489208Y-81806225D01*
X181579548Y-81671021D01*
X181641776Y-81520789D01*
X181673500Y-81361305D01*
X181673500Y-81198695D01*
X181641776Y-81039211D01*
X181579548Y-80888979D01*
X181489208Y-80753775D01*
X181374225Y-80638792D01*
X181239021Y-80548452D01*
X181088789Y-80486224D01*
X180929305Y-80454500D01*
X180766695Y-80454500D01*
X180607211Y-80486224D01*
X180530497Y-80518000D01*
X178853422Y-80518000D01*
X178815999Y-80514314D01*
X178778576Y-80518000D01*
X178778574Y-80518000D01*
X178666622Y-80529026D01*
X178522985Y-80572598D01*
X178390608Y-80643355D01*
X178274578Y-80738578D01*
X178250716Y-80767654D01*
X178247695Y-80770675D01*
X178170979Y-80802452D01*
X178035775Y-80892792D01*
X177920792Y-81007775D01*
X177830452Y-81142979D01*
X177768224Y-81293211D01*
X177736500Y-81452695D01*
X169822657Y-81452695D01*
X169770932Y-81327822D01*
X169664614Y-81168705D01*
X169529295Y-81033386D01*
X169370178Y-80927068D01*
X169193376Y-80853834D01*
X169005684Y-80816500D01*
X168814316Y-80816500D01*
X168626624Y-80853834D01*
X168449822Y-80927068D01*
X168290705Y-81033386D01*
X168155386Y-81168705D01*
X168049068Y-81327822D01*
X167975834Y-81504624D01*
X167938500Y-81692316D01*
X157034812Y-81692316D01*
X157178178Y-81632932D01*
X157337295Y-81526614D01*
X157472614Y-81391295D01*
X157578932Y-81232178D01*
X157652166Y-81055376D01*
X157689500Y-80867684D01*
X157689500Y-80676316D01*
X157652166Y-80488624D01*
X157578932Y-80311822D01*
X157472614Y-80152705D01*
X157337295Y-80017386D01*
X157178178Y-79911068D01*
X157001376Y-79837834D01*
X156826724Y-79803094D01*
X156429946Y-79406316D01*
X176320500Y-79406316D01*
X176320500Y-79597684D01*
X176357834Y-79785376D01*
X176431068Y-79962178D01*
X176537386Y-80121295D01*
X176672705Y-80256614D01*
X176831822Y-80362932D01*
X177008624Y-80436166D01*
X177196316Y-80473500D01*
X177387684Y-80473500D01*
X177575376Y-80436166D01*
X177752178Y-80362932D01*
X177911295Y-80256614D01*
X178046614Y-80121295D01*
X178152932Y-79962178D01*
X178226166Y-79785376D01*
X178260906Y-79610724D01*
X179385630Y-78486000D01*
X179477759Y-78486000D01*
X179625822Y-78584932D01*
X179802624Y-78658166D01*
X179990316Y-78695500D01*
X180181684Y-78695500D01*
X180369376Y-78658166D01*
X180546178Y-78584932D01*
X180705295Y-78478614D01*
X180840614Y-78343295D01*
X180946932Y-78184178D01*
X181020166Y-78007376D01*
X181057500Y-77819684D01*
X181057500Y-77628316D01*
X181020166Y-77440624D01*
X180946932Y-77263822D01*
X180840614Y-77104705D01*
X180705295Y-76969386D01*
X180546178Y-76863068D01*
X180369376Y-76789834D01*
X180181684Y-76752500D01*
X179990316Y-76752500D01*
X179802624Y-76789834D01*
X179625822Y-76863068D01*
X179477759Y-76962000D01*
X179107423Y-76962000D01*
X179070000Y-76958314D01*
X179032577Y-76962000D01*
X179032574Y-76962000D01*
X178920622Y-76973026D01*
X178776985Y-77016598D01*
X178724584Y-77044607D01*
X178644607Y-77087355D01*
X178602219Y-77122143D01*
X178528578Y-77182578D01*
X178504716Y-77211654D01*
X177183276Y-78533094D01*
X177008624Y-78567834D01*
X176831822Y-78641068D01*
X176672705Y-78747386D01*
X176537386Y-78882705D01*
X176431068Y-79041822D01*
X176357834Y-79218624D01*
X176320500Y-79406316D01*
X156429946Y-79406316D01*
X155766836Y-78743206D01*
X155800932Y-78692178D01*
X155874166Y-78515376D01*
X155911500Y-78327684D01*
X155911500Y-78136316D01*
X155874166Y-77948624D01*
X155800932Y-77771822D01*
X155694614Y-77612705D01*
X155559295Y-77477386D01*
X155400178Y-77371068D01*
X155223376Y-77297834D01*
X155035684Y-77260500D01*
X154844316Y-77260500D01*
X154656624Y-77297834D01*
X154479822Y-77371068D01*
X154432000Y-77403021D01*
X154432000Y-75850316D01*
X165652500Y-75850316D01*
X165652500Y-76041684D01*
X165689834Y-76229376D01*
X165763068Y-76406178D01*
X165869386Y-76565295D01*
X166004705Y-76700614D01*
X166163822Y-76806932D01*
X166340624Y-76880166D01*
X166528316Y-76917500D01*
X166719684Y-76917500D01*
X166907376Y-76880166D01*
X167084178Y-76806932D01*
X167232241Y-76708000D01*
X173127759Y-76708000D01*
X173275822Y-76806932D01*
X173452624Y-76880166D01*
X173640316Y-76917500D01*
X173831684Y-76917500D01*
X174019376Y-76880166D01*
X174196178Y-76806932D01*
X174344241Y-76708000D01*
X175984577Y-76708000D01*
X176022000Y-76711686D01*
X176059423Y-76708000D01*
X176059426Y-76708000D01*
X176171378Y-76696974D01*
X176315015Y-76653402D01*
X176447392Y-76582645D01*
X176563422Y-76487422D01*
X176587284Y-76458346D01*
X176591630Y-76454000D01*
X192011977Y-76454000D01*
X192049400Y-76457686D01*
X192086823Y-76454000D01*
X192086826Y-76454000D01*
X192198778Y-76442974D01*
X192342415Y-76399402D01*
X192474792Y-76328645D01*
X192590822Y-76233422D01*
X192614684Y-76204346D01*
X195688079Y-73130952D01*
X195759445Y-73043993D01*
X195830201Y-72911616D01*
X195873773Y-72767979D01*
X195888486Y-72618600D01*
X195873773Y-72469222D01*
X195830201Y-72325585D01*
X195759445Y-72193208D01*
X195664221Y-72077179D01*
X195548192Y-71981955D01*
X195415815Y-71911199D01*
X195272178Y-71867627D01*
X195122800Y-71852914D01*
X194973421Y-71867627D01*
X194829784Y-71911199D01*
X194697407Y-71981955D01*
X194610448Y-72053321D01*
X192539988Y-74123782D01*
X192501548Y-74030979D01*
X192411208Y-73895775D01*
X192296225Y-73780792D01*
X192161021Y-73690452D01*
X192010789Y-73628224D01*
X191851305Y-73596500D01*
X191688695Y-73596500D01*
X191529211Y-73628224D01*
X191452497Y-73660000D01*
X171259503Y-73660000D01*
X171182789Y-73628224D01*
X171023305Y-73596500D01*
X170860695Y-73596500D01*
X170701211Y-73628224D01*
X170550979Y-73690452D01*
X170415775Y-73780792D01*
X170300792Y-73895775D01*
X170210452Y-74030979D01*
X170148224Y-74181211D01*
X170116500Y-74340695D01*
X170116500Y-74503305D01*
X170148224Y-74662789D01*
X170210452Y-74813021D01*
X170300792Y-74948225D01*
X170415775Y-75063208D01*
X170550979Y-75153548D01*
X170624497Y-75184000D01*
X167232241Y-75184000D01*
X167084178Y-75085068D01*
X166907376Y-75011834D01*
X166719684Y-74974500D01*
X166528316Y-74974500D01*
X166340624Y-75011834D01*
X166163822Y-75085068D01*
X166004705Y-75191386D01*
X165869386Y-75326705D01*
X165763068Y-75485822D01*
X165689834Y-75662624D01*
X165652500Y-75850316D01*
X154432000Y-75850316D01*
X154432000Y-74229630D01*
X157033631Y-71628000D01*
X198058370Y-71628000D01*
X198374001Y-71943632D01*
G37*
%TD.AperFunction*%
D18*
X139695654Y-84778716D02*
X139666578Y-84802578D01*
X139639150Y-84836000D01*
X139571355Y-84918608D01*
X139546748Y-84964645D01*
X139500598Y-85050986D01*
X139457026Y-85194623D01*
X139446000Y-85306574D01*
X139442314Y-85344000D01*
X139446000Y-85381423D01*
X139446001Y-89116565D01*
X139446000Y-89116575D01*
X139446001Y-91378369D01*
X139385695Y-91438675D01*
X139308979Y-91470452D01*
X139173775Y-91560792D01*
X139058792Y-91675775D01*
X138968452Y-91810979D01*
X138906224Y-91961211D01*
X138874500Y-92120695D01*
X138874500Y-92283305D01*
X138906224Y-92442789D01*
X138968452Y-92593021D01*
X139058792Y-92728225D01*
X139173775Y-92843208D01*
X139308979Y-92933548D01*
X139459211Y-92995776D01*
X139618695Y-93027500D01*
X139781305Y-93027500D01*
X139940789Y-92995776D01*
X140091021Y-92933548D01*
X140226225Y-92843208D01*
X140341208Y-92728225D01*
X140431548Y-92593021D01*
X140463325Y-92516305D01*
X140720346Y-92259284D01*
X140749422Y-92235422D01*
X140844645Y-92119392D01*
X140915402Y-91987015D01*
X140958974Y-91843378D01*
X140959284Y-91840221D01*
X147018500Y-91840221D01*
X147018500Y-92149779D01*
X147078892Y-92453390D01*
X147197355Y-92739384D01*
X147369336Y-92996773D01*
X147588227Y-93215664D01*
X147845616Y-93387645D01*
X148131610Y-93506108D01*
X148435221Y-93566500D01*
X148744779Y-93566500D01*
X149048390Y-93506108D01*
X149334384Y-93387645D01*
X149591773Y-93215664D01*
X149810664Y-92996773D01*
X149982645Y-92739384D01*
X150101108Y-92453390D01*
X150161500Y-92149779D01*
X150161500Y-91840221D01*
X150101108Y-91536610D01*
X149982645Y-91250616D01*
X149810664Y-90993227D01*
X149591773Y-90774336D01*
X149434186Y-90669040D01*
X149528904Y-90447339D01*
X148590000Y-89508435D01*
X147651096Y-90447339D01*
X147745814Y-90669040D01*
X147588227Y-90774336D01*
X147369336Y-90993227D01*
X147197355Y-91250616D01*
X147078892Y-91536610D01*
X147018500Y-91840221D01*
X140959284Y-91840221D01*
X140970000Y-91731426D01*
X140970000Y-91731417D01*
X140973685Y-91694001D01*
X140970000Y-91656585D01*
X140970000Y-85659630D01*
X142047631Y-84582000D01*
X144210370Y-84582000D01*
X144976721Y-85348351D01*
X145000578Y-85377422D01*
X145029648Y-85401279D01*
X145116607Y-85472645D01*
X145166042Y-85499068D01*
X145248985Y-85543402D01*
X145392622Y-85586974D01*
X145504574Y-85598000D01*
X145504577Y-85598000D01*
X145542000Y-85601686D01*
X145579423Y-85598000D01*
X147176492Y-85598000D01*
X147112516Y-85675955D01*
X147059448Y-85775238D01*
X147026769Y-85882966D01*
X147015735Y-85995000D01*
X147015735Y-87995000D01*
X147026769Y-88107034D01*
X147059448Y-88214762D01*
X147112516Y-88314045D01*
X147183933Y-88401067D01*
X147270955Y-88472484D01*
X147370238Y-88525552D01*
X147477966Y-88558231D01*
X147590000Y-88569265D01*
X147606837Y-88569265D01*
X147413414Y-88651902D01*
X147271541Y-88897643D01*
X147180337Y-89166340D01*
X147143304Y-89447667D01*
X147161868Y-89730813D01*
X147235314Y-90004897D01*
X147360820Y-90259386D01*
X147413414Y-90338098D01*
X147637661Y-90433904D01*
X148576565Y-89495000D01*
X148562423Y-89480858D01*
X148575858Y-89467423D01*
X148590000Y-89481565D01*
X148604143Y-89467423D01*
X148617578Y-89480858D01*
X148603435Y-89495000D01*
X149542339Y-90433904D01*
X149766586Y-90338098D01*
X149908459Y-90092357D01*
X149999663Y-89823660D01*
X150036696Y-89542333D01*
X150018132Y-89259187D01*
X149944686Y-88985103D01*
X149819180Y-88730614D01*
X149766586Y-88651902D01*
X149573163Y-88569265D01*
X149590000Y-88569265D01*
X149702034Y-88558231D01*
X149809762Y-88525552D01*
X149909045Y-88472484D01*
X149996067Y-88401067D01*
X150067484Y-88314045D01*
X150120552Y-88214762D01*
X150153231Y-88107034D01*
X150164265Y-87995000D01*
X150164265Y-87757000D01*
X153227370Y-87757000D01*
X163772721Y-98302352D01*
X163796578Y-98331422D01*
X163912608Y-98426645D01*
X164044985Y-98497402D01*
X164188622Y-98540974D01*
X164300574Y-98552000D01*
X164300576Y-98552000D01*
X164337999Y-98555686D01*
X164375422Y-98552000D01*
X169100497Y-98552000D01*
X169177211Y-98583776D01*
X169336695Y-98615500D01*
X169499305Y-98615500D01*
X169658789Y-98583776D01*
X169809021Y-98521548D01*
X169926000Y-98443385D01*
X169926000Y-98490369D01*
X167440265Y-100976105D01*
X167440265Y-100088000D01*
X167429231Y-99975966D01*
X167396552Y-99868238D01*
X167343484Y-99768955D01*
X167272067Y-99681933D01*
X167185045Y-99610516D01*
X167085762Y-99557448D01*
X166978034Y-99524769D01*
X166866000Y-99513735D01*
X165366000Y-99513735D01*
X165253966Y-99524769D01*
X165146238Y-99557448D01*
X165046955Y-99610516D01*
X164959933Y-99681933D01*
X164888516Y-99768955D01*
X164835448Y-99868238D01*
X164802769Y-99975966D01*
X164791735Y-100088000D01*
X164791735Y-100319799D01*
X164747098Y-100212035D01*
X164602476Y-99995593D01*
X164418407Y-99811524D01*
X164201965Y-99666902D01*
X163961467Y-99567285D01*
X163706156Y-99516500D01*
X163445844Y-99516500D01*
X163190533Y-99567285D01*
X162950035Y-99666902D01*
X162733593Y-99811524D01*
X162549524Y-99995593D01*
X162404902Y-100212035D01*
X162306000Y-100450807D01*
X162207098Y-100212035D01*
X162062476Y-99995593D01*
X161878407Y-99811524D01*
X161661965Y-99666902D01*
X161421467Y-99567285D01*
X161166156Y-99516500D01*
X160905844Y-99516500D01*
X160650533Y-99567285D01*
X160410035Y-99666902D01*
X160193593Y-99811524D01*
X160009524Y-99995593D01*
X159864902Y-100212035D01*
X159766000Y-100450807D01*
X159667098Y-100212035D01*
X159522476Y-99995593D01*
X159338407Y-99811524D01*
X159121965Y-99666902D01*
X158881467Y-99567285D01*
X158626156Y-99516500D01*
X158365844Y-99516500D01*
X158110533Y-99567285D01*
X157870035Y-99666902D01*
X157653593Y-99811524D01*
X157469524Y-99995593D01*
X157324902Y-100212035D01*
X157226000Y-100450807D01*
X157127098Y-100212035D01*
X156982476Y-99995593D01*
X156798407Y-99811524D01*
X156581965Y-99666902D01*
X156341467Y-99567285D01*
X156086156Y-99516500D01*
X155825844Y-99516500D01*
X155570533Y-99567285D01*
X155330035Y-99666902D01*
X155113593Y-99811524D01*
X154929524Y-99995593D01*
X154784902Y-100212035D01*
X154686000Y-100450807D01*
X154587098Y-100212035D01*
X154442476Y-99995593D01*
X154258407Y-99811524D01*
X154041965Y-99666902D01*
X153801467Y-99567285D01*
X153546156Y-99516500D01*
X153285844Y-99516500D01*
X153030533Y-99567285D01*
X152790035Y-99666902D01*
X152573593Y-99811524D01*
X152389524Y-99995593D01*
X152244902Y-100212035D01*
X152145285Y-100452533D01*
X152094500Y-100707844D01*
X152094500Y-100865140D01*
X152041378Y-100849026D01*
X151929426Y-100838000D01*
X151929423Y-100838000D01*
X151892000Y-100834314D01*
X151854577Y-100838000D01*
X136459631Y-100838000D01*
X135890000Y-100268370D01*
X135890000Y-96329503D01*
X135921776Y-96252789D01*
X135935321Y-96184695D01*
X143192500Y-96184695D01*
X143192500Y-96347305D01*
X143224224Y-96506789D01*
X143286452Y-96657021D01*
X143376792Y-96792225D01*
X143491775Y-96907208D01*
X143626979Y-96997548D01*
X143777211Y-97059776D01*
X143936695Y-97091500D01*
X144099305Y-97091500D01*
X144258789Y-97059776D01*
X144335503Y-97028000D01*
X145988370Y-97028000D01*
X147008721Y-98048352D01*
X147032578Y-98077422D01*
X147148608Y-98172645D01*
X147280985Y-98243402D01*
X147424622Y-98286974D01*
X147536574Y-98298000D01*
X147536576Y-98298000D01*
X147573999Y-98301686D01*
X147611422Y-98298000D01*
X149288497Y-98298000D01*
X149365211Y-98329776D01*
X149524695Y-98361500D01*
X149687305Y-98361500D01*
X149846789Y-98329776D01*
X149997021Y-98267548D01*
X150132225Y-98177208D01*
X150247208Y-98062225D01*
X150337548Y-97927021D01*
X150399776Y-97776789D01*
X150431500Y-97617305D01*
X150431500Y-97454695D01*
X150399776Y-97295211D01*
X150337548Y-97144979D01*
X150247208Y-97009775D01*
X150132225Y-96894792D01*
X149997021Y-96804452D01*
X149846789Y-96742224D01*
X149687305Y-96710500D01*
X149524695Y-96710500D01*
X149365211Y-96742224D01*
X149288497Y-96774000D01*
X147889631Y-96774000D01*
X146869284Y-95753654D01*
X146845422Y-95724578D01*
X146729392Y-95629355D01*
X146597015Y-95558598D01*
X146453378Y-95515026D01*
X146341426Y-95504000D01*
X146341423Y-95504000D01*
X146304000Y-95500314D01*
X146266577Y-95504000D01*
X144335503Y-95504000D01*
X144258789Y-95472224D01*
X144099305Y-95440500D01*
X143936695Y-95440500D01*
X143777211Y-95472224D01*
X143626979Y-95534452D01*
X143491775Y-95624792D01*
X143376792Y-95739775D01*
X143286452Y-95874979D01*
X143224224Y-96025211D01*
X143192500Y-96184695D01*
X135935321Y-96184695D01*
X135953500Y-96093305D01*
X135953500Y-95930695D01*
X135921776Y-95771211D01*
X135862378Y-95627811D01*
X135871775Y-95637208D01*
X136006979Y-95727548D01*
X136157211Y-95789776D01*
X136316695Y-95821500D01*
X136479305Y-95821500D01*
X136638789Y-95789776D01*
X136789021Y-95727548D01*
X136924225Y-95637208D01*
X137039208Y-95522225D01*
X137129548Y-95387021D01*
X137191776Y-95236789D01*
X137223500Y-95077305D01*
X137223500Y-94914695D01*
X137191776Y-94755211D01*
X137129548Y-94604979D01*
X137039208Y-94469775D01*
X136924225Y-94354792D01*
X136789021Y-94264452D01*
X136712307Y-94232676D01*
X136574631Y-94095000D01*
X153915735Y-94095000D01*
X153915735Y-96095000D01*
X153926769Y-96207034D01*
X153959448Y-96314762D01*
X154012516Y-96414045D01*
X154083933Y-96501067D01*
X154170955Y-96572484D01*
X154270238Y-96625552D01*
X154377966Y-96658231D01*
X154490000Y-96669265D01*
X157690000Y-96669265D01*
X157802034Y-96658231D01*
X157909762Y-96625552D01*
X158009045Y-96572484D01*
X158096067Y-96501067D01*
X158167484Y-96414045D01*
X158220552Y-96314762D01*
X158253231Y-96207034D01*
X158264265Y-96095000D01*
X158264265Y-94095000D01*
X158253231Y-93982966D01*
X158220552Y-93875238D01*
X158167484Y-93775955D01*
X158096067Y-93688933D01*
X158009045Y-93617516D01*
X157909762Y-93564448D01*
X157802034Y-93531769D01*
X157690000Y-93520735D01*
X154490000Y-93520735D01*
X154377966Y-93531769D01*
X154270238Y-93564448D01*
X154170955Y-93617516D01*
X154083933Y-93688933D01*
X154012516Y-93775955D01*
X153959448Y-93875238D01*
X153926769Y-93982966D01*
X153915735Y-94095000D01*
X136574631Y-94095000D01*
X135890000Y-93410370D01*
X135890000Y-91501630D01*
X135894347Y-91497283D01*
X135923422Y-91473422D01*
X136018645Y-91357392D01*
X136089402Y-91225015D01*
X136132974Y-91081378D01*
X136144000Y-90969426D01*
X136144000Y-90969424D01*
X136147686Y-90932001D01*
X136144000Y-90894578D01*
X136144000Y-89663958D01*
X136148347Y-89659611D01*
X136177422Y-89635750D01*
X136272645Y-89519720D01*
X136343402Y-89387343D01*
X136386974Y-89243706D01*
X136398000Y-89131754D01*
X136398000Y-89131752D01*
X136401686Y-89094329D01*
X136398000Y-89056906D01*
X136398000Y-84643630D01*
X137040640Y-84000990D01*
X140473379Y-84000990D01*
X139695654Y-84778716D01*
%TA.AperFunction,Conductor*%
D21*
G36*
X139695654Y-84778716D02*
G01*
X139666578Y-84802578D01*
X139639150Y-84836000D01*
X139571355Y-84918608D01*
X139546748Y-84964645D01*
X139500598Y-85050986D01*
X139457026Y-85194623D01*
X139446000Y-85306574D01*
X139442314Y-85344000D01*
X139446000Y-85381423D01*
X139446001Y-89116565D01*
X139446000Y-89116575D01*
X139446001Y-91378369D01*
X139385695Y-91438675D01*
X139308979Y-91470452D01*
X139173775Y-91560792D01*
X139058792Y-91675775D01*
X138968452Y-91810979D01*
X138906224Y-91961211D01*
X138874500Y-92120695D01*
X138874500Y-92283305D01*
X138906224Y-92442789D01*
X138968452Y-92593021D01*
X139058792Y-92728225D01*
X139173775Y-92843208D01*
X139308979Y-92933548D01*
X139459211Y-92995776D01*
X139618695Y-93027500D01*
X139781305Y-93027500D01*
X139940789Y-92995776D01*
X140091021Y-92933548D01*
X140226225Y-92843208D01*
X140341208Y-92728225D01*
X140431548Y-92593021D01*
X140463325Y-92516305D01*
X140720346Y-92259284D01*
X140749422Y-92235422D01*
X140844645Y-92119392D01*
X140915402Y-91987015D01*
X140958974Y-91843378D01*
X140959284Y-91840221D01*
X147018500Y-91840221D01*
X147018500Y-92149779D01*
X147078892Y-92453390D01*
X147197355Y-92739384D01*
X147369336Y-92996773D01*
X147588227Y-93215664D01*
X147845616Y-93387645D01*
X148131610Y-93506108D01*
X148435221Y-93566500D01*
X148744779Y-93566500D01*
X149048390Y-93506108D01*
X149334384Y-93387645D01*
X149591773Y-93215664D01*
X149810664Y-92996773D01*
X149982645Y-92739384D01*
X150101108Y-92453390D01*
X150161500Y-92149779D01*
X150161500Y-91840221D01*
X150101108Y-91536610D01*
X149982645Y-91250616D01*
X149810664Y-90993227D01*
X149591773Y-90774336D01*
X149434186Y-90669040D01*
X149528904Y-90447339D01*
X148590000Y-89508435D01*
X147651096Y-90447339D01*
X147745814Y-90669040D01*
X147588227Y-90774336D01*
X147369336Y-90993227D01*
X147197355Y-91250616D01*
X147078892Y-91536610D01*
X147018500Y-91840221D01*
X140959284Y-91840221D01*
X140970000Y-91731426D01*
X140970000Y-91731417D01*
X140973685Y-91694001D01*
X140970000Y-91656585D01*
X140970000Y-85659630D01*
X142047631Y-84582000D01*
X144210370Y-84582000D01*
X144976721Y-85348351D01*
X145000578Y-85377422D01*
X145029648Y-85401279D01*
X145116607Y-85472645D01*
X145166042Y-85499068D01*
X145248985Y-85543402D01*
X145392622Y-85586974D01*
X145504574Y-85598000D01*
X145504577Y-85598000D01*
X145542000Y-85601686D01*
X145579423Y-85598000D01*
X147176492Y-85598000D01*
X147112516Y-85675955D01*
X147059448Y-85775238D01*
X147026769Y-85882966D01*
X147015735Y-85995000D01*
X147015735Y-87995000D01*
X147026769Y-88107034D01*
X147059448Y-88214762D01*
X147112516Y-88314045D01*
X147183933Y-88401067D01*
X147270955Y-88472484D01*
X147370238Y-88525552D01*
X147477966Y-88558231D01*
X147590000Y-88569265D01*
X147606837Y-88569265D01*
X147413414Y-88651902D01*
X147271541Y-88897643D01*
X147180337Y-89166340D01*
X147143304Y-89447667D01*
X147161868Y-89730813D01*
X147235314Y-90004897D01*
X147360820Y-90259386D01*
X147413414Y-90338098D01*
X147637661Y-90433904D01*
X148576565Y-89495000D01*
X148562423Y-89480858D01*
X148575858Y-89467423D01*
X148590000Y-89481565D01*
X148604143Y-89467423D01*
X148617578Y-89480858D01*
X148603435Y-89495000D01*
X149542339Y-90433904D01*
X149766586Y-90338098D01*
X149908459Y-90092357D01*
X149999663Y-89823660D01*
X150036696Y-89542333D01*
X150018132Y-89259187D01*
X149944686Y-88985103D01*
X149819180Y-88730614D01*
X149766586Y-88651902D01*
X149573163Y-88569265D01*
X149590000Y-88569265D01*
X149702034Y-88558231D01*
X149809762Y-88525552D01*
X149909045Y-88472484D01*
X149996067Y-88401067D01*
X150067484Y-88314045D01*
X150120552Y-88214762D01*
X150153231Y-88107034D01*
X150164265Y-87995000D01*
X150164265Y-87757000D01*
X153227370Y-87757000D01*
X163772721Y-98302352D01*
X163796578Y-98331422D01*
X163912608Y-98426645D01*
X164044985Y-98497402D01*
X164188622Y-98540974D01*
X164300574Y-98552000D01*
X164300576Y-98552000D01*
X164337999Y-98555686D01*
X164375422Y-98552000D01*
X169100497Y-98552000D01*
X169177211Y-98583776D01*
X169336695Y-98615500D01*
X169499305Y-98615500D01*
X169658789Y-98583776D01*
X169809021Y-98521548D01*
X169926000Y-98443385D01*
X169926000Y-98490369D01*
X167440265Y-100976105D01*
X167440265Y-100088000D01*
X167429231Y-99975966D01*
X167396552Y-99868238D01*
X167343484Y-99768955D01*
X167272067Y-99681933D01*
X167185045Y-99610516D01*
X167085762Y-99557448D01*
X166978034Y-99524769D01*
X166866000Y-99513735D01*
X165366000Y-99513735D01*
X165253966Y-99524769D01*
X165146238Y-99557448D01*
X165046955Y-99610516D01*
X164959933Y-99681933D01*
X164888516Y-99768955D01*
X164835448Y-99868238D01*
X164802769Y-99975966D01*
X164791735Y-100088000D01*
X164791735Y-100319799D01*
X164747098Y-100212035D01*
X164602476Y-99995593D01*
X164418407Y-99811524D01*
X164201965Y-99666902D01*
X163961467Y-99567285D01*
X163706156Y-99516500D01*
X163445844Y-99516500D01*
X163190533Y-99567285D01*
X162950035Y-99666902D01*
X162733593Y-99811524D01*
X162549524Y-99995593D01*
X162404902Y-100212035D01*
X162306000Y-100450807D01*
X162207098Y-100212035D01*
X162062476Y-99995593D01*
X161878407Y-99811524D01*
X161661965Y-99666902D01*
X161421467Y-99567285D01*
X161166156Y-99516500D01*
X160905844Y-99516500D01*
X160650533Y-99567285D01*
X160410035Y-99666902D01*
X160193593Y-99811524D01*
X160009524Y-99995593D01*
X159864902Y-100212035D01*
X159766000Y-100450807D01*
X159667098Y-100212035D01*
X159522476Y-99995593D01*
X159338407Y-99811524D01*
X159121965Y-99666902D01*
X158881467Y-99567285D01*
X158626156Y-99516500D01*
X158365844Y-99516500D01*
X158110533Y-99567285D01*
X157870035Y-99666902D01*
X157653593Y-99811524D01*
X157469524Y-99995593D01*
X157324902Y-100212035D01*
X157226000Y-100450807D01*
X157127098Y-100212035D01*
X156982476Y-99995593D01*
X156798407Y-99811524D01*
X156581965Y-99666902D01*
X156341467Y-99567285D01*
X156086156Y-99516500D01*
X155825844Y-99516500D01*
X155570533Y-99567285D01*
X155330035Y-99666902D01*
X155113593Y-99811524D01*
X154929524Y-99995593D01*
X154784902Y-100212035D01*
X154686000Y-100450807D01*
X154587098Y-100212035D01*
X154442476Y-99995593D01*
X154258407Y-99811524D01*
X154041965Y-99666902D01*
X153801467Y-99567285D01*
X153546156Y-99516500D01*
X153285844Y-99516500D01*
X153030533Y-99567285D01*
X152790035Y-99666902D01*
X152573593Y-99811524D01*
X152389524Y-99995593D01*
X152244902Y-100212035D01*
X152145285Y-100452533D01*
X152094500Y-100707844D01*
X152094500Y-100865140D01*
X152041378Y-100849026D01*
X151929426Y-100838000D01*
X151929423Y-100838000D01*
X151892000Y-100834314D01*
X151854577Y-100838000D01*
X136459631Y-100838000D01*
X135890000Y-100268370D01*
X135890000Y-96329503D01*
X135921776Y-96252789D01*
X135935321Y-96184695D01*
X143192500Y-96184695D01*
X143192500Y-96347305D01*
X143224224Y-96506789D01*
X143286452Y-96657021D01*
X143376792Y-96792225D01*
X143491775Y-96907208D01*
X143626979Y-96997548D01*
X143777211Y-97059776D01*
X143936695Y-97091500D01*
X144099305Y-97091500D01*
X144258789Y-97059776D01*
X144335503Y-97028000D01*
X145988370Y-97028000D01*
X147008721Y-98048352D01*
X147032578Y-98077422D01*
X147148608Y-98172645D01*
X147280985Y-98243402D01*
X147424622Y-98286974D01*
X147536574Y-98298000D01*
X147536576Y-98298000D01*
X147573999Y-98301686D01*
X147611422Y-98298000D01*
X149288497Y-98298000D01*
X149365211Y-98329776D01*
X149524695Y-98361500D01*
X149687305Y-98361500D01*
X149846789Y-98329776D01*
X149997021Y-98267548D01*
X150132225Y-98177208D01*
X150247208Y-98062225D01*
X150337548Y-97927021D01*
X150399776Y-97776789D01*
X150431500Y-97617305D01*
X150431500Y-97454695D01*
X150399776Y-97295211D01*
X150337548Y-97144979D01*
X150247208Y-97009775D01*
X150132225Y-96894792D01*
X149997021Y-96804452D01*
X149846789Y-96742224D01*
X149687305Y-96710500D01*
X149524695Y-96710500D01*
X149365211Y-96742224D01*
X149288497Y-96774000D01*
X147889631Y-96774000D01*
X146869284Y-95753654D01*
X146845422Y-95724578D01*
X146729392Y-95629355D01*
X146597015Y-95558598D01*
X146453378Y-95515026D01*
X146341426Y-95504000D01*
X146341423Y-95504000D01*
X146304000Y-95500314D01*
X146266577Y-95504000D01*
X144335503Y-95504000D01*
X144258789Y-95472224D01*
X144099305Y-95440500D01*
X143936695Y-95440500D01*
X143777211Y-95472224D01*
X143626979Y-95534452D01*
X143491775Y-95624792D01*
X143376792Y-95739775D01*
X143286452Y-95874979D01*
X143224224Y-96025211D01*
X143192500Y-96184695D01*
X135935321Y-96184695D01*
X135953500Y-96093305D01*
X135953500Y-95930695D01*
X135921776Y-95771211D01*
X135862378Y-95627811D01*
X135871775Y-95637208D01*
X136006979Y-95727548D01*
X136157211Y-95789776D01*
X136316695Y-95821500D01*
X136479305Y-95821500D01*
X136638789Y-95789776D01*
X136789021Y-95727548D01*
X136924225Y-95637208D01*
X137039208Y-95522225D01*
X137129548Y-95387021D01*
X137191776Y-95236789D01*
X137223500Y-95077305D01*
X137223500Y-94914695D01*
X137191776Y-94755211D01*
X137129548Y-94604979D01*
X137039208Y-94469775D01*
X136924225Y-94354792D01*
X136789021Y-94264452D01*
X136712307Y-94232676D01*
X136574631Y-94095000D01*
X153915735Y-94095000D01*
X153915735Y-96095000D01*
X153926769Y-96207034D01*
X153959448Y-96314762D01*
X154012516Y-96414045D01*
X154083933Y-96501067D01*
X154170955Y-96572484D01*
X154270238Y-96625552D01*
X154377966Y-96658231D01*
X154490000Y-96669265D01*
X157690000Y-96669265D01*
X157802034Y-96658231D01*
X157909762Y-96625552D01*
X158009045Y-96572484D01*
X158096067Y-96501067D01*
X158167484Y-96414045D01*
X158220552Y-96314762D01*
X158253231Y-96207034D01*
X158264265Y-96095000D01*
X158264265Y-94095000D01*
X158253231Y-93982966D01*
X158220552Y-93875238D01*
X158167484Y-93775955D01*
X158096067Y-93688933D01*
X158009045Y-93617516D01*
X157909762Y-93564448D01*
X157802034Y-93531769D01*
X157690000Y-93520735D01*
X154490000Y-93520735D01*
X154377966Y-93531769D01*
X154270238Y-93564448D01*
X154170955Y-93617516D01*
X154083933Y-93688933D01*
X154012516Y-93775955D01*
X153959448Y-93875238D01*
X153926769Y-93982966D01*
X153915735Y-94095000D01*
X136574631Y-94095000D01*
X135890000Y-93410370D01*
X135890000Y-91501630D01*
X135894347Y-91497283D01*
X135923422Y-91473422D01*
X136018645Y-91357392D01*
X136089402Y-91225015D01*
X136132974Y-91081378D01*
X136144000Y-90969426D01*
X136144000Y-90969424D01*
X136147686Y-90932001D01*
X136144000Y-90894578D01*
X136144000Y-89663958D01*
X136148347Y-89659611D01*
X136177422Y-89635750D01*
X136272645Y-89519720D01*
X136343402Y-89387343D01*
X136386974Y-89243706D01*
X136398000Y-89131754D01*
X136398000Y-89131752D01*
X136401686Y-89094329D01*
X136398000Y-89056906D01*
X136398000Y-84643630D01*
X137040640Y-84000990D01*
X140473379Y-84000990D01*
X139695654Y-84778716D01*
G37*
%TD.AperFunction*%
D18*
X145791649Y-71316721D02*
X145762579Y-71340578D01*
X145738722Y-71369648D01*
X145738721Y-71369649D01*
X145667355Y-71456608D01*
X145596599Y-71588985D01*
X145553027Y-71732622D01*
X145538314Y-71882000D01*
X145542001Y-71919433D01*
X145542000Y-81726369D01*
X145226370Y-82042000D01*
X141261423Y-82042000D01*
X141224000Y-82038314D01*
X141186577Y-82042000D01*
X141186574Y-82042000D01*
X141074622Y-82053026D01*
X140930985Y-82096598D01*
X140914331Y-82105500D01*
X140798607Y-82167355D01*
X140756219Y-82202143D01*
X140682578Y-82262578D01*
X140658716Y-82291654D01*
X140473380Y-82476990D01*
X136762433Y-82476990D01*
X136725010Y-82473304D01*
X136687587Y-82476990D01*
X136687584Y-82476990D01*
X136575632Y-82488016D01*
X136431995Y-82531588D01*
X136418177Y-82538974D01*
X136299617Y-82602345D01*
X136257229Y-82637133D01*
X136183588Y-82697568D01*
X136159726Y-82726644D01*
X135123649Y-83762721D01*
X135094579Y-83786578D01*
X135070722Y-83815648D01*
X135070721Y-83815649D01*
X134999355Y-83902608D01*
X134928599Y-84034985D01*
X134885027Y-84178622D01*
X134870314Y-84328000D01*
X134874001Y-84365433D01*
X134874000Y-88778698D01*
X134869649Y-88783049D01*
X134840579Y-88806906D01*
X134816722Y-88835976D01*
X134816721Y-88835977D01*
X134745355Y-88922936D01*
X134674599Y-89055313D01*
X134631027Y-89198950D01*
X134616314Y-89348328D01*
X134620001Y-89385761D01*
X134620000Y-90616370D01*
X134615649Y-90620721D01*
X134596500Y-90636436D01*
X134596500Y-73029302D01*
X134599386Y-73000000D01*
X134596500Y-72970698D01*
X134596500Y-70596500D01*
X146511869Y-70596500D01*
X145791649Y-71316721D01*
%TA.AperFunction,Conductor*%
D21*
G36*
X145791649Y-71316721D02*
G01*
X145762579Y-71340578D01*
X145738722Y-71369648D01*
X145738721Y-71369649D01*
X145667355Y-71456608D01*
X145596599Y-71588985D01*
X145553027Y-71732622D01*
X145538314Y-71882000D01*
X145542001Y-71919433D01*
X145542000Y-81726369D01*
X145226370Y-82042000D01*
X141261423Y-82042000D01*
X141224000Y-82038314D01*
X141186577Y-82042000D01*
X141186574Y-82042000D01*
X141074622Y-82053026D01*
X140930985Y-82096598D01*
X140914331Y-82105500D01*
X140798607Y-82167355D01*
X140756219Y-82202143D01*
X140682578Y-82262578D01*
X140658716Y-82291654D01*
X140473380Y-82476990D01*
X136762433Y-82476990D01*
X136725010Y-82473304D01*
X136687587Y-82476990D01*
X136687584Y-82476990D01*
X136575632Y-82488016D01*
X136431995Y-82531588D01*
X136418177Y-82538974D01*
X136299617Y-82602345D01*
X136257229Y-82637133D01*
X136183588Y-82697568D01*
X136159726Y-82726644D01*
X135123649Y-83762721D01*
X135094579Y-83786578D01*
X135070722Y-83815648D01*
X135070721Y-83815649D01*
X134999355Y-83902608D01*
X134928599Y-84034985D01*
X134885027Y-84178622D01*
X134870314Y-84328000D01*
X134874001Y-84365433D01*
X134874000Y-88778698D01*
X134869649Y-88783049D01*
X134840579Y-88806906D01*
X134816722Y-88835976D01*
X134816721Y-88835977D01*
X134745355Y-88922936D01*
X134674599Y-89055313D01*
X134631027Y-89198950D01*
X134616314Y-89348328D01*
X134620001Y-89385761D01*
X134620000Y-90616370D01*
X134615649Y-90620721D01*
X134596500Y-90636436D01*
X134596500Y-73029302D01*
X134599386Y-73000000D01*
X134596500Y-72970698D01*
X134596500Y-70596500D01*
X146511869Y-70596500D01*
X145791649Y-71316721D01*
G37*
%TD.AperFunction*%
%TD*%
M02*
