%TF.GenerationSoftware,KiCad,Pcbnew,(5.1.8)-1*%
%TF.CreationDate,2021-03-12T13:42:17+01:00*%
%TF.ProjectId,AP,41502e6b-6963-4616-945f-706362585858,rev?*%
%TF.SameCoordinates,Original*%
%TF.FileFunction,Other,Fab,Top*%
%FSLAX46Y46*%
G04 Gerber Fmt 4.6, Leading zero omitted, Abs format (unit mm)*
G04 Created by KiCad (PCBNEW (5.1.8)-1) date 2021-03-12 13:42:17*
%MOMM*%
%LPD*%
G01*
G04 APERTURE LIST*
%ADD10C,0.120000*%
%ADD11C,0.100000*%
%ADD12C,0.063500*%
%ADD13C,0.150000*%
G04 APERTURE END LIST*
D10*
%TO.C,Nastaven1*%
X159090000Y-89495000D02*
G75*
G03*
X159090000Y-89495000I-3000000J0D01*
G01*
X151090000Y-83695000D02*
X162090000Y-83695000D01*
X162090000Y-83695000D02*
X162090000Y-95295000D01*
X162090000Y-95295000D02*
X150090000Y-95295000D01*
X150090000Y-95295000D02*
X150090000Y-84795000D01*
X150090000Y-84795000D02*
X151090000Y-83695000D01*
X156090000Y-86495000D02*
X156090000Y-92495000D01*
X153090000Y-89495000D02*
X159090000Y-89495000D01*
D11*
%TO.C,Displej1*%
X165116000Y-98958000D02*
X134616000Y-98958000D01*
X134616000Y-98958000D02*
X134616000Y-117958000D01*
X184916000Y-117958000D02*
X134616000Y-117958000D01*
X184916000Y-98958000D02*
X184916000Y-117958000D01*
X167116000Y-98958000D02*
X184916000Y-98958000D01*
X166116000Y-99958000D02*
X167116000Y-98958000D01*
X165116000Y-98958000D02*
X166116000Y-99958000D01*
%TO.C,bzu\u010D\u00E1k1*%
X174990000Y-90180000D02*
G75*
G03*
X174990000Y-90180000I-1000000J0D01*
G01*
X179990000Y-90180000D02*
G75*
G03*
X179990000Y-90180000I-6000000J0D01*
G01*
%TD*%
%TO.C,RTC1*%
D12*
X164495238Y-76937809D02*
X164495238Y-76429809D01*
X164616190Y-76429809D01*
X164688761Y-76454000D01*
X164737142Y-76502380D01*
X164761333Y-76550761D01*
X164785523Y-76647523D01*
X164785523Y-76720095D01*
X164761333Y-76816857D01*
X164737142Y-76865238D01*
X164688761Y-76913619D01*
X164616190Y-76937809D01*
X164495238Y-76937809D01*
X164979047Y-76913619D02*
X165051619Y-76937809D01*
X165172571Y-76937809D01*
X165220952Y-76913619D01*
X165245142Y-76889428D01*
X165269333Y-76841047D01*
X165269333Y-76792666D01*
X165245142Y-76744285D01*
X165220952Y-76720095D01*
X165172571Y-76695904D01*
X165075809Y-76671714D01*
X165027428Y-76647523D01*
X165003238Y-76623333D01*
X164979047Y-76574952D01*
X164979047Y-76526571D01*
X165003238Y-76478190D01*
X165027428Y-76454000D01*
X165075809Y-76429809D01*
X165196761Y-76429809D01*
X165269333Y-76454000D01*
X165438666Y-76429809D02*
X165753142Y-76429809D01*
X165583809Y-76623333D01*
X165656380Y-76623333D01*
X165704761Y-76647523D01*
X165728952Y-76671714D01*
X165753142Y-76720095D01*
X165753142Y-76841047D01*
X165728952Y-76889428D01*
X165704761Y-76913619D01*
X165656380Y-76937809D01*
X165511238Y-76937809D01*
X165462857Y-76913619D01*
X165438666Y-76889428D01*
X165946666Y-76478190D02*
X165970857Y-76454000D01*
X166019238Y-76429809D01*
X166140190Y-76429809D01*
X166188571Y-76454000D01*
X166212761Y-76478190D01*
X166236952Y-76526571D01*
X166236952Y-76574952D01*
X166212761Y-76647523D01*
X165922476Y-76937809D01*
X166236952Y-76937809D01*
X166406285Y-76429809D02*
X166720761Y-76429809D01*
X166551428Y-76623333D01*
X166624000Y-76623333D01*
X166672380Y-76647523D01*
X166696571Y-76671714D01*
X166720761Y-76720095D01*
X166720761Y-76841047D01*
X166696571Y-76889428D01*
X166672380Y-76913619D01*
X166624000Y-76937809D01*
X166478857Y-76937809D01*
X166430476Y-76913619D01*
X166406285Y-76889428D01*
X167204571Y-76937809D02*
X166914285Y-76937809D01*
X167059428Y-76937809D02*
X167059428Y-76429809D01*
X167011047Y-76502380D01*
X166962666Y-76550761D01*
X166914285Y-76574952D01*
X167422285Y-76937809D02*
X167422285Y-76429809D01*
X167591619Y-76792666D01*
X167760952Y-76429809D01*
X167760952Y-76937809D01*
X167954476Y-76429809D02*
X168293142Y-76429809D01*
X167954476Y-76937809D01*
X168293142Y-76937809D01*
X170409809Y-76937809D02*
X170240476Y-76695904D01*
X170119523Y-76937809D02*
X170119523Y-76429809D01*
X170313047Y-76429809D01*
X170361428Y-76454000D01*
X170385619Y-76478190D01*
X170409809Y-76526571D01*
X170409809Y-76599142D01*
X170385619Y-76647523D01*
X170361428Y-76671714D01*
X170313047Y-76695904D01*
X170119523Y-76695904D01*
X170554952Y-76429809D02*
X170845238Y-76429809D01*
X170700095Y-76937809D02*
X170700095Y-76429809D01*
X171304857Y-76889428D02*
X171280666Y-76913619D01*
X171208095Y-76937809D01*
X171159714Y-76937809D01*
X171087142Y-76913619D01*
X171038761Y-76865238D01*
X171014571Y-76816857D01*
X170990380Y-76720095D01*
X170990380Y-76647523D01*
X171014571Y-76550761D01*
X171038761Y-76502380D01*
X171087142Y-76454000D01*
X171159714Y-76429809D01*
X171208095Y-76429809D01*
X171280666Y-76454000D01*
X171304857Y-76478190D01*
X171788666Y-76937809D02*
X171498380Y-76937809D01*
X171643523Y-76937809D02*
X171643523Y-76429809D01*
X171595142Y-76502380D01*
X171546761Y-76550761D01*
X171498380Y-76574952D01*
%TO.C,RI2c2*%
X160939238Y-78631142D02*
X160939238Y-78969809D01*
X160818285Y-78437619D02*
X160697333Y-78800476D01*
X161011809Y-78800476D01*
X161205333Y-78969809D02*
X161205333Y-78461809D01*
X161253714Y-78776285D02*
X161398857Y-78969809D01*
X161398857Y-78631142D02*
X161205333Y-78824666D01*
X161568190Y-78461809D02*
X161906857Y-78461809D01*
X161689142Y-78969809D01*
%TO.C,RI2c1*%
X150525238Y-78631142D02*
X150525238Y-78969809D01*
X150404285Y-78437619D02*
X150283333Y-78800476D01*
X150597809Y-78800476D01*
X150791333Y-78969809D02*
X150791333Y-78461809D01*
X150839714Y-78776285D02*
X150984857Y-78969809D01*
X150984857Y-78631142D02*
X150791333Y-78824666D01*
X151154190Y-78461809D02*
X151492857Y-78461809D01*
X151275142Y-78969809D01*
%TO.C,Rec3*%
X150017238Y-72111809D02*
X149726952Y-72111809D01*
X149872095Y-72111809D02*
X149872095Y-71603809D01*
X149823714Y-71676380D01*
X149775333Y-71724761D01*
X149726952Y-71748952D01*
X150331714Y-71603809D02*
X150380095Y-71603809D01*
X150428476Y-71628000D01*
X150452666Y-71652190D01*
X150476857Y-71700571D01*
X150501047Y-71797333D01*
X150501047Y-71918285D01*
X150476857Y-72015047D01*
X150452666Y-72063428D01*
X150428476Y-72087619D01*
X150380095Y-72111809D01*
X150331714Y-72111809D01*
X150283333Y-72087619D01*
X150259142Y-72063428D01*
X150234952Y-72015047D01*
X150210761Y-71918285D01*
X150210761Y-71797333D01*
X150234952Y-71700571D01*
X150259142Y-71652190D01*
X150283333Y-71628000D01*
X150331714Y-71603809D01*
X150718761Y-72111809D02*
X150718761Y-71603809D01*
X151009047Y-72111809D02*
X150791333Y-71821523D01*
X151009047Y-71603809D02*
X150718761Y-71894095D01*
%TO.C,Rec2*%
X144937238Y-97765809D02*
X144646952Y-97765809D01*
X144792095Y-97765809D02*
X144792095Y-97257809D01*
X144743714Y-97330380D01*
X144695333Y-97378761D01*
X144646952Y-97402952D01*
X145251714Y-97257809D02*
X145300095Y-97257809D01*
X145348476Y-97282000D01*
X145372666Y-97306190D01*
X145396857Y-97354571D01*
X145421047Y-97451333D01*
X145421047Y-97572285D01*
X145396857Y-97669047D01*
X145372666Y-97717428D01*
X145348476Y-97741619D01*
X145300095Y-97765809D01*
X145251714Y-97765809D01*
X145203333Y-97741619D01*
X145179142Y-97717428D01*
X145154952Y-97669047D01*
X145130761Y-97572285D01*
X145130761Y-97451333D01*
X145154952Y-97354571D01*
X145179142Y-97306190D01*
X145203333Y-97282000D01*
X145251714Y-97257809D01*
X145638761Y-97765809D02*
X145638761Y-97257809D01*
X145929047Y-97765809D02*
X145711333Y-97475523D01*
X145929047Y-97257809D02*
X145638761Y-97548095D01*
%TO.C,Rec1*%
X150525238Y-77699809D02*
X150234952Y-77699809D01*
X150380095Y-77699809D02*
X150380095Y-77191809D01*
X150331714Y-77264380D01*
X150283333Y-77312761D01*
X150234952Y-77336952D01*
X150839714Y-77191809D02*
X150888095Y-77191809D01*
X150936476Y-77216000D01*
X150960666Y-77240190D01*
X150984857Y-77288571D01*
X151009047Y-77385333D01*
X151009047Y-77506285D01*
X150984857Y-77603047D01*
X150960666Y-77651428D01*
X150936476Y-77675619D01*
X150888095Y-77699809D01*
X150839714Y-77699809D01*
X150791333Y-77675619D01*
X150767142Y-77651428D01*
X150742952Y-77603047D01*
X150718761Y-77506285D01*
X150718761Y-77385333D01*
X150742952Y-77288571D01*
X150767142Y-77240190D01*
X150791333Y-77216000D01*
X150839714Y-77191809D01*
X151226761Y-77699809D02*
X151226761Y-77191809D01*
X151517047Y-77699809D02*
X151299333Y-77409523D01*
X151517047Y-77191809D02*
X151226761Y-77482095D01*
%TO.C,R4*%
X146945047Y-103910190D02*
X146969238Y-103886000D01*
X147017619Y-103861809D01*
X147138571Y-103861809D01*
X147186952Y-103886000D01*
X147211142Y-103910190D01*
X147235333Y-103958571D01*
X147235333Y-104006952D01*
X147211142Y-104079523D01*
X146920857Y-104369809D01*
X147235333Y-104369809D01*
X147428857Y-103910190D02*
X147453047Y-103886000D01*
X147501428Y-103861809D01*
X147622380Y-103861809D01*
X147670761Y-103886000D01*
X147694952Y-103910190D01*
X147719142Y-103958571D01*
X147719142Y-104006952D01*
X147694952Y-104079523D01*
X147404666Y-104369809D01*
X147719142Y-104369809D01*
X148033619Y-103861809D02*
X148082000Y-103861809D01*
X148130380Y-103886000D01*
X148154571Y-103910190D01*
X148178761Y-103958571D01*
X148202952Y-104055333D01*
X148202952Y-104176285D01*
X148178761Y-104273047D01*
X148154571Y-104321428D01*
X148130380Y-104345619D01*
X148082000Y-104369809D01*
X148033619Y-104369809D01*
X147985238Y-104345619D01*
X147961047Y-104321428D01*
X147936857Y-104273047D01*
X147912666Y-104176285D01*
X147912666Y-104055333D01*
X147936857Y-103958571D01*
X147961047Y-103910190D01*
X147985238Y-103886000D01*
X148033619Y-103861809D01*
%TO.C,R3*%
X146945047Y-106958190D02*
X146969238Y-106934000D01*
X147017619Y-106909809D01*
X147138571Y-106909809D01*
X147186952Y-106934000D01*
X147211142Y-106958190D01*
X147235333Y-107006571D01*
X147235333Y-107054952D01*
X147211142Y-107127523D01*
X146920857Y-107417809D01*
X147235333Y-107417809D01*
X147428857Y-106958190D02*
X147453047Y-106934000D01*
X147501428Y-106909809D01*
X147622380Y-106909809D01*
X147670761Y-106934000D01*
X147694952Y-106958190D01*
X147719142Y-107006571D01*
X147719142Y-107054952D01*
X147694952Y-107127523D01*
X147404666Y-107417809D01*
X147719142Y-107417809D01*
X148033619Y-106909809D02*
X148082000Y-106909809D01*
X148130380Y-106934000D01*
X148154571Y-106958190D01*
X148178761Y-107006571D01*
X148202952Y-107103333D01*
X148202952Y-107224285D01*
X148178761Y-107321047D01*
X148154571Y-107369428D01*
X148130380Y-107393619D01*
X148082000Y-107417809D01*
X148033619Y-107417809D01*
X147985238Y-107393619D01*
X147961047Y-107369428D01*
X147936857Y-107321047D01*
X147912666Y-107224285D01*
X147912666Y-107103333D01*
X147936857Y-107006571D01*
X147961047Y-106958190D01*
X147985238Y-106934000D01*
X148033619Y-106909809D01*
%TO.C,R2*%
X145929047Y-109752190D02*
X145953238Y-109728000D01*
X146001619Y-109703809D01*
X146122571Y-109703809D01*
X146170952Y-109728000D01*
X146195142Y-109752190D01*
X146219333Y-109800571D01*
X146219333Y-109848952D01*
X146195142Y-109921523D01*
X145904857Y-110211809D01*
X146219333Y-110211809D01*
X146412857Y-109752190D02*
X146437047Y-109728000D01*
X146485428Y-109703809D01*
X146606380Y-109703809D01*
X146654761Y-109728000D01*
X146678952Y-109752190D01*
X146703142Y-109800571D01*
X146703142Y-109848952D01*
X146678952Y-109921523D01*
X146388666Y-110211809D01*
X146703142Y-110211809D01*
X147017619Y-109703809D02*
X147066000Y-109703809D01*
X147114380Y-109728000D01*
X147138571Y-109752190D01*
X147162761Y-109800571D01*
X147186952Y-109897333D01*
X147186952Y-110018285D01*
X147162761Y-110115047D01*
X147138571Y-110163428D01*
X147114380Y-110187619D01*
X147066000Y-110211809D01*
X147017619Y-110211809D01*
X146969238Y-110187619D01*
X146945047Y-110163428D01*
X146920857Y-110115047D01*
X146896666Y-110018285D01*
X146896666Y-109897333D01*
X146920857Y-109800571D01*
X146945047Y-109752190D01*
X146969238Y-109728000D01*
X147017619Y-109703809D01*
%TO.C,R1*%
X157250190Y-104006952D02*
X157226000Y-103982761D01*
X157201809Y-103934380D01*
X157201809Y-103813428D01*
X157226000Y-103765047D01*
X157250190Y-103740857D01*
X157298571Y-103716666D01*
X157346952Y-103716666D01*
X157419523Y-103740857D01*
X157709809Y-104031142D01*
X157709809Y-103716666D01*
X157250190Y-103523142D02*
X157226000Y-103498952D01*
X157201809Y-103450571D01*
X157201809Y-103329619D01*
X157226000Y-103281238D01*
X157250190Y-103257047D01*
X157298571Y-103232857D01*
X157346952Y-103232857D01*
X157419523Y-103257047D01*
X157709809Y-103547333D01*
X157709809Y-103232857D01*
X157201809Y-102918380D02*
X157201809Y-102870000D01*
X157226000Y-102821619D01*
X157250190Y-102797428D01*
X157298571Y-102773238D01*
X157395333Y-102749047D01*
X157516285Y-102749047D01*
X157613047Y-102773238D01*
X157661428Y-102797428D01*
X157685619Y-102821619D01*
X157709809Y-102870000D01*
X157709809Y-102918380D01*
X157685619Y-102966761D01*
X157661428Y-102990952D01*
X157613047Y-103015142D01*
X157516285Y-103039333D01*
X157395333Y-103039333D01*
X157298571Y-103015142D01*
X157250190Y-102990952D01*
X157226000Y-102966761D01*
X157201809Y-102918380D01*
%TO.C,Nastaven1*%
X150501047Y-91585142D02*
X150501047Y-91923809D01*
X150501047Y-91633523D02*
X150525238Y-91609333D01*
X150573619Y-91585142D01*
X150646190Y-91585142D01*
X150694571Y-91609333D01*
X150718761Y-91657714D01*
X150718761Y-91923809D01*
X151178380Y-91923809D02*
X151178380Y-91657714D01*
X151154190Y-91609333D01*
X151105809Y-91585142D01*
X151009047Y-91585142D01*
X150960666Y-91609333D01*
X151178380Y-91899619D02*
X151130000Y-91923809D01*
X151009047Y-91923809D01*
X150960666Y-91899619D01*
X150936476Y-91851238D01*
X150936476Y-91802857D01*
X150960666Y-91754476D01*
X151009047Y-91730285D01*
X151130000Y-91730285D01*
X151178380Y-91706095D01*
X151396095Y-91899619D02*
X151444476Y-91923809D01*
X151541238Y-91923809D01*
X151589619Y-91899619D01*
X151613809Y-91851238D01*
X151613809Y-91827047D01*
X151589619Y-91778666D01*
X151541238Y-91754476D01*
X151468666Y-91754476D01*
X151420285Y-91730285D01*
X151396095Y-91681904D01*
X151396095Y-91657714D01*
X151420285Y-91609333D01*
X151468666Y-91585142D01*
X151541238Y-91585142D01*
X151589619Y-91609333D01*
X151758952Y-91585142D02*
X151952476Y-91585142D01*
X151831523Y-91415809D02*
X151831523Y-91851238D01*
X151855714Y-91899619D01*
X151904095Y-91923809D01*
X151952476Y-91923809D01*
X152339523Y-91923809D02*
X152339523Y-91657714D01*
X152315333Y-91609333D01*
X152266952Y-91585142D01*
X152170190Y-91585142D01*
X152121809Y-91609333D01*
X152339523Y-91899619D02*
X152291142Y-91923809D01*
X152170190Y-91923809D01*
X152121809Y-91899619D01*
X152097619Y-91851238D01*
X152097619Y-91802857D01*
X152121809Y-91754476D01*
X152170190Y-91730285D01*
X152291142Y-91730285D01*
X152339523Y-91706095D01*
X152533047Y-91585142D02*
X152654000Y-91923809D01*
X152774952Y-91585142D01*
X153162000Y-91899619D02*
X153113619Y-91923809D01*
X153016857Y-91923809D01*
X152968476Y-91899619D01*
X152944285Y-91851238D01*
X152944285Y-91657714D01*
X152968476Y-91609333D01*
X153016857Y-91585142D01*
X153113619Y-91585142D01*
X153162000Y-91609333D01*
X153186190Y-91657714D01*
X153186190Y-91706095D01*
X152944285Y-91754476D01*
X153403904Y-91585142D02*
X153403904Y-91923809D01*
X153403904Y-91633523D02*
X153428095Y-91609333D01*
X153476476Y-91585142D01*
X153549047Y-91585142D01*
X153597428Y-91609333D01*
X153621619Y-91657714D01*
X153621619Y-91923809D01*
X153863523Y-91923809D02*
X153863523Y-91585142D01*
X153911904Y-91391619D02*
X153839333Y-91464190D01*
X154492476Y-91923809D02*
X154492476Y-91415809D01*
X154710190Y-91923809D02*
X154710190Y-91657714D01*
X154686000Y-91609333D01*
X154637619Y-91585142D01*
X154565047Y-91585142D01*
X154516666Y-91609333D01*
X154492476Y-91633523D01*
X155024666Y-91923809D02*
X154976285Y-91899619D01*
X154952095Y-91875428D01*
X154927904Y-91827047D01*
X154927904Y-91681904D01*
X154952095Y-91633523D01*
X154976285Y-91609333D01*
X155024666Y-91585142D01*
X155097238Y-91585142D01*
X155145619Y-91609333D01*
X155169809Y-91633523D01*
X155194000Y-91681904D01*
X155194000Y-91827047D01*
X155169809Y-91875428D01*
X155145619Y-91899619D01*
X155097238Y-91923809D01*
X155024666Y-91923809D01*
X155629428Y-91923809D02*
X155629428Y-91415809D01*
X155629428Y-91899619D02*
X155581047Y-91923809D01*
X155484285Y-91923809D01*
X155435904Y-91899619D01*
X155411714Y-91875428D01*
X155387523Y-91827047D01*
X155387523Y-91681904D01*
X155411714Y-91633523D01*
X155435904Y-91609333D01*
X155484285Y-91585142D01*
X155581047Y-91585142D01*
X155629428Y-91609333D01*
X155871333Y-91923809D02*
X155871333Y-91585142D01*
X155871333Y-91415809D02*
X155847142Y-91440000D01*
X155871333Y-91464190D01*
X155895523Y-91440000D01*
X155871333Y-91415809D01*
X155871333Y-91464190D01*
X156113238Y-91585142D02*
X156113238Y-91923809D01*
X156113238Y-91633523D02*
X156137428Y-91609333D01*
X156185809Y-91585142D01*
X156258380Y-91585142D01*
X156306761Y-91609333D01*
X156330952Y-91657714D01*
X156330952Y-91923809D01*
X161265809Y-88452476D02*
X160757809Y-88452476D01*
X161265809Y-88162190D01*
X160757809Y-88162190D01*
X161265809Y-87702571D02*
X160999714Y-87702571D01*
X160951333Y-87726761D01*
X160927142Y-87775142D01*
X160927142Y-87871904D01*
X160951333Y-87920285D01*
X161241619Y-87702571D02*
X161265809Y-87750952D01*
X161265809Y-87871904D01*
X161241619Y-87920285D01*
X161193238Y-87944476D01*
X161144857Y-87944476D01*
X161096476Y-87920285D01*
X161072285Y-87871904D01*
X161072285Y-87750952D01*
X161048095Y-87702571D01*
X161241619Y-87484857D02*
X161265809Y-87436476D01*
X161265809Y-87339714D01*
X161241619Y-87291333D01*
X161193238Y-87267142D01*
X161169047Y-87267142D01*
X161120666Y-87291333D01*
X161096476Y-87339714D01*
X161096476Y-87412285D01*
X161072285Y-87460666D01*
X161023904Y-87484857D01*
X160999714Y-87484857D01*
X160951333Y-87460666D01*
X160927142Y-87412285D01*
X160927142Y-87339714D01*
X160951333Y-87291333D01*
X160927142Y-87122000D02*
X160927142Y-86928476D01*
X160757809Y-87049428D02*
X161193238Y-87049428D01*
X161241619Y-87025238D01*
X161265809Y-86976857D01*
X161265809Y-86928476D01*
X161265809Y-86541428D02*
X160999714Y-86541428D01*
X160951333Y-86565619D01*
X160927142Y-86614000D01*
X160927142Y-86710761D01*
X160951333Y-86759142D01*
X161241619Y-86541428D02*
X161265809Y-86589809D01*
X161265809Y-86710761D01*
X161241619Y-86759142D01*
X161193238Y-86783333D01*
X161144857Y-86783333D01*
X161096476Y-86759142D01*
X161072285Y-86710761D01*
X161072285Y-86589809D01*
X161048095Y-86541428D01*
X160927142Y-86347904D02*
X161265809Y-86226952D01*
X160927142Y-86106000D01*
X161241619Y-85718952D02*
X161265809Y-85767333D01*
X161265809Y-85864095D01*
X161241619Y-85912476D01*
X161193238Y-85936666D01*
X160999714Y-85936666D01*
X160951333Y-85912476D01*
X160927142Y-85864095D01*
X160927142Y-85767333D01*
X160951333Y-85718952D01*
X160999714Y-85694761D01*
X161048095Y-85694761D01*
X161096476Y-85936666D01*
X160927142Y-85477047D02*
X161265809Y-85477047D01*
X160975523Y-85477047D02*
X160951333Y-85452857D01*
X160927142Y-85404476D01*
X160927142Y-85331904D01*
X160951333Y-85283523D01*
X160999714Y-85259333D01*
X161265809Y-85259333D01*
X161265809Y-84751333D02*
X161265809Y-85041619D01*
X161265809Y-84896476D02*
X160757809Y-84896476D01*
X160830380Y-84944857D01*
X160878761Y-84993238D01*
X160902952Y-85041619D01*
%TO.C,Displej1*%
X154250571Y-99543809D02*
X154250571Y-99035809D01*
X154371523Y-99035809D01*
X154444095Y-99060000D01*
X154492476Y-99108380D01*
X154516666Y-99156761D01*
X154540857Y-99253523D01*
X154540857Y-99326095D01*
X154516666Y-99422857D01*
X154492476Y-99471238D01*
X154444095Y-99519619D01*
X154371523Y-99543809D01*
X154250571Y-99543809D01*
X154758571Y-99543809D02*
X154758571Y-99205142D01*
X154758571Y-99035809D02*
X154734380Y-99060000D01*
X154758571Y-99084190D01*
X154782761Y-99060000D01*
X154758571Y-99035809D01*
X154758571Y-99084190D01*
X154976285Y-99519619D02*
X155024666Y-99543809D01*
X155121428Y-99543809D01*
X155169809Y-99519619D01*
X155194000Y-99471238D01*
X155194000Y-99447047D01*
X155169809Y-99398666D01*
X155121428Y-99374476D01*
X155048857Y-99374476D01*
X155000476Y-99350285D01*
X154976285Y-99301904D01*
X154976285Y-99277714D01*
X155000476Y-99229333D01*
X155048857Y-99205142D01*
X155121428Y-99205142D01*
X155169809Y-99229333D01*
X155411714Y-99205142D02*
X155411714Y-99713142D01*
X155411714Y-99229333D02*
X155460095Y-99205142D01*
X155556857Y-99205142D01*
X155605238Y-99229333D01*
X155629428Y-99253523D01*
X155653619Y-99301904D01*
X155653619Y-99447047D01*
X155629428Y-99495428D01*
X155605238Y-99519619D01*
X155556857Y-99543809D01*
X155460095Y-99543809D01*
X155411714Y-99519619D01*
X158362952Y-117577809D02*
X158362952Y-117069809D01*
X158483904Y-117069809D01*
X158556476Y-117094000D01*
X158604857Y-117142380D01*
X158629047Y-117190761D01*
X158653238Y-117287523D01*
X158653238Y-117360095D01*
X158629047Y-117456857D01*
X158604857Y-117505238D01*
X158556476Y-117553619D01*
X158483904Y-117577809D01*
X158362952Y-117577809D01*
X158870952Y-117577809D02*
X158870952Y-117239142D01*
X158870952Y-117069809D02*
X158846761Y-117094000D01*
X158870952Y-117118190D01*
X158895142Y-117094000D01*
X158870952Y-117069809D01*
X158870952Y-117118190D01*
X159088666Y-117553619D02*
X159137047Y-117577809D01*
X159233809Y-117577809D01*
X159282190Y-117553619D01*
X159306380Y-117505238D01*
X159306380Y-117481047D01*
X159282190Y-117432666D01*
X159233809Y-117408476D01*
X159161238Y-117408476D01*
X159112857Y-117384285D01*
X159088666Y-117335904D01*
X159088666Y-117311714D01*
X159112857Y-117263333D01*
X159161238Y-117239142D01*
X159233809Y-117239142D01*
X159282190Y-117263333D01*
X159524095Y-117239142D02*
X159524095Y-117747142D01*
X159524095Y-117263333D02*
X159572476Y-117239142D01*
X159669238Y-117239142D01*
X159717619Y-117263333D01*
X159741809Y-117287523D01*
X159766000Y-117335904D01*
X159766000Y-117481047D01*
X159741809Y-117529428D01*
X159717619Y-117553619D01*
X159669238Y-117577809D01*
X159572476Y-117577809D01*
X159524095Y-117553619D01*
X160056285Y-117577809D02*
X160007904Y-117553619D01*
X159983714Y-117505238D01*
X159983714Y-117069809D01*
X160443333Y-117553619D02*
X160394952Y-117577809D01*
X160298190Y-117577809D01*
X160249809Y-117553619D01*
X160225619Y-117505238D01*
X160225619Y-117311714D01*
X160249809Y-117263333D01*
X160298190Y-117239142D01*
X160394952Y-117239142D01*
X160443333Y-117263333D01*
X160467523Y-117311714D01*
X160467523Y-117360095D01*
X160225619Y-117408476D01*
X160685238Y-117239142D02*
X160685238Y-117674571D01*
X160661047Y-117722952D01*
X160612666Y-117747142D01*
X160588476Y-117747142D01*
X160685238Y-117069809D02*
X160661047Y-117094000D01*
X160685238Y-117118190D01*
X160709428Y-117094000D01*
X160685238Y-117069809D01*
X160685238Y-117118190D01*
X161193238Y-117577809D02*
X160902952Y-117577809D01*
X161048095Y-117577809D02*
X161048095Y-117069809D01*
X160999714Y-117142380D01*
X160951333Y-117190761D01*
X160902952Y-117214952D01*
%TO.C,Dioda1*%
X150343809Y-120819333D02*
X149835809Y-120819333D01*
X149835809Y-120698380D01*
X149860000Y-120625809D01*
X149908380Y-120577428D01*
X149956761Y-120553238D01*
X150053523Y-120529047D01*
X150126095Y-120529047D01*
X150222857Y-120553238D01*
X150271238Y-120577428D01*
X150319619Y-120625809D01*
X150343809Y-120698380D01*
X150343809Y-120819333D01*
X150343809Y-120311333D02*
X150005142Y-120311333D01*
X149835809Y-120311333D02*
X149860000Y-120335523D01*
X149884190Y-120311333D01*
X149860000Y-120287142D01*
X149835809Y-120311333D01*
X149884190Y-120311333D01*
X150343809Y-119996857D02*
X150319619Y-120045238D01*
X150295428Y-120069428D01*
X150247047Y-120093619D01*
X150101904Y-120093619D01*
X150053523Y-120069428D01*
X150029333Y-120045238D01*
X150005142Y-119996857D01*
X150005142Y-119924285D01*
X150029333Y-119875904D01*
X150053523Y-119851714D01*
X150101904Y-119827523D01*
X150247047Y-119827523D01*
X150295428Y-119851714D01*
X150319619Y-119875904D01*
X150343809Y-119924285D01*
X150343809Y-119996857D01*
X150343809Y-119392095D02*
X149835809Y-119392095D01*
X150319619Y-119392095D02*
X150343809Y-119440476D01*
X150343809Y-119537238D01*
X150319619Y-119585619D01*
X150295428Y-119609809D01*
X150247047Y-119634000D01*
X150101904Y-119634000D01*
X150053523Y-119609809D01*
X150029333Y-119585619D01*
X150005142Y-119537238D01*
X150005142Y-119440476D01*
X150029333Y-119392095D01*
X150343809Y-118932476D02*
X150077714Y-118932476D01*
X150029333Y-118956666D01*
X150005142Y-119005047D01*
X150005142Y-119101809D01*
X150029333Y-119150190D01*
X150319619Y-118932476D02*
X150343809Y-118980857D01*
X150343809Y-119101809D01*
X150319619Y-119150190D01*
X150271238Y-119174380D01*
X150222857Y-119174380D01*
X150174476Y-119150190D01*
X150150285Y-119101809D01*
X150150285Y-118980857D01*
X150126095Y-118932476D01*
X150343809Y-118424476D02*
X150343809Y-118714761D01*
X150343809Y-118569619D02*
X149835809Y-118569619D01*
X149908380Y-118618000D01*
X149956761Y-118666380D01*
X149980952Y-118714761D01*
%TO.C,Demultiplexor1*%
X195700952Y-79985809D02*
X196039619Y-79985809D01*
X195821904Y-80493809D01*
X196450857Y-80155142D02*
X196450857Y-80493809D01*
X196329904Y-79961619D02*
X196208952Y-80324476D01*
X196523428Y-80324476D01*
X196716952Y-80493809D02*
X196716952Y-79985809D01*
X196716952Y-80227714D02*
X197007238Y-80227714D01*
X197007238Y-80493809D02*
X197007238Y-79985809D01*
X197539428Y-80445428D02*
X197515238Y-80469619D01*
X197442666Y-80493809D01*
X197394285Y-80493809D01*
X197321714Y-80469619D01*
X197273333Y-80421238D01*
X197249142Y-80372857D01*
X197224952Y-80276095D01*
X197224952Y-80203523D01*
X197249142Y-80106761D01*
X197273333Y-80058380D01*
X197321714Y-80010000D01*
X197394285Y-79985809D01*
X197442666Y-79985809D01*
X197515238Y-80010000D01*
X197539428Y-80034190D01*
X198023238Y-80493809D02*
X197732952Y-80493809D01*
X197878095Y-80493809D02*
X197878095Y-79985809D01*
X197829714Y-80058380D01*
X197781333Y-80106761D01*
X197732952Y-80130952D01*
X198192571Y-79985809D02*
X198507047Y-79985809D01*
X198337714Y-80179333D01*
X198410285Y-80179333D01*
X198458666Y-80203523D01*
X198482857Y-80227714D01*
X198507047Y-80276095D01*
X198507047Y-80397047D01*
X198482857Y-80445428D01*
X198458666Y-80469619D01*
X198410285Y-80493809D01*
X198265142Y-80493809D01*
X198216761Y-80469619D01*
X198192571Y-80445428D01*
X198797333Y-80203523D02*
X198748952Y-80179333D01*
X198724761Y-80155142D01*
X198700571Y-80106761D01*
X198700571Y-80082571D01*
X198724761Y-80034190D01*
X198748952Y-80010000D01*
X198797333Y-79985809D01*
X198894095Y-79985809D01*
X198942476Y-80010000D01*
X198966666Y-80034190D01*
X198990857Y-80082571D01*
X198990857Y-80106761D01*
X198966666Y-80155142D01*
X198942476Y-80179333D01*
X198894095Y-80203523D01*
X198797333Y-80203523D01*
X198748952Y-80227714D01*
X198724761Y-80251904D01*
X198700571Y-80300285D01*
X198700571Y-80397047D01*
X198724761Y-80445428D01*
X198748952Y-80469619D01*
X198797333Y-80493809D01*
X198894095Y-80493809D01*
X198942476Y-80469619D01*
X198966666Y-80445428D01*
X198990857Y-80397047D01*
X198990857Y-80300285D01*
X198966666Y-80251904D01*
X198942476Y-80227714D01*
X198894095Y-80203523D01*
X195555809Y-89347523D02*
X195047809Y-89347523D01*
X195047809Y-89226571D01*
X195072000Y-89154000D01*
X195120380Y-89105619D01*
X195168761Y-89081428D01*
X195265523Y-89057238D01*
X195338095Y-89057238D01*
X195434857Y-89081428D01*
X195483238Y-89105619D01*
X195531619Y-89154000D01*
X195555809Y-89226571D01*
X195555809Y-89347523D01*
X195531619Y-88646000D02*
X195555809Y-88694380D01*
X195555809Y-88791142D01*
X195531619Y-88839523D01*
X195483238Y-88863714D01*
X195289714Y-88863714D01*
X195241333Y-88839523D01*
X195217142Y-88791142D01*
X195217142Y-88694380D01*
X195241333Y-88646000D01*
X195289714Y-88621809D01*
X195338095Y-88621809D01*
X195386476Y-88863714D01*
X195555809Y-88404095D02*
X195217142Y-88404095D01*
X195265523Y-88404095D02*
X195241333Y-88379904D01*
X195217142Y-88331523D01*
X195217142Y-88258952D01*
X195241333Y-88210571D01*
X195289714Y-88186380D01*
X195555809Y-88186380D01*
X195289714Y-88186380D02*
X195241333Y-88162190D01*
X195217142Y-88113809D01*
X195217142Y-88041238D01*
X195241333Y-87992857D01*
X195289714Y-87968666D01*
X195555809Y-87968666D01*
X195217142Y-87509047D02*
X195555809Y-87509047D01*
X195217142Y-87726761D02*
X195483238Y-87726761D01*
X195531619Y-87702571D01*
X195555809Y-87654190D01*
X195555809Y-87581619D01*
X195531619Y-87533238D01*
X195507428Y-87509047D01*
X195555809Y-87194571D02*
X195531619Y-87242952D01*
X195483238Y-87267142D01*
X195047809Y-87267142D01*
X195217142Y-87073619D02*
X195217142Y-86880095D01*
X195047809Y-87001047D02*
X195483238Y-87001047D01*
X195531619Y-86976857D01*
X195555809Y-86928476D01*
X195555809Y-86880095D01*
X195555809Y-86710761D02*
X195217142Y-86710761D01*
X195047809Y-86710761D02*
X195072000Y-86734952D01*
X195096190Y-86710761D01*
X195072000Y-86686571D01*
X195047809Y-86710761D01*
X195096190Y-86710761D01*
X195217142Y-86468857D02*
X195725142Y-86468857D01*
X195241333Y-86468857D02*
X195217142Y-86420476D01*
X195217142Y-86323714D01*
X195241333Y-86275333D01*
X195265523Y-86251142D01*
X195313904Y-86226952D01*
X195459047Y-86226952D01*
X195507428Y-86251142D01*
X195531619Y-86275333D01*
X195555809Y-86323714D01*
X195555809Y-86420476D01*
X195531619Y-86468857D01*
X195555809Y-85936666D02*
X195531619Y-85985047D01*
X195483238Y-86009238D01*
X195047809Y-86009238D01*
X195531619Y-85549619D02*
X195555809Y-85598000D01*
X195555809Y-85694761D01*
X195531619Y-85743142D01*
X195483238Y-85767333D01*
X195289714Y-85767333D01*
X195241333Y-85743142D01*
X195217142Y-85694761D01*
X195217142Y-85598000D01*
X195241333Y-85549619D01*
X195289714Y-85525428D01*
X195338095Y-85525428D01*
X195386476Y-85767333D01*
X195555809Y-85356095D02*
X195217142Y-85090000D01*
X195217142Y-85356095D02*
X195555809Y-85090000D01*
X195555809Y-84823904D02*
X195531619Y-84872285D01*
X195507428Y-84896476D01*
X195459047Y-84920666D01*
X195313904Y-84920666D01*
X195265523Y-84896476D01*
X195241333Y-84872285D01*
X195217142Y-84823904D01*
X195217142Y-84751333D01*
X195241333Y-84702952D01*
X195265523Y-84678761D01*
X195313904Y-84654571D01*
X195459047Y-84654571D01*
X195507428Y-84678761D01*
X195531619Y-84702952D01*
X195555809Y-84751333D01*
X195555809Y-84823904D01*
X195555809Y-84436857D02*
X195217142Y-84436857D01*
X195313904Y-84436857D02*
X195265523Y-84412666D01*
X195241333Y-84388476D01*
X195217142Y-84340095D01*
X195217142Y-84291714D01*
X195555809Y-83856285D02*
X195555809Y-84146571D01*
X195555809Y-84001428D02*
X195047809Y-84001428D01*
X195120380Y-84049809D01*
X195168761Y-84098190D01*
X195192952Y-84146571D01*
%TO.C,C2*%
X139519809Y-98092380D02*
X139519809Y-98382666D01*
X139519809Y-98237523D02*
X139011809Y-98237523D01*
X139084380Y-98285904D01*
X139132761Y-98334285D01*
X139156952Y-98382666D01*
X139181142Y-97874666D02*
X139519809Y-97874666D01*
X139229523Y-97874666D02*
X139205333Y-97850476D01*
X139181142Y-97802095D01*
X139181142Y-97729523D01*
X139205333Y-97681142D01*
X139253714Y-97656952D01*
X139519809Y-97656952D01*
X139253714Y-97245714D02*
X139253714Y-97415047D01*
X139519809Y-97415047D02*
X139011809Y-97415047D01*
X139011809Y-97173142D01*
%TO.C,C1*%
X157709809Y-108494285D02*
X157709809Y-108784571D01*
X157709809Y-108639428D02*
X157201809Y-108639428D01*
X157274380Y-108687809D01*
X157322761Y-108736190D01*
X157346952Y-108784571D01*
X157201809Y-108179809D02*
X157201809Y-108131428D01*
X157226000Y-108083047D01*
X157250190Y-108058857D01*
X157298571Y-108034666D01*
X157395333Y-108010476D01*
X157516285Y-108010476D01*
X157613047Y-108034666D01*
X157661428Y-108058857D01*
X157685619Y-108083047D01*
X157709809Y-108131428D01*
X157709809Y-108179809D01*
X157685619Y-108228190D01*
X157661428Y-108252380D01*
X157613047Y-108276571D01*
X157516285Y-108300761D01*
X157395333Y-108300761D01*
X157298571Y-108276571D01*
X157250190Y-108252380D01*
X157226000Y-108228190D01*
X157201809Y-108179809D01*
X157371142Y-107792761D02*
X157709809Y-107792761D01*
X157419523Y-107792761D02*
X157395333Y-107768571D01*
X157371142Y-107720190D01*
X157371142Y-107647619D01*
X157395333Y-107599238D01*
X157443714Y-107575047D01*
X157709809Y-107575047D01*
X157443714Y-107163809D02*
X157443714Y-107333142D01*
X157709809Y-107333142D02*
X157201809Y-107333142D01*
X157201809Y-107091238D01*
%TO.C,bzu\u010D\u00E1k1*%
X170651714Y-89625714D02*
X170675904Y-89553142D01*
X170700095Y-89528952D01*
X170748476Y-89504761D01*
X170821047Y-89504761D01*
X170869428Y-89528952D01*
X170893619Y-89553142D01*
X170917809Y-89601523D01*
X170917809Y-89795047D01*
X170409809Y-89795047D01*
X170409809Y-89625714D01*
X170434000Y-89577333D01*
X170458190Y-89553142D01*
X170506571Y-89528952D01*
X170554952Y-89528952D01*
X170603333Y-89553142D01*
X170627523Y-89577333D01*
X170651714Y-89625714D01*
X170651714Y-89795047D01*
X170579142Y-89069333D02*
X170917809Y-89069333D01*
X170579142Y-89287047D02*
X170845238Y-89287047D01*
X170893619Y-89262857D01*
X170917809Y-89214476D01*
X170917809Y-89141904D01*
X170893619Y-89093523D01*
X170869428Y-89069333D01*
X170579142Y-88875809D02*
X170579142Y-88609714D01*
X170917809Y-88875809D01*
X170917809Y-88609714D01*
X170579142Y-88464571D02*
X170579142Y-88198476D01*
X170917809Y-88464571D01*
X170917809Y-88198476D01*
X170893619Y-87811428D02*
X170917809Y-87859809D01*
X170917809Y-87956571D01*
X170893619Y-88004952D01*
X170845238Y-88029142D01*
X170651714Y-88029142D01*
X170603333Y-88004952D01*
X170579142Y-87956571D01*
X170579142Y-87859809D01*
X170603333Y-87811428D01*
X170651714Y-87787238D01*
X170700095Y-87787238D01*
X170748476Y-88029142D01*
X170917809Y-87569523D02*
X170579142Y-87569523D01*
X170675904Y-87569523D02*
X170627523Y-87545333D01*
X170603333Y-87521142D01*
X170579142Y-87472761D01*
X170579142Y-87424380D01*
X172804666Y-90399809D02*
X172804666Y-89891809D01*
X172804666Y-90085333D02*
X172853047Y-90061142D01*
X172949809Y-90061142D01*
X172998190Y-90085333D01*
X173022380Y-90109523D01*
X173046571Y-90157904D01*
X173046571Y-90303047D01*
X173022380Y-90351428D01*
X172998190Y-90375619D01*
X172949809Y-90399809D01*
X172853047Y-90399809D01*
X172804666Y-90375619D01*
X173215904Y-90061142D02*
X173482000Y-90061142D01*
X173215904Y-90399809D01*
X173482000Y-90399809D01*
X173893238Y-90061142D02*
X173893238Y-90399809D01*
X173675523Y-90061142D02*
X173675523Y-90327238D01*
X173699714Y-90375619D01*
X173748095Y-90399809D01*
X173820666Y-90399809D01*
X173869047Y-90375619D01*
X173893238Y-90351428D01*
X174352857Y-90375619D02*
X174304476Y-90399809D01*
X174207714Y-90399809D01*
X174159333Y-90375619D01*
X174135142Y-90351428D01*
X174110952Y-90303047D01*
X174110952Y-90157904D01*
X174135142Y-90109523D01*
X174159333Y-90085333D01*
X174207714Y-90061142D01*
X174304476Y-90061142D01*
X174352857Y-90085333D01*
X174159333Y-89867619D02*
X174256095Y-89940190D01*
X174352857Y-89867619D01*
X174788285Y-90399809D02*
X174788285Y-90133714D01*
X174764095Y-90085333D01*
X174715714Y-90061142D01*
X174618952Y-90061142D01*
X174570571Y-90085333D01*
X174788285Y-90375619D02*
X174739904Y-90399809D01*
X174618952Y-90399809D01*
X174570571Y-90375619D01*
X174546380Y-90327238D01*
X174546380Y-90278857D01*
X174570571Y-90230476D01*
X174618952Y-90206285D01*
X174739904Y-90206285D01*
X174788285Y-90182095D01*
X174715714Y-89867619D02*
X174643142Y-89940190D01*
X175030190Y-90399809D02*
X175030190Y-89891809D01*
X175078571Y-90206285D02*
X175223714Y-90399809D01*
X175223714Y-90061142D02*
X175030190Y-90254666D01*
X175707523Y-90399809D02*
X175417238Y-90399809D01*
X175562380Y-90399809D02*
X175562380Y-89891809D01*
X175514000Y-89964380D01*
X175465619Y-90012761D01*
X175417238Y-90036952D01*
D13*
X171521428Y-94370952D02*
X171521428Y-93609047D01*
X171902380Y-93990000D02*
X171140476Y-93990000D01*
%TO.C,Baterie1*%
D12*
X181912380Y-102325714D02*
X181984952Y-102349904D01*
X182009142Y-102374095D01*
X182033333Y-102422476D01*
X182033333Y-102495047D01*
X182009142Y-102543428D01*
X181984952Y-102567619D01*
X181936571Y-102591809D01*
X181743047Y-102591809D01*
X181743047Y-102083809D01*
X181912380Y-102083809D01*
X181960761Y-102108000D01*
X181984952Y-102132190D01*
X182009142Y-102180571D01*
X182009142Y-102228952D01*
X181984952Y-102277333D01*
X181960761Y-102301523D01*
X181912380Y-102325714D01*
X181743047Y-102325714D01*
X182468761Y-102591809D02*
X182468761Y-102325714D01*
X182444571Y-102277333D01*
X182396190Y-102253142D01*
X182299428Y-102253142D01*
X182251047Y-102277333D01*
X182468761Y-102567619D02*
X182420380Y-102591809D01*
X182299428Y-102591809D01*
X182251047Y-102567619D01*
X182226857Y-102519238D01*
X182226857Y-102470857D01*
X182251047Y-102422476D01*
X182299428Y-102398285D01*
X182420380Y-102398285D01*
X182468761Y-102374095D01*
X182638095Y-102253142D02*
X182831619Y-102253142D01*
X182710666Y-102083809D02*
X182710666Y-102519238D01*
X182734857Y-102567619D01*
X182783238Y-102591809D01*
X182831619Y-102591809D01*
X182928380Y-102253142D02*
X183121904Y-102253142D01*
X183000952Y-102083809D02*
X183000952Y-102519238D01*
X183025142Y-102567619D01*
X183073523Y-102591809D01*
X183121904Y-102591809D01*
X183484761Y-102567619D02*
X183436380Y-102591809D01*
X183339619Y-102591809D01*
X183291238Y-102567619D01*
X183267047Y-102519238D01*
X183267047Y-102325714D01*
X183291238Y-102277333D01*
X183339619Y-102253142D01*
X183436380Y-102253142D01*
X183484761Y-102277333D01*
X183508952Y-102325714D01*
X183508952Y-102374095D01*
X183267047Y-102422476D01*
X183726666Y-102591809D02*
X183726666Y-102253142D01*
X183726666Y-102349904D02*
X183750857Y-102301523D01*
X183775047Y-102277333D01*
X183823428Y-102253142D01*
X183871809Y-102253142D01*
X183992761Y-102253142D02*
X184113714Y-102591809D01*
X184234666Y-102253142D02*
X184113714Y-102591809D01*
X184065333Y-102712761D01*
X184041142Y-102736952D01*
X183992761Y-102761142D01*
X184307238Y-102640190D02*
X184694285Y-102640190D01*
X185105523Y-102543428D02*
X185081333Y-102567619D01*
X185008761Y-102591809D01*
X184960380Y-102591809D01*
X184887809Y-102567619D01*
X184839428Y-102519238D01*
X184815238Y-102470857D01*
X184791047Y-102374095D01*
X184791047Y-102301523D01*
X184815238Y-102204761D01*
X184839428Y-102156380D01*
X184887809Y-102108000D01*
X184960380Y-102083809D01*
X185008761Y-102083809D01*
X185081333Y-102108000D01*
X185105523Y-102132190D01*
X185516761Y-102567619D02*
X185468380Y-102591809D01*
X185371619Y-102591809D01*
X185323238Y-102567619D01*
X185299047Y-102519238D01*
X185299047Y-102325714D01*
X185323238Y-102277333D01*
X185371619Y-102253142D01*
X185468380Y-102253142D01*
X185516761Y-102277333D01*
X185540952Y-102325714D01*
X185540952Y-102374095D01*
X185299047Y-102422476D01*
X185831238Y-102591809D02*
X185782857Y-102567619D01*
X185758666Y-102519238D01*
X185758666Y-102083809D01*
X186097333Y-102591809D02*
X186048952Y-102567619D01*
X186024761Y-102519238D01*
X186024761Y-102083809D01*
X190729809Y-108421714D02*
X190802380Y-108445904D01*
X190826571Y-108470095D01*
X190850761Y-108518476D01*
X190850761Y-108591047D01*
X190826571Y-108639428D01*
X190802380Y-108663619D01*
X190754000Y-108687809D01*
X190560476Y-108687809D01*
X190560476Y-108179809D01*
X190729809Y-108179809D01*
X190778190Y-108204000D01*
X190802380Y-108228190D01*
X190826571Y-108276571D01*
X190826571Y-108324952D01*
X190802380Y-108373333D01*
X190778190Y-108397523D01*
X190729809Y-108421714D01*
X190560476Y-108421714D01*
X191286190Y-108687809D02*
X191286190Y-108421714D01*
X191262000Y-108373333D01*
X191213619Y-108349142D01*
X191116857Y-108349142D01*
X191068476Y-108373333D01*
X191286190Y-108663619D02*
X191237809Y-108687809D01*
X191116857Y-108687809D01*
X191068476Y-108663619D01*
X191044285Y-108615238D01*
X191044285Y-108566857D01*
X191068476Y-108518476D01*
X191116857Y-108494285D01*
X191237809Y-108494285D01*
X191286190Y-108470095D01*
X191455523Y-108349142D02*
X191649047Y-108349142D01*
X191528095Y-108179809D02*
X191528095Y-108615238D01*
X191552285Y-108663619D01*
X191600666Y-108687809D01*
X191649047Y-108687809D01*
X192011904Y-108663619D02*
X191963523Y-108687809D01*
X191866761Y-108687809D01*
X191818380Y-108663619D01*
X191794190Y-108615238D01*
X191794190Y-108421714D01*
X191818380Y-108373333D01*
X191866761Y-108349142D01*
X191963523Y-108349142D01*
X192011904Y-108373333D01*
X192036095Y-108421714D01*
X192036095Y-108470095D01*
X191794190Y-108518476D01*
X192253809Y-108687809D02*
X192253809Y-108349142D01*
X192253809Y-108445904D02*
X192278000Y-108397523D01*
X192302190Y-108373333D01*
X192350571Y-108349142D01*
X192398952Y-108349142D01*
X192568285Y-108687809D02*
X192568285Y-108349142D01*
X192568285Y-108179809D02*
X192544095Y-108204000D01*
X192568285Y-108228190D01*
X192592476Y-108204000D01*
X192568285Y-108179809D01*
X192568285Y-108228190D01*
X193003714Y-108663619D02*
X192955333Y-108687809D01*
X192858571Y-108687809D01*
X192810190Y-108663619D01*
X192786000Y-108615238D01*
X192786000Y-108421714D01*
X192810190Y-108373333D01*
X192858571Y-108349142D01*
X192955333Y-108349142D01*
X193003714Y-108373333D01*
X193027904Y-108421714D01*
X193027904Y-108470095D01*
X192786000Y-108518476D01*
X193511714Y-108687809D02*
X193221428Y-108687809D01*
X193366571Y-108687809D02*
X193366571Y-108179809D01*
X193318190Y-108252380D01*
X193269809Y-108300761D01*
X193221428Y-108324952D01*
%TD*%
M02*
